{
copyright = "Copyright (c) 2015, Cadson Demak (info@cadsondemak.com)";
customParameters = (
{
name = vendorID;
value = CDK;
},
{
name = description;
value = "Copyright (c) 2015, Cadson Demak (info@cadsondemak.com)";
},
{
name = license;

glyphs = (
{
glyphname = A;
lastChange = "2015-07-16 19:31:59 +0000";
layers = (
{
layerId = "9EEBCA4B-DAAA-41A9-8636-8F7562732FC0";
name = Bold;
paths = (
{
closed = 1;
nodes = (
"267 0 LINE SMOOTH",
"278 0 OFFCURVE",
"284 7 OFFCURVE",
"284 22 CURVE SMOOTH",
"284 41 OFFCURVE",
"273 51 OFFCURVE",
"237 64 CURVE SMOOTH",
"183 84 LINE",
"226 199 LINE",
"500 199 LINE",
"545 85 LINE",
"518 85 LINE SMOOTH",
"479 85 OFFCURVE",
"452 69 OFFCURVE",
"452 35 CURVE SMOOTH",
"452 13 OFFCURVE",
"462 0 OFFCURVE",
"481 0 CURVE SMOOTH",
"757 0 LINE SMOOTH",
"770 0 OFFCURVE",
"774 11 OFFCURVE",
"774 26 CURVE SMOOTH",
"774 47 OFFCURVE",
"761 57 OFFCURVE",
"730 70 CURVE SMOOTH",
"696 84 LINE",
"464 695 LINE",
"303 695 LINE",
"73 85 LINE",
"63 85 LINE SMOOTH",
"24 85 OFFCURVE",
"-3 69 OFFCURVE",
"-3 35 CURVE SMOOTH",
"-3 13 OFFCURVE",
"7 0 OFFCURVE",
"26 0 CURVE SMOOTH"
);
},
{
closed = 1;
nodes = (
"364 570 LINE",
"466 293 LINE",
"261 293 LINE"
);
}
);
width = 771;
}
);
note = A;
unicode = 0041;
},
{
glyphname = Aacute;
lastChange = "2015-07-16 19:31:59 +0000";
layers = (
{
layerId = "9EEBCA4B-DAAA-41A9-8636-8F7562732FC0";
name = Bold;
paths = (
{
closed = 1;
nodes = (
"267 0 LINE SMOOTH",
"278 0 OFFCURVE",
"284 7 OFFCURVE",
"284 22 CURVE SMOOTH",
"284 41 OFFCURVE",
"273 51 OFFCURVE",
"237 64 CURVE SMOOTH",
"183 84 LINE",
"226 199 LINE",
"500 199 LINE",
"545 85 LINE",
"518 85 LINE SMOOTH",
"479 85 OFFCURVE",
"452 69 OFFCURVE",
"452 35 CURVE SMOOTH",
"452 13 OFFCURVE",
"462 0 OFFCURVE",
"481 0 CURVE SMOOTH",
"757 0 LINE SMOOTH",
"770 0 OFFCURVE",
"774 11 OFFCURVE",
"774 26 CURVE SMOOTH",
"774 47 OFFCURVE",
"761 57 OFFCURVE",
"730 70 CURVE SMOOTH",
"696 84 LINE",
"464 695 LINE",
"303 695 LINE",
"73 85 LINE",
"63 85 LINE SMOOTH",
"24 85 OFFCURVE",
"-3 69 OFFCURVE",
"-3 35 CURVE SMOOTH",
"-3 13 OFFCURVE",
"7 0 OFFCURVE",
"26 0 CURVE SMOOTH"
);
},
{
closed = 1;
nodes = (
"364 570 LINE",
"466 293 LINE",
"261 293 LINE"
);
},
{
closed = 1;
nodes = (
"546 926 LINE",
"441 995 LINE",
"330 807 LINE",
"410 754 LINE"
);
}
);
width = 771;
}
);
note = Aacute;
unicode = 00C1;
},
{
glyphname = Abreve;
lastChange = "2015-07-16 19:31:59 +0000";
layers = (
{
layerId = "9EEBCA4B-DAAA-41A9-8636-8F7562732FC0";
name = Bold;
paths = (
{
closed = 1;
nodes = (
"267 0 LINE SMOOTH",
"278 0 OFFCURVE",
"284 7 OFFCURVE",
"284 22 CURVE SMOOTH",
"284 41 OFFCURVE",
"273 51 OFFCURVE",
"237 64 CURVE SMOOTH",
"183 84 LINE",
"226 199 LINE",
"500 199 LINE",
"545 85 LINE",
"518 85 LINE SMOOTH",
"479 85 OFFCURVE",
"452 69 OFFCURVE",
"452 35 CURVE SMOOTH",
"452 13 OFFCURVE",
"462 0 OFFCURVE",
"481 0 CURVE SMOOTH",
"757 0 LINE SMOOTH",
"770 0 OFFCURVE",
"774 11 OFFCURVE",
"774 26 CURVE SMOOTH",
"774 47 OFFCURVE",
"761 57 OFFCURVE",
"730 70 CURVE SMOOTH",
"696 84 LINE",
"464 695 LINE",
"303 695 LINE",
"73 85 LINE",
"63 85 LINE SMOOTH",
"24 85 OFFCURVE",
"-3 69 OFFCURVE",
"-3 35 CURVE SMOOTH",
"-3 13 OFFCURVE",
"7 0 OFFCURVE",
"26 0 CURVE SMOOTH"
);
},
{
closed = 1;
nodes = (
"364 570 LINE",
"466 293 LINE",
"261 293 LINE"
);
},
{
closed = 1;
nodes = (
"454 747 OFFCURVE",
"525 787 OFFCURVE",
"554 891 CURVE",
"479 917 LINE",
"461 867 OFFCURVE",
"424 841 OFFCURVE",
"379 841 CURVE SMOOTH",
"334 841 OFFCURVE",
"297 867 OFFCURVE",
"279 917 CURVE",
"204 891 LINE",
"233 787 OFFCURVE",
"304 747 OFFCURVE",
"379 747 CURVE SMOOTH"
);
}
);
width = 771;
}
);
note = Abreve;
unicode = 0102;
},
{
glyphname = Abreveacute;
lastChange = "2015-07-16 19:31:59 +0000";
layers = (
{
layerId = "9EEBCA4B-DAAA-41A9-8636-8F7562732FC0";
name = Bold;
paths = (
{
closed = 1;
nodes = (
"267 0 LINE SMOOTH",
"278 0 OFFCURVE",
"284 7 OFFCURVE",
"284 22 CURVE SMOOTH",
"284 41 OFFCURVE",
"273 51 OFFCURVE",
"237 64 CURVE SMOOTH",
"183 84 LINE",
"226 199 LINE",
"500 199 LINE",
"545 85 LINE",
"518 85 LINE SMOOTH",
"479 85 OFFCURVE",
"452 69 OFFCURVE",
"452 35 CURVE SMOOTH",
"452 13 OFFCURVE",
"462 0 OFFCURVE",
"481 0 CURVE SMOOTH",
"757 0 LINE SMOOTH",
"770 0 OFFCURVE",
"774 11 OFFCURVE",
"774 26 CURVE SMOOTH",
"774 47 OFFCURVE",
"761 57 OFFCURVE",
"730 70 CURVE SMOOTH",
"696 84 LINE",
"464 695 LINE",
"303 695 LINE",
"73 85 LINE",
"63 85 LINE SMOOTH",
"24 85 OFFCURVE",
"-3 69 OFFCURVE",
"-3 35 CURVE SMOOTH",
"-3 13 OFFCURVE",
"7 0 OFFCURVE",
"26 0 CURVE SMOOTH"
);
},
{
closed = 1;
nodes = (
"364 570 LINE",
"466 293 LINE",
"261 293 LINE"
);
},
{
closed = 1;
nodes = (
"458 747 OFFCURVE",
"529 787 OFFCURVE",
"558 891 CURVE",
"483 917 LINE",
"465 867 OFFCURVE",
"428 841 OFFCURVE",
"383 841 CURVE SMOOTH",
"338 841 OFFCURVE",
"301 867 OFFCURVE",
"283 917 CURVE",
"208 891 LINE",
"237 787 OFFCURVE",
"308 747 OFFCURVE",
"383 747 CURVE SMOOTH"
);
},
{
closed = 1;
nodes = (
"521 1045 LINE",
"424 1107 LINE",
"334 947 LINE",
"405 901 LINE"
);
}
);
width = 771;
}
);
note = Abreveacute;
unicode = 1EAE;
},
{
glyphname = Abrevedotbelow;
lastChange = "2015-07-16 19:32:00 +0000";
layers = (
{
layerId = "9EEBCA4B-DAAA-41A9-8636-8F7562732FC0";
name = Bold;
paths = (
{
closed = 1;
nodes = (
"267 0 LINE SMOOTH",
"278 0 OFFCURVE",
"284 7 OFFCURVE",
"284 22 CURVE SMOOTH",
"284 41 OFFCURVE",
"273 51 OFFCURVE",
"237 64 CURVE SMOOTH",
"183 84 LINE",
"226 199 LINE",
"500 199 LINE",
"545 85 LINE",
"518 85 LINE SMOOTH",
"479 85 OFFCURVE",
"452 69 OFFCURVE",
"452 35 CURVE SMOOTH",
"452 13 OFFCURVE",
"462 0 OFFCURVE",
"481 0 CURVE SMOOTH",
"757 0 LINE SMOOTH",
"770 0 OFFCURVE",
"774 11 OFFCURVE",
"774 26 CURVE SMOOTH",
"774 47 OFFCURVE",
"761 57 OFFCURVE",
"730 70 CURVE SMOOTH",
"696 84 LINE",
"464 695 LINE",
"303 695 LINE",
"73 85 LINE",
"63 85 LINE SMOOTH",
"24 85 OFFCURVE",
"-3 69 OFFCURVE",
"-3 35 CURVE SMOOTH",
"-3 13 OFFCURVE",
"7 0 OFFCURVE",
"26 0 CURVE SMOOTH"
);
},
{
closed = 1;
nodes = (
"412 -208 OFFCURVE",
"444 -178 OFFCURVE",
"444 -137 CURVE SMOOTH",
"444 -96 OFFCURVE",
"412 -66 OFFCURVE",
"374 -66 CURVE SMOOTH",
"335 -66 OFFCURVE",
"303 -96 OFFCURVE",
"303 -137 CURVE SMOOTH",
"303 -178 OFFCURVE",
"335 -208 OFFCURVE",
"374 -208 CURVE SMOOTH"
);
},
{
closed = 1;
nodes = (
"364 570 LINE",
"466 293 LINE",
"261 293 LINE"
);
},
{
closed = 1;
nodes = (
"454 747 OFFCURVE",
"525 787 OFFCURVE",
"554 891 CURVE",
"479 917 LINE",
"461 867 OFFCURVE",
"424 841 OFFCURVE",
"379 841 CURVE SMOOTH",
"334 841 OFFCURVE",
"297 867 OFFCURVE",
"279 917 CURVE",
"204 891 LINE",
"233 787 OFFCURVE",
"304 747 OFFCURVE",
"379 747 CURVE SMOOTH"
);
}
);
width = 771;
}
);
note = Abrevedotbelow;
unicode = 1EB6;
},
{
glyphname = Abrevegrave;
lastChange = "2015-07-16 19:32:00 +0000";
layers = (
{
layerId = "9EEBCA4B-DAAA-41A9-8636-8F7562732FC0";
name = Bold;
paths = (
{
closed = 1;
nodes = (
"267 0 LINE SMOOTH",
"278 0 OFFCURVE",
"284 7 OFFCURVE",
"284 22 CURVE SMOOTH",
"284 41 OFFCURVE",
"273 51 OFFCURVE",
"237 64 CURVE SMOOTH",
"183 84 LINE",
"226 199 LINE",
"500 199 LINE",
"545 85 LINE",
"518 85 LINE SMOOTH",
"479 85 OFFCURVE",
"452 69 OFFCURVE",
"452 35 CURVE SMOOTH",
"452 13 OFFCURVE",
"462 0 OFFCURVE",
"481 0 CURVE SMOOTH",
"757 0 LINE SMOOTH",
"770 0 OFFCURVE",
"774 11 OFFCURVE",
"774 26 CURVE SMOOTH",
"774 47 OFFCURVE",
"761 57 OFFCURVE",
"730 70 CURVE SMOOTH",
"696 84 LINE",
"464 695 LINE",
"303 695 LINE",
"73 85 LINE",
"63 85 LINE SMOOTH",
"24 85 OFFCURVE",
"-3 69 OFFCURVE",
"-3 35 CURVE SMOOTH",
"-3 13 OFFCURVE",
"7 0 OFFCURVE",
"26 0 CURVE SMOOTH"
);
},
{
closed = 1;
nodes = (
"364 570 LINE",
"466 293 LINE",
"261 293 LINE"
);
},
{
closed = 1;
nodes = (
"451 747 OFFCURVE",
"522 787 OFFCURVE",
"551 891 CURVE",
"476 917 LINE",
"458 867 OFFCURVE",
"421 841 OFFCURVE",
"376 841 CURVE SMOOTH",
"331 841 OFFCURVE",
"294 867 OFFCURVE",
"276 917 CURVE",
"201 891 LINE",
"230 787 OFFCURVE",
"301 747 OFFCURVE",
"376 747 CURVE SMOOTH"
);
},
{
closed = 1;
nodes = (
"425 947 LINE",
"335 1107 LINE",
"238 1045 LINE",
"354 901 LINE"
);
}
);
width = 771;
}
);
note = Abrevegrave;
unicode = 1EB0;
},
{
glyphname = Abrevehookabove;
lastChange = "2015-07-16 19:31:59 +0000";
layers = (
{
layerId = "9EEBCA4B-DAAA-41A9-8636-8F7562732FC0";
name = Bold;
paths = (
{
closed = 1;
nodes = (
"267 0 LINE SMOOTH",
"278 0 OFFCURVE",
"284 7 OFFCURVE",
"284 22 CURVE SMOOTH",
"284 41 OFFCURVE",
"273 51 OFFCURVE",
"237 64 CURVE SMOOTH",
"183 84 LINE",
"226 199 LINE",
"500 199 LINE",
"545 85 LINE",
"518 85 LINE SMOOTH",
"479 85 OFFCURVE",
"452 69 OFFCURVE",
"452 35 CURVE SMOOTH",
"452 13 OFFCURVE",
"462 0 OFFCURVE",
"481 0 CURVE SMOOTH",
"757 0 LINE SMOOTH",
"770 0 OFFCURVE",
"774 11 OFFCURVE",
"774 26 CURVE SMOOTH",
"774 47 OFFCURVE",
"761 57 OFFCURVE",
"730 70 CURVE SMOOTH",
"696 84 LINE",
"464 695 LINE",
"303 695 LINE",
"73 85 LINE",
"63 85 LINE SMOOTH",
"24 85 OFFCURVE",
"-3 69 OFFCURVE",
"-3 35 CURVE SMOOTH",
"-3 13 OFFCURVE",
"7 0 OFFCURVE",
"26 0 CURVE SMOOTH"
);
},
{
closed = 1;
nodes = (
"364 570 LINE",
"466 293 LINE",
"261 293 LINE"
);
},
{
closed = 1;
nodes = (
"453 747 OFFCURVE",
"524 787 OFFCURVE",
"553 891 CURVE",
"478 917 LINE",
"460 867 OFFCURVE",
"423 841 OFFCURVE",
"378 841 CURVE SMOOTH",
"333 841 OFFCURVE",
"296 867 OFFCURVE",
"278 917 CURVE",
"203 891 LINE",
"232 787 OFFCURVE",
"303 747 OFFCURVE",
"378 747 CURVE SMOOTH"
);
},
{
closed = 1;
nodes = (
"405 901 LINE",
"412 950 LINE",
"461 968 OFFCURVE",
"490 1000 OFFCURVE",
"490 1042 CURVE SMOOTH",
"490 1087 OFFCURVE",
"451 1128 OFFCURVE",
"381 1128 CURVE SMOOTH",
"353 1128 OFFCURVE",
"319 1118 OFFCURVE",
"300 1110 CURVE",
"309 1060 LINE",
"331 1066 OFFCURVE",
"348 1070 OFFCURVE",
"368 1070 CURVE SMOOTH",
"392 1070 OFFCURVE",
"400 1059 OFFCURVE",
"400 1041 CURVE SMOOTH",
"400 1015 OFFCURVE",
"374 998 OFFCURVE",
"334 983 CURVE",
"342 901 LINE"
);
}
);
width = 771;
}
);
note = Abrevehookabove;
unicode = 1EB2;
},
{
glyphname = Abrevetilde;
lastChange = "2015-07-16 19:31:59 +0000";
layers = (
{
layerId = "9EEBCA4B-DAAA-41A9-8636-8F7562732FC0";
name = Bold;
paths = (
{
closed = 1;
nodes = (
"267 0 LINE SMOOTH",
"278 0 OFFCURVE",
"284 7 OFFCURVE",
"284 22 CURVE SMOOTH",
"284 41 OFFCURVE",
"273 51 OFFCURVE",
"237 64 CURVE SMOOTH",
"183 84 LINE",
"226 199 LINE",
"500 199 LINE",
"545 85 LINE",
"518 85 LINE SMOOTH",
"479 85 OFFCURVE",
"452 69 OFFCURVE",
"452 35 CURVE SMOOTH",
"452 13 OFFCURVE",
"462 0 OFFCURVE",
"481 0 CURVE SMOOTH",
"757 0 LINE SMOOTH",
"770 0 OFFCURVE",
"774 11 OFFCURVE",
"774 26 CURVE SMOOTH",
"774 47 OFFCURVE",
"761 57 OFFCURVE",
"730 70 CURVE SMOOTH",
"696 84 LINE",
"464 695 LINE",
"303 695 LINE",
"73 85 LINE",
"63 85 LINE SMOOTH",
"24 85 OFFCURVE",
"-3 69 OFFCURVE",
"-3 35 CURVE SMOOTH",
"-3 13 OFFCURVE",
"7 0 OFFCURVE",
"26 0 CURVE SMOOTH"
);
},
{
closed = 1;
nodes = (
"364 570 LINE",
"466 293 LINE",
"261 293 LINE"
);
},
{
closed = 1;
nodes = (
"458 747 OFFCURVE",
"529 787 OFFCURVE",
"558 891 CURVE",
"483 917 LINE",
"465 867 OFFCURVE",
"428 841 OFFCURVE",
"383 841 CURVE SMOOTH",
"338 841 OFFCURVE",
"301 867 OFFCURVE",
"283 917 CURVE",
"208 891 LINE",
"237 787 OFFCURVE",
"308 747 OFFCURVE",
"383 747 CURVE SMOOTH"
);
},
{
closed = 1;
nodes = (
"467 947 OFFCURVE",
"498 963 OFFCURVE",
"525 991 CURVE",
"486 1045 LINE",
"470 1033 OFFCURVE",
"455 1027 OFFCURVE",
"438 1027 CURVE SMOOTH",
"400 1027 OFFCURVE",
"370 1060 OFFCURVE",
"330 1060 CURVE SMOOTH",
"303 1060 OFFCURVE",
"268 1041 OFFCURVE",
"241 1017 CURVE",
"280 961 LINE",
"295 972 OFFCURVE",
"309 981 OFFCURVE",
"330 981 CURVE SMOOTH",
"368 981 OFFCURVE",
"398 947 OFFCURVE",
"439 947 CURVE SMOOTH"
);
}
);
width = 771;
}
);
note = Abrevetilde;
unicode = 1EB4;
},
{
glyphname = Acaron;
lastChange = "2015-07-16 19:31:59 +0000";
layers = (
{
layerId = "9EEBCA4B-DAAA-41A9-8636-8F7562732FC0";
name = Bold;
paths = (
{
closed = 1;
nodes = (
"267 0 LINE SMOOTH",
"278 0 OFFCURVE",
"284 7 OFFCURVE",
"284 22 CURVE SMOOTH",
"284 41 OFFCURVE",
"273 51 OFFCURVE",
"237 64 CURVE SMOOTH",
"183 84 LINE",
"226 199 LINE",
"500 199 LINE",
"545 85 LINE",
"518 85 LINE SMOOTH",
"479 85 OFFCURVE",
"452 69 OFFCURVE",
"452 35 CURVE SMOOTH",
"452 13 OFFCURVE",
"462 0 OFFCURVE",
"481 0 CURVE SMOOTH",
"757 0 LINE SMOOTH",
"770 0 OFFCURVE",
"774 11 OFFCURVE",
"774 26 CURVE SMOOTH",
"774 47 OFFCURVE",
"761 57 OFFCURVE",
"730 70 CURVE SMOOTH",
"696 84 LINE",
"464 695 LINE",
"303 695 LINE",
"73 85 LINE",
"63 85 LINE SMOOTH",
"24 85 OFFCURVE",
"-3 69 OFFCURVE",
"-3 35 CURVE SMOOTH",
"-3 13 OFFCURVE",
"7 0 OFFCURVE",
"26 0 CURVE SMOOTH"
);
},
{
closed = 1;
nodes = (
"364 570 LINE",
"466 293 LINE",
"261 293 LINE"
);
},
{
closed = 1;
nodes = (
"402 754 LINE",
"527 917 LINE",
"466 971 LINE",
"369 860 LINE",
"272 971 LINE",
"211 917 LINE",
"336 754 LINE"
);
}
);
width = 771;
}
);
note = Acaron;
unicode = 01CD;
},
{
glyphname = Acircumflex;
lastChange = "2015-07-16 19:31:59 +0000";
layers = (
{
layerId = "9EEBCA4B-DAAA-41A9-8636-8F7562732FC0";
name = Bold;
paths = (
{
closed = 1;
nodes = (
"267 0 LINE SMOOTH",
"278 0 OFFCURVE",
"284 7 OFFCURVE",
"284 22 CURVE SMOOTH",
"284 41 OFFCURVE",
"273 51 OFFCURVE",
"237 64 CURVE SMOOTH",
"183 84 LINE",
"226 199 LINE",
"500 199 LINE",
"545 85 LINE",
"518 85 LINE SMOOTH",
"479 85 OFFCURVE",
"452 69 OFFCURVE",
"452 35 CURVE SMOOTH",
"452 13 OFFCURVE",
"462 0 OFFCURVE",
"481 0 CURVE SMOOTH",
"757 0 LINE SMOOTH",
"770 0 OFFCURVE",
"774 11 OFFCURVE",
"774 26 CURVE SMOOTH",
"774 47 OFFCURVE",
"761 57 OFFCURVE",
"730 70 CURVE SMOOTH",
"696 84 LINE",
"464 695 LINE",
"303 695 LINE",
"73 85 LINE",
"63 85 LINE SMOOTH",
"24 85 OFFCURVE",
"-3 69 OFFCURVE",
"-3 35 CURVE SMOOTH",
"-3 13 OFFCURVE",
"7 0 OFFCURVE",
"26 0 CURVE SMOOTH"
);
},
{
closed = 1;
nodes = (
"364 570 LINE",
"466 293 LINE",
"261 293 LINE"
);
},
{
closed = 1;
nodes = (
"372 865 LINE",
"469 754 LINE",
"530 808 LINE",
"405 971 LINE",
"339 971 LINE",
"214 808 LINE",
"275 754 LINE"
);
}
);
width = 771;
}
);
note = Acircumflex;
unicode = 00C2;
},
{
glyphname = Acircumflexacute;
lastChange = "2015-07-16 19:31:59 +0000";
layers = (
{
layerId = "9EEBCA4B-DAAA-41A9-8636-8F7562732FC0";
name = Bold;
paths = (
{
closed = 1;
nodes = (
"267 0 LINE SMOOTH",
"278 0 OFFCURVE",
"284 7 OFFCURVE",
"284 22 CURVE SMOOTH",
"284 41 OFFCURVE",
"273 51 OFFCURVE",
"237 64 CURVE SMOOTH",
"183 84 LINE",
"226 199 LINE",
"500 199 LINE",
"545 85 LINE",
"518 85 LINE SMOOTH",
"479 85 OFFCURVE",
"452 69 OFFCURVE",
"452 35 CURVE SMOOTH",
"452 13 OFFCURVE",
"462 0 OFFCURVE",
"481 0 CURVE SMOOTH",
"757 0 LINE SMOOTH",
"770 0 OFFCURVE",
"774 11 OFFCURVE",
"774 26 CURVE SMOOTH",
"774 47 OFFCURVE",
"761 57 OFFCURVE",
"730 70 CURVE SMOOTH",
"696 84 LINE",
"464 695 LINE",
"303 695 LINE",
"73 85 LINE",
"63 85 LINE SMOOTH",
"24 85 OFFCURVE",
"-3 69 OFFCURVE",
"-3 35 CURVE SMOOTH",
"-3 13 OFFCURVE",
"7 0 OFFCURVE",
"26 0 CURVE SMOOTH"
);
},
{
closed = 1;
nodes = (
"364 570 LINE",
"466 293 LINE",
"261 293 LINE"
);
},
{
closed = 1;
nodes = (
"379 865 LINE",
"476 754 LINE",
"537 808 LINE",
"412 971 LINE",
"346 971 LINE",
"221 808 LINE",
"282 754 LINE"
);
},
{
closed = 1;
nodes = (
"653 995 LINE",
"561 1056 LINE",
"491 927 LINE",
"551 885 LINE"
);
}
);
width = 771;
}
);
note = Acircumflexacute;
unicode = 1EA4;
},
{
glyphname = Acircumflexdotbelow;
lastChange = "2015-07-16 19:31:59 +0000";
layers = (
{
layerId = "9EEBCA4B-DAAA-41A9-8636-8F7562732FC0";
name = Bold;
paths = (
{
closed = 1;
nodes = (
"267 0 LINE SMOOTH",
"278 0 OFFCURVE",
"284 7 OFFCURVE",
"284 22 CURVE SMOOTH",
"284 41 OFFCURVE",
"273 51 OFFCURVE",
"237 64 CURVE SMOOTH",
"183 84 LINE",
"226 199 LINE",
"500 199 LINE",
"545 85 LINE",
"518 85 LINE SMOOTH",
"479 85 OFFCURVE",
"452 69 OFFCURVE",
"452 35 CURVE SMOOTH",
"452 13 OFFCURVE",
"462 0 OFFCURVE",
"481 0 CURVE SMOOTH",
"757 0 LINE SMOOTH",
"770 0 OFFCURVE",
"774 11 OFFCURVE",
"774 26 CURVE SMOOTH",
"774 47 OFFCURVE",
"761 57 OFFCURVE",
"730 70 CURVE SMOOTH",
"696 84 LINE",
"464 695 LINE",
"303 695 LINE",
"73 85 LINE",
"63 85 LINE SMOOTH",
"24 85 OFFCURVE",
"-3 69 OFFCURVE",
"-3 35 CURVE SMOOTH",
"-3 13 OFFCURVE",
"7 0 OFFCURVE",
"26 0 CURVE SMOOTH"
);
},
{
closed = 1;
nodes = (
"410 -208 OFFCURVE",
"442 -178 OFFCURVE",
"442 -137 CURVE SMOOTH",
"442 -96 OFFCURVE",
"410 -66 OFFCURVE",
"372 -66 CURVE SMOOTH",
"333 -66 OFFCURVE",
"301 -96 OFFCURVE",
"301 -137 CURVE SMOOTH",
"301 -178 OFFCURVE",
"333 -208 OFFCURVE",
"372 -208 CURVE SMOOTH"
);
},
{
closed = 1;
nodes = (
"364 570 LINE",
"466 293 LINE",
"261 293 LINE"
);
},
{
closed = 1;
nodes = (
"377 865 LINE",
"474 754 LINE",
"535 808 LINE",
"410 971 LINE",
"344 971 LINE",
"219 808 LINE",
"280 754 LINE"
);
}
);
width = 771;
}
);
note = Acircumflexdotbelow;
unicode = 1EAC;
},
{
glyphname = Acircumflexgrave;
lastChange = "2015-07-16 19:31:59 +0000";
layers = (
{
layerId = "9EEBCA4B-DAAA-41A9-8636-8F7562732FC0";
name = Bold;
paths = (
{
closed = 1;
nodes = (
"267 0 LINE SMOOTH",
"278 0 OFFCURVE",
"284 7 OFFCURVE",
"284 22 CURVE SMOOTH",
"284 41 OFFCURVE",
"273 51 OFFCURVE",
"237 64 CURVE SMOOTH",
"183 84 LINE",
"226 199 LINE",
"500 199 LINE",
"545 85 LINE",
"518 85 LINE SMOOTH",
"479 85 OFFCURVE",
"452 69 OFFCURVE",
"452 35 CURVE SMOOTH",
"452 13 OFFCURVE",
"462 0 OFFCURVE",
"481 0 CURVE SMOOTH",
"757 0 LINE SMOOTH",
"770 0 OFFCURVE",
"774 11 OFFCURVE",
"774 26 CURVE SMOOTH",
"774 47 OFFCURVE",
"761 57 OFFCURVE",
"730 70 CURVE SMOOTH",
"696 84 LINE",
"464 695 LINE",
"303 695 LINE",
"73 85 LINE",
"63 85 LINE SMOOTH",
"24 85 OFFCURVE",
"-3 69 OFFCURVE",
"-3 35 CURVE SMOOTH",
"-3 13 OFFCURVE",
"7 0 OFFCURVE",
"26 0 CURVE SMOOTH"
);
},
{
closed = 1;
nodes = (
"364 570 LINE",
"466 293 LINE",
"261 293 LINE"
);
},
{
closed = 1;
nodes = (
"268 927 LINE",
"198 1056 LINE",
"106 995 LINE",
"208 885 LINE"
);
},
{
closed = 1;
nodes = (
"380 865 LINE",
"477 754 LINE",
"538 808 LINE",
"413 971 LINE",
"347 971 LINE",
"222 808 LINE",
"283 754 LINE"
);
}
);
width = 771;
}
);
note = Acircumflexgrave;
unicode = 1EA6;
},
{
glyphname = Acircumflexhookabove;
lastChange = "2015-07-16 19:31:59 +0000";
layers = (
{
layerId = "9EEBCA4B-DAAA-41A9-8636-8F7562732FC0";
name = Bold;
paths = (
{
closed = 1;
nodes = (
"267 0 LINE SMOOTH",
"278 0 OFFCURVE",
"284 7 OFFCURVE",
"284 22 CURVE SMOOTH",
"284 41 OFFCURVE",
"273 51 OFFCURVE",
"237 64 CURVE SMOOTH",
"183 84 LINE",
"226 199 LINE",
"500 199 LINE",
"545 85 LINE",
"518 85 LINE SMOOTH",
"479 85 OFFCURVE",
"452 69 OFFCURVE",
"452 35 CURVE SMOOTH",
"452 13 OFFCURVE",
"462 0 OFFCURVE",
"481 0 CURVE SMOOTH",
"757 0 LINE SMOOTH",
"770 0 OFFCURVE",
"774 11 OFFCURVE",
"774 26 CURVE SMOOTH",
"774 47 OFFCURVE",
"761 57 OFFCURVE",
"730 70 CURVE SMOOTH",
"696 84 LINE",
"464 695 LINE",
"303 695 LINE",
"73 85 LINE",
"63 85 LINE SMOOTH",
"24 85 OFFCURVE",
"-3 69 OFFCURVE",
"-3 35 CURVE SMOOTH",
"-3 13 OFFCURVE",
"7 0 OFFCURVE",
"26 0 CURVE SMOOTH"
);
},
{
closed = 1;
nodes = (
"364 570 LINE",
"466 293 LINE",
"261 293 LINE"
);
},
{
closed = 1;
nodes = (
"379 865 LINE",
"476 754 LINE",
"537 808 LINE",
"412 971 LINE",
"346 971 LINE",
"221 808 LINE",
"282 754 LINE"
);
},
{
closed = 1;
nodes = (
"591 886 LINE",
"598 935 LINE",
"647 953 OFFCURVE",
"676 985 OFFCURVE",
"676 1027 CURVE SMOOTH",
"676 1072 OFFCURVE",
"637 1113 OFFCURVE",
"567 1113 CURVE SMOOTH",
"539 1113 OFFCURVE",
"505 1103 OFFCURVE",
"486 1095 CURVE",
"495 1045 LINE",
"517 1051 OFFCURVE",
"534 1055 OFFCURVE",
"554 1055 CURVE SMOOTH",
"578 1055 OFFCURVE",
"586 1044 OFFCURVE",
"586 1026 CURVE SMOOTH",
"586 1000 OFFCURVE",
"560 983 OFFCURVE",
"520 968 CURVE",
"528 886 LINE"
);
}
);
width = 771;
}
);
note = Acircumflexhookabove;
unicode = 1EA8;
},
{
glyphname = Acircumflextilde;
lastChange = "2015-07-16 19:31:59 +0000";
layers = (
{
layerId = "9EEBCA4B-DAAA-41A9-8636-8F7562732FC0";
name = Bold;
paths = (
{
closed = 1;
nodes = (
"267 0 LINE SMOOTH",
"278 0 OFFCURVE",
"284 7 OFFCURVE",
"284 22 CURVE SMOOTH",
"284 41 OFFCURVE",
"273 51 OFFCURVE",
"237 64 CURVE SMOOTH",
"183 84 LINE",
"226 199 LINE",
"500 199 LINE",
"545 85 LINE",
"518 85 LINE SMOOTH",
"479 85 OFFCURVE",
"452 69 OFFCURVE",
"452 35 CURVE SMOOTH",
"452 13 OFFCURVE",
"462 0 OFFCURVE",
"481 0 CURVE SMOOTH",
"757 0 LINE SMOOTH",
"770 0 OFFCURVE",
"774 11 OFFCURVE",
"774 26 CURVE SMOOTH",
"774 47 OFFCURVE",
"761 57 OFFCURVE",
"730 70 CURVE SMOOTH",
"696 84 LINE",
"464 695 LINE",
"303 695 LINE",
"73 85 LINE",
"63 85 LINE SMOOTH",
"24 85 OFFCURVE",
"-3 69 OFFCURVE",
"-3 35 CURVE SMOOTH",
"-3 13 OFFCURVE",
"7 0 OFFCURVE",
"26 0 CURVE SMOOTH"
);
},
{
closed = 1;
nodes = (
"364 570 LINE",
"466 293 LINE",
"261 293 LINE"
);
},
{
closed = 1;
nodes = (
"378 865 LINE",
"475 754 LINE",
"536 808 LINE",
"411 971 LINE",
"345 971 LINE",
"220 808 LINE",
"281 754 LINE"
);
},
{
closed = 1;
nodes = (
"465 1000 OFFCURVE",
"496 1016 OFFCURVE",
"523 1044 CURVE",
"484 1098 LINE",
"468 1086 OFFCURVE",
"453 1080 OFFCURVE",
"436 1080 CURVE SMOOTH",
"398 1080 OFFCURVE",
"368 1113 OFFCURVE",
"328 1113 CURVE SMOOTH",
"301 1113 OFFCURVE",
"266 1094 OFFCURVE",
"239 1070 CURVE",
"278 1014 LINE",
"293 1025 OFFCURVE",
"307 1034 OFFCURVE",
"328 1034 CURVE SMOOTH",
"366 1034 OFFCURVE",
"396 1000 OFFCURVE",
"437 1000 CURVE SMOOTH"
);
}
);
width = 771;
}
);
note = Acircumflextilde;
unicode = 1EAA;
},
{
glyphname = Adieresis;
lastChange = "2015-07-16 19:31:59 +0000";
layers = (
{
layerId = "9EEBCA4B-DAAA-41A9-8636-8F7562732FC0";
name = Bold;
paths = (
{
closed = 1;
nodes = (
"267 0 LINE SMOOTH",
"278 0 OFFCURVE",
"284 7 OFFCURVE",
"284 22 CURVE SMOOTH",
"284 41 OFFCURVE",
"273 51 OFFCURVE",
"237 64 CURVE SMOOTH",
"183 84 LINE",
"226 199 LINE",
"500 199 LINE",
"545 85 LINE",
"518 85 LINE SMOOTH",
"479 85 OFFCURVE",
"452 69 OFFCURVE",
"452 35 CURVE SMOOTH",
"452 13 OFFCURVE",
"462 0 OFFCURVE",
"481 0 CURVE SMOOTH",
"757 0 LINE SMOOTH",
"770 0 OFFCURVE",
"774 11 OFFCURVE",
"774 26 CURVE SMOOTH",
"774 47 OFFCURVE",
"761 57 OFFCURVE",
"730 70 CURVE SMOOTH",
"696 84 LINE",
"464 695 LINE",
"303 695 LINE",
"73 85 LINE",
"63 85 LINE SMOOTH",
"24 85 OFFCURVE",
"-3 69 OFFCURVE",
"-3 35 CURVE SMOOTH",
"-3 13 OFFCURVE",
"7 0 OFFCURVE",
"26 0 CURVE SMOOTH"
);
},
{
closed = 1;
nodes = (
"364 570 LINE",
"466 293 LINE",
"261 293 LINE"
);
},
{
closed = 1;
nodes = (
"312 765 OFFCURVE",
"344 795 OFFCURVE",
"344 836 CURVE SMOOTH",
"344 877 OFFCURVE",
"312 907 OFFCURVE",
"274 907 CURVE SMOOTH",
"235 907 OFFCURVE",
"203 877 OFFCURVE",
"203 836 CURVE SMOOTH",
"203 795 OFFCURVE",
"235 765 OFFCURVE",
"274 765 CURVE SMOOTH"
);
},
{
closed = 1;
nodes = (
"524 765 OFFCURVE",
"556 795 OFFCURVE",
"556 836 CURVE SMOOTH",
"556 877 OFFCURVE",
"524 907 OFFCURVE",
"486 907 CURVE SMOOTH",
"447 907 OFFCURVE",
"415 877 OFFCURVE",
"415 836 CURVE SMOOTH",
"415 795 OFFCURVE",
"447 765 OFFCURVE",
"486 765 CURVE SMOOTH"
);
}
);
width = 771;
}
);
note = Adieresis;
unicode = 00C4;
},
{
glyphname = Adotbelow;
lastChange = "2015-07-16 19:32:00 +0000";
layers = (
{
layerId = "9EEBCA4B-DAAA-41A9-8636-8F7562732FC0";
name = Bold;
paths = (
{
closed = 1;
nodes = (
"267 0 LINE SMOOTH",
"278 0 OFFCURVE",
"284 7 OFFCURVE",
"284 22 CURVE SMOOTH",
"284 41 OFFCURVE",
"273 51 OFFCURVE",
"237 64 CURVE SMOOTH",
"183 84 LINE",
"226 199 LINE",
"500 199 LINE",
"545 85 LINE",
"518 85 LINE SMOOTH",
"479 85 OFFCURVE",
"452 69 OFFCURVE",
"452 35 CURVE SMOOTH",
"452 13 OFFCURVE",
"462 0 OFFCURVE",
"481 0 CURVE SMOOTH",
"757 0 LINE SMOOTH",
"770 0 OFFCURVE",
"774 11 OFFCURVE",
"774 26 CURVE SMOOTH",
"774 47 OFFCURVE",
"761 57 OFFCURVE",
"730 70 CURVE SMOOTH",
"696 84 LINE",
"464 695 LINE",
"303 695 LINE",
"73 85 LINE",
"63 85 LINE SMOOTH",
"24 85 OFFCURVE",
"-3 69 OFFCURVE",
"-3 35 CURVE SMOOTH",
"-3 13 OFFCURVE",
"7 0 OFFCURVE",
"26 0 CURVE SMOOTH"
);
},
{
closed = 1;
nodes = (
"420 -208 OFFCURVE",
"452 -178 OFFCURVE",
"452 -137 CURVE SMOOTH",
"452 -96 OFFCURVE",
"420 -66 OFFCURVE",
"382 -66 CURVE SMOOTH",
"343 -66 OFFCURVE",
"311 -96 OFFCURVE",
"311 -137 CURVE SMOOTH",
"311 -178 OFFCURVE",
"343 -208 OFFCURVE",
"382 -208 CURVE SMOOTH"
);
},
{
closed = 1;
nodes = (
"364 570 LINE",
"466 293 LINE",
"261 293 LINE"
);
}
);
width = 771;
}
);
note = Adotbelow;
unicode = 1EA0;
},
{
glyphname = Agrave;
lastChange = "2015-07-16 19:31:59 +0000";
layers = (
{
layerId = "9EEBCA4B-DAAA-41A9-8636-8F7562732FC0";
name = Bold;
paths = (
{
closed = 1;
nodes = (
"267 0 LINE SMOOTH",
"278 0 OFFCURVE",
"284 7 OFFCURVE",
"284 22 CURVE SMOOTH",
"284 41 OFFCURVE",
"273 51 OFFCURVE",
"237 64 CURVE SMOOTH",
"183 84 LINE",
"226 199 LINE",
"500 199 LINE",
"545 85 LINE",
"518 85 LINE SMOOTH",
"479 85 OFFCURVE",
"452 69 OFFCURVE",
"452 35 CURVE SMOOTH",
"452 13 OFFCURVE",
"462 0 OFFCURVE",
"481 0 CURVE SMOOTH",
"757 0 LINE SMOOTH",
"770 0 OFFCURVE",
"774 11 OFFCURVE",
"774 26 CURVE SMOOTH",
"774 47 OFFCURVE",
"761 57 OFFCURVE",
"730 70 CURVE SMOOTH",
"696 84 LINE",
"464 695 LINE",
"303 695 LINE",
"73 85 LINE",
"63 85 LINE SMOOTH",
"24 85 OFFCURVE",
"-3 69 OFFCURVE",
"-3 35 CURVE SMOOTH",
"-3 13 OFFCURVE",
"7 0 OFFCURVE",
"26 0 CURVE SMOOTH"
);
},
{
closed = 1;
nodes = (
"364 570 LINE",
"466 293 LINE",
"261 293 LINE"
);
},
{
closed = 1;
nodes = (
"425 808 LINE",
"314 996 LINE",
"209 927 LINE",
"345 755 LINE"
);
}
);
width = 771;
}
);
note = Agrave;
unicode = 00C0;
},
{
glyphname = Ahookabove;
lastChange = "2015-07-16 19:31:59 +0000";
layers = (
{
layerId = "9EEBCA4B-DAAA-41A9-8636-8F7562732FC0";
name = Bold;
paths = (
{
closed = 1;
nodes = (
"267 0 LINE SMOOTH",
"278 0 OFFCURVE",
"284 7 OFFCURVE",
"284 22 CURVE SMOOTH",
"284 41 OFFCURVE",
"273 51 OFFCURVE",
"237 64 CURVE SMOOTH",
"183 84 LINE",
"226 199 LINE",
"500 199 LINE",
"545 85 LINE",
"518 85 LINE SMOOTH",
"479 85 OFFCURVE",
"452 69 OFFCURVE",
"452 35 CURVE SMOOTH",
"452 13 OFFCURVE",
"462 0 OFFCURVE",
"481 0 CURVE SMOOTH",
"757 0 LINE SMOOTH",
"770 0 OFFCURVE",
"774 11 OFFCURVE",
"774 26 CURVE SMOOTH",
"774 47 OFFCURVE",
"761 57 OFFCURVE",
"730 70 CURVE SMOOTH",
"696 84 LINE",
"464 695 LINE",
"303 695 LINE",
"73 85 LINE",
"63 85 LINE SMOOTH",
"24 85 OFFCURVE",
"-3 69 OFFCURVE",
"-3 35 CURVE SMOOTH",
"-3 13 OFFCURVE",
"7 0 OFFCURVE",
"26 0 CURVE SMOOTH"
);
},
{
closed = 1;
nodes = (
"364 570 LINE",
"466 293 LINE",
"261 293 LINE"
);
},
{
closed = 1;
nodes = (
"413 750 LINE",
"420 799 LINE",
"469 817 OFFCURVE",
"498 849 OFFCURVE",
"498 891 CURVE SMOOTH",
"498 936 OFFCURVE",
"459 977 OFFCURVE",
"389 977 CURVE SMOOTH",
"361 977 OFFCURVE",
"327 967 OFFCURVE",
"308 959 CURVE",
"317 909 LINE",
"339 915 OFFCURVE",
"356 919 OFFCURVE",
"376 919 CURVE SMOOTH",
"400 919 OFFCURVE",
"408 908 OFFCURVE",
"408 890 CURVE SMOOTH",
"408 864 OFFCURVE",
"382 847 OFFCURVE",
"342 832 CURVE",
"350 750 LINE"
);
}
);
width = 771;
}
);
note = Ahookabove;
unicode = 1EA2;
},
{
glyphname = Amacron;
lastChange = "2015-07-16 19:31:59 +0000";
layers = (
{
layerId = "9EEBCA4B-DAAA-41A9-8636-8F7562732FC0";
name = Bold;
paths = (
{
closed = 1;
nodes = (
"267 0 LINE SMOOTH",
"278 0 OFFCURVE",
"284 7 OFFCURVE",
"284 22 CURVE SMOOTH",
"284 41 OFFCURVE",
"273 51 OFFCURVE",
"237 64 CURVE SMOOTH",
"183 84 LINE",
"226 199 LINE",
"500 199 LINE",
"545 85 LINE",
"518 85 LINE SMOOTH",
"479 85 OFFCURVE",
"452 69 OFFCURVE",
"452 35 CURVE SMOOTH",
"452 13 OFFCURVE",
"462 0 OFFCURVE",
"481 0 CURVE SMOOTH",
"757 0 LINE SMOOTH",
"770 0 OFFCURVE",
"774 11 OFFCURVE",
"774 26 CURVE SMOOTH",
"774 47 OFFCURVE",
"761 57 OFFCURVE",
"730 70 CURVE SMOOTH",
"696 84 LINE",
"464 695 LINE",
"303 695 LINE",
"73 85 LINE",
"63 85 LINE SMOOTH",
"24 85 OFFCURVE",
"-3 69 OFFCURVE",
"-3 35 CURVE SMOOTH",
"-3 13 OFFCURVE",
"7 0 OFFCURVE",
"26 0 CURVE SMOOTH"
);
},
{
closed = 1;
nodes = (
"364 570 LINE",
"466 293 LINE",
"261 293 LINE"
);
},
{
closed = 1;
nodes = (
"527 788 LINE",
"527 882 LINE",
"227 882 LINE",
"227 788 LINE"
);
}
);
width = 771;
}
);
note = Amacron;
unicode = 0100;
},
{
glyphname = Aogonek;
lastChange = "2015-07-16 19:31:59 +0000";
layers = (
{
layerId = "9EEBCA4B-DAAA-41A9-8636-8F7562732FC0";
name = Bold;
paths = (
{
closed = 1;
nodes = (
"662 -215 OFFCURVE",
"691 -209 OFFCURVE",
"713 -197 CURVE",
"702 -139 LINE",
"688 -143 OFFCURVE",
"674 -147 OFFCURVE",
"655 -147 CURVE SMOOTH",
"618 -147 OFFCURVE",
"602 -124 OFFCURVE",
"602 -99 CURVE SMOOTH",
"602 -63 OFFCURVE",
"634 -18 OFFCURVE",
"672 0 CURVE",
"757 0 LINE SMOOTH",
"770 0 OFFCURVE",
"774 11 OFFCURVE",
"774 26 CURVE SMOOTH",
"774 47 OFFCURVE",
"761 57 OFFCURVE",
"730 70 CURVE SMOOTH",
"696 84 LINE",
"464 695 LINE",
"303 695 LINE",
"73 85 LINE",
"63 85 LINE SMOOTH",
"24 85 OFFCURVE",
"-3 69 OFFCURVE",
"-3 35 CURVE SMOOTH",
"-3 13 OFFCURVE",
"7 0 OFFCURVE",
"26 0 CURVE SMOOTH",
"267 0 LINE SMOOTH",
"278 0 OFFCURVE",
"284 7 OFFCURVE",
"284 22 CURVE SMOOTH",
"284 41 OFFCURVE",
"273 51 OFFCURVE",
"237 64 CURVE SMOOTH",
"183 84 LINE",
"226 199 LINE",
"500 199 LINE",
"545 85 LINE",
"518 85 LINE SMOOTH",
"479 85 OFFCURVE",
"452 69 OFFCURVE",
"452 35 CURVE SMOOTH",
"452 13 OFFCURVE",
"462 0 OFFCURVE",
"481 0 CURVE SMOOTH",
"578 0 LINE",
"530 -28 OFFCURVE",
"507 -68 OFFCURVE",
"507 -105 CURVE SMOOTH",
"507 -172 OFFCURVE",
"559 -215 OFFCURVE",
"639 -215 CURVE SMOOTH"
);
},
{
closed = 1;
nodes = (
"364 570 LINE",
"466 293 LINE",
"261 293 LINE"
);
}
);
width = 771;
}
);
note = Aogonek;
unicode = 0104;
},
{
glyphname = Aring;
lastChange = "2015-07-31 05:00:43 +0000";
layers = (
{
layerId = "9EEBCA4B-DAAA-41A9-8636-8F7562732FC0";
name = Bold;
paths = (
{
closed = 1;
nodes = (
"267 0 LINE SMOOTH",
"278 0 OFFCURVE",
"284 7 OFFCURVE",
"284 22 CURVE SMOOTH",
"284 41 OFFCURVE",
"273 51 OFFCURVE",
"237 64 CURVE SMOOTH",
"183 84 LINE",
"226 199 LINE",
"500 199 LINE",
"545 85 LINE",
"518 85 LINE SMOOTH",
"479 85 OFFCURVE",
"452 69 OFFCURVE",
"452 35 CURVE SMOOTH",
"452 13 OFFCURVE",
"462 0 OFFCURVE",
"481 0 CURVE SMOOTH",
"757 0 LINE SMOOTH",
"770 0 OFFCURVE",
"774 11 OFFCURVE",
"774 26 CURVE SMOOTH",
"774 47 OFFCURVE",
"761 57 OFFCURVE",
"730 70 CURVE SMOOTH",
"696 84 LINE",
"464 695 LINE",
"303 695 LINE",
"73 85 LINE",
"63 85 LINE SMOOTH",
"24 85 OFFCURVE",
"-3 69 OFFCURVE",
"-3 35 CURVE SMOOTH",
"-3 13 OFFCURVE",
"7 0 OFFCURVE",
"26 0 CURVE SMOOTH"
);
},
{
closed = 1;
nodes = (
"364 570 LINE",
"466 293 LINE",
"261 293 LINE"
);
},
{
closed = 1;
nodes = (
"449 734 OFFCURVE",
"495 784 OFFCURVE",
"495 844 CURVE SMOOTH",
"495 904 OFFCURVE",
"449 954 OFFCURVE",
"377 954 CURVE SMOOTH",
"305 954 OFFCURVE",
"259 904 OFFCURVE",
"259 844 CURVE SMOOTH",
"259 784 OFFCURVE",
"305 734 OFFCURVE",
"377 734 CURVE SMOOTH"
);
},
{
closed = 1;
nodes = (
"354 801 OFFCURVE",
"335 816 OFFCURVE",
"335 844 CURVE SMOOTH",
"335 872 OFFCURVE",
"354 887 OFFCURVE",
"377 887 CURVE SMOOTH",
"400 887 OFFCURVE",
"419 872 OFFCURVE",
"419 844 CURVE SMOOTH",
"419 816 OFFCURVE",
"400 801 OFFCURVE",
"377 801 CURVE SMOOTH"
);
}
);
width = 771;
}
);
note = Aring;
unicode = 00C5;
},
{
glyphname = Aringacute;
lastChange = "2015-07-31 05:00:29 +0000";
layers = (
{
layerId = "9EEBCA4B-DAAA-41A9-8636-8F7562732FC0";
name = Bold;
paths = (
{
closed = 1;
nodes = (
"267 0 LINE SMOOTH",
"278 0 OFFCURVE",
"284 7 OFFCURVE",
"284 22 CURVE SMOOTH",
"284 41 OFFCURVE",
"273 51 OFFCURVE",
"237 64 CURVE SMOOTH",
"183 84 LINE",
"226 199 LINE",
"500 199 LINE",
"545 85 LINE",
"518 85 LINE SMOOTH",
"479 85 OFFCURVE",
"452 69 OFFCURVE",
"452 35 CURVE SMOOTH",
"452 13 OFFCURVE",
"462 0 OFFCURVE",
"481 0 CURVE SMOOTH",
"757 0 LINE SMOOTH",
"770 0 OFFCURVE",
"774 11 OFFCURVE",
"774 26 CURVE SMOOTH",
"774 47 OFFCURVE",
"761 57 OFFCURVE",
"730 70 CURVE SMOOTH",
"696 84 LINE",
"464 695 LINE",
"303 695 LINE",
"73 85 LINE",
"63 85 LINE SMOOTH",
"24 85 OFFCURVE",
"-3 69 OFFCURVE",
"-3 35 CURVE SMOOTH",
"-3 13 OFFCURVE",
"7 0 OFFCURVE",
"26 0 CURVE SMOOTH"
);
},
{
closed = 1;
nodes = (
"364 570 LINE",
"466 293 LINE",
"261 293 LINE"
);
},
{
closed = 1;
nodes = (
"447 732 OFFCURVE",
"493 782 OFFCURVE",
"493 842 CURVE SMOOTH",
"493 902 OFFCURVE",
"447 952 OFFCURVE",
"375 952 CURVE SMOOTH",
"303 952 OFFCURVE",
"257 902 OFFCURVE",
"257 842 CURVE SMOOTH",
"257 782 OFFCURVE",
"303 732 OFFCURVE",
"375 732 CURVE SMOOTH"
);
},
{
closed = 1;
nodes = (
"352 799 OFFCURVE",
"333 814 OFFCURVE",
"333 842 CURVE SMOOTH",
"333 870 OFFCURVE",
"352 885 OFFCURVE",
"375 885 CURVE SMOOTH",
"398 885 OFFCURVE",
"417 870 OFFCURVE",
"417 842 CURVE SMOOTH",
"417 814 OFFCURVE",
"398 799 OFFCURVE",
"375 799 CURVE SMOOTH"
);
},
{
closed = 1;
nodes = (
"596 1118 LINE",
"491 1187 LINE",
"391 1031 LINE",
"471 978 LINE"
);
}
);
width = 771;
}
);
note = Aringacute;
unicode = 01FA;
},
{
glyphname = Atilde;
lastChange = "2015-07-16 19:31:59 +0000";
layers = (
{
layerId = "9EEBCA4B-DAAA-41A9-8636-8F7562732FC0";
name = Bold;
paths = (
{
closed = 1;
nodes = (
"267 0 LINE SMOOTH",
"278 0 OFFCURVE",
"284 7 OFFCURVE",
"284 22 CURVE SMOOTH",
"284 41 OFFCURVE",
"273 51 OFFCURVE",
"237 64 CURVE SMOOTH",
"183 84 LINE",
"226 199 LINE",
"500 199 LINE",
"545 85 LINE",
"518 85 LINE SMOOTH",
"479 85 OFFCURVE",
"452 69 OFFCURVE",
"452 35 CURVE SMOOTH",
"452 13 OFFCURVE",
"462 0 OFFCURVE",
"481 0 CURVE SMOOTH",
"757 0 LINE SMOOTH",
"770 0 OFFCURVE",
"774 11 OFFCURVE",
"774 26 CURVE SMOOTH",
"774 47 OFFCURVE",
"761 57 OFFCURVE",
"730 70 CURVE SMOOTH",
"696 84 LINE",
"464 695 LINE",
"303 695 LINE",
"73 85 LINE",
"63 85 LINE SMOOTH",
"24 85 OFFCURVE",
"-3 69 OFFCURVE",
"-3 35 CURVE SMOOTH",
"-3 13 OFFCURVE",
"7 0 OFFCURVE",
"26 0 CURVE SMOOTH"
);
},
{
closed = 1;
nodes = (
"364 570 LINE",
"466 293 LINE",
"261 293 LINE"
);
},
{
closed = 1;
nodes = (
"486 765 OFFCURVE",
"524 784 OFFCURVE",
"557 818 CURVE",
"510 885 LINE",
"490 870 OFFCURVE",
"472 862 OFFCURVE",
"451 862 CURVE SMOOTH",
"405 862 OFFCURVE",
"368 903 OFFCURVE",
"320 903 CURVE SMOOTH",
"286 903 OFFCURVE",
"244 880 OFFCURVE",
"211 850 CURVE",
"258 782 LINE",
"277 796 OFFCURVE",
"294 806 OFFCURVE",
"320 806 CURVE SMOOTH",
"366 806 OFFCURVE",
"403 765 OFFCURVE",
"452 765 CURVE SMOOTH"
);
}
);
width = 771;
}
);
note = Atilde;
unicode = 00C3;
},
{
glyphname = AE;
lastChange = "2015-07-16 19:32:00 +0000";
layers = (
{
layerId = "9EEBCA4B-DAAA-41A9-8636-8F7562732FC0";
name = Bold;
paths = (
{
closed = 1;
nodes = (
"284 0 LINE SMOOTH",
"295 0 OFFCURVE",
"301 7 OFFCURVE",
"301 22 CURVE SMOOTH",
"301 41 OFFCURVE",
"290 51 OFFCURVE",
"254 64 CURVE SMOOTH",
"200 84 LINE",
"283 199 LINE",
"565 199 LINE",
"565 93 LINE",
"552 88 LINE SMOOTH",
"506 70 OFFCURVE",
"486 59 OFFCURVE",
"486 29 CURVE SMOOTH",
"486 8 OFFCURVE",
"496 0 OFFCURVE",
"508 0 CURVE SMOOTH",
"1096 0 LINE",
"1096 172 LINE SMOOTH",
"1096 186 OFFCURVE",
"1091 195 OFFCURVE",
"1073 195 CURVE SMOOTH",
"1053 195 OFFCURVE",
"1042 172 OFFCURVE",
"1025 125 CURVE SMOOTH",
"1013 92 LINE",
"715 92 LINE",
"715 310 LINE",
"932 310 LINE",
"949 274 LINE SMOOTH",
"961 249 OFFCURVE",
"971 237 OFFCURVE",
"984 237 CURVE SMOOTH",
"1000 237 OFFCURVE",
"1005 247 OFFCURVE",
"1005 257 CURVE SMOOTH",
"1005 453 LINE SMOOTH",
"1005 463 OFFCURVE",
"1000 473 OFFCURVE",
"984 473 CURVE SMOOTH",
"971 473 OFFCURVE",
"961 461 OFFCURVE",
"949 436 CURVE SMOOTH",
"932 400 LINE",
"715 400 LINE",
"715 603 LINE",
"998 603 LINE",
"1010 570 LINE SMOOTH",
"1027 523 OFFCURVE",
"1038 500 OFFCURVE",
"1058 500 CURVE SMOOTH",
"1076 500 OFFCURVE",
"1081 509 OFFCURVE",
"1081 523 CURVE SMOOTH",
"1081 695 LINE",
"387 695 LINE SMOOTH",
"375 695 OFFCURVE",
"363 687 OFFCURVE",
"363 666 CURVE SMOOTH",
"363 636 OFFCURVE",
"383 625 OFFCURVE",
"429 607 CURVE SMOOTH",
"442 602 LINE",
"75 85 LINE",
"65 85 LINE SMOOTH",
"26 85 OFFCURVE",
"-1 69 OFFCURVE",
"-1 35 CURVE SMOOTH",
"-1 13 OFFCURVE",
"9 0 OFFCURVE",
"28 0 CURVE SMOOTH"
);
},
{
closed = 1;
nodes = (
"565 598 LINE",
"565 293 LINE",
"347 293 LINE"
);
}
);
width = 1155;
}
);
note = AE;
unicode = 00C6;
},
{
glyphname = AEacute;
lastChange = "2015-07-16 19:31:59 +0000";
layers = (
{
layerId = "9EEBCA4B-DAAA-41A9-8636-8F7562732FC0";
name = Bold;
paths = (
{
closed = 1;
nodes = (
"284 0 LINE SMOOTH",
"295 0 OFFCURVE",
"301 7 OFFCURVE",
"301 22 CURVE SMOOTH",
"301 41 OFFCURVE",
"290 51 OFFCURVE",
"254 64 CURVE SMOOTH",
"200 84 LINE",
"283 199 LINE",
"565 199 LINE",
"565 93 LINE",
"552 88 LINE SMOOTH",
"506 70 OFFCURVE",
"486 59 OFFCURVE",
"486 29 CURVE SMOOTH",
"486 8 OFFCURVE",
"496 0 OFFCURVE",
"508 0 CURVE SMOOTH",
"1096 0 LINE",
"1096 172 LINE SMOOTH",
"1096 186 OFFCURVE",
"1091 195 OFFCURVE",
"1073 195 CURVE SMOOTH",
"1053 195 OFFCURVE",
"1042 172 OFFCURVE",
"1025 125 CURVE SMOOTH",
"1013 92 LINE",
"715 92 LINE",
"715 310 LINE",
"932 310 LINE",
"949 274 LINE SMOOTH",
"961 249 OFFCURVE",
"971 237 OFFCURVE",
"984 237 CURVE SMOOTH",
"1000 237 OFFCURVE",
"1005 247 OFFCURVE",
"1005 257 CURVE SMOOTH",
"1005 453 LINE SMOOTH",
"1005 463 OFFCURVE",
"1000 473 OFFCURVE",
"984 473 CURVE SMOOTH",
"971 473 OFFCURVE",
"961 461 OFFCURVE",
"949 436 CURVE SMOOTH",
"932 400 LINE",
"715 400 LINE",
"715 603 LINE",
"998 603 LINE",
"1010 570 LINE SMOOTH",
"1027 523 OFFCURVE",
"1038 500 OFFCURVE",
"1058 500 CURVE SMOOTH",
"1076 500 OFFCURVE",
"1081 509 OFFCURVE",
"1081 523 CURVE SMOOTH",
"1081 695 LINE",
"387 695 LINE SMOOTH",
"375 695 OFFCURVE",
"363 687 OFFCURVE",
"363 666 CURVE SMOOTH",
"363 636 OFFCURVE",
"383 625 OFFCURVE",
"429 607 CURVE SMOOTH",
"442 602 LINE",
"75 85 LINE",
"65 85 LINE SMOOTH",
"26 85 OFFCURVE",
"-1 69 OFFCURVE",
"-1 35 CURVE SMOOTH",
"-1 13 OFFCURVE",
"9 0 OFFCURVE",
"28 0 CURVE SMOOTH"
);
},
{
closed = 1;
nodes = (
"565 598 LINE",
"565 293 LINE",
"347 293 LINE"
);
},
{
closed = 1;
nodes = (
"874 926 LINE",
"769 995 LINE",
"658 807 LINE",
"738 754 LINE"
);
}
);
width = 1155;
}
);
note = AEacute;
unicode = 01FC;
},
{
glyphname = B;
lastChange = "2015-07-16 19:31:59 +0000";
layers = (
{
layerId = "9EEBCA4B-DAAA-41A9-8636-8F7562732FC0";
name = Bold;
paths = (
{
closed = 1;
nodes = (
"450 0 LINE SMOOTH",
"595 0 OFFCURVE",
"690 72 OFFCURVE",
"690 195 CURVE SMOOTH",
"690 270 OFFCURVE",
"644 335 OFFCURVE",
"554 361 CURVE",
"554 365 LINE",
"617 390 OFFCURVE",
"653 445 OFFCURVE",
"653 504 CURVE SMOOTH",
"653 615 OFFCURVE",
"575 695 OFFCURVE",
"412 695 CURVE SMOOTH",
"69 695 LINE SMOOTH",
"57 695 OFFCURVE",
"47 687 OFFCURVE",
"47 666 CURVE SMOOTH",
"47 636 OFFCURVE",
"67 625 OFFCURVE",
"113 607 CURVE SMOOTH",
"126 602 LINE",
"126 93 LINE",
"113 88 LINE SMOOTH",
"67 70 OFFCURVE",
"47 59 OFFCURVE",
"47 29 CURVE SMOOTH",
"47 8 OFFCURVE",
"57 0 OFFCURVE",
"69 0 CURVE SMOOTH"
);
},
{
closed = 1;
nodes = (
"276 310 LINE",
"429 310 LINE SMOOTH",
"502 310 OFFCURVE",
"540 265 OFFCURVE",
"540 198 CURVE SMOOTH",
"540 131 OFFCURVE",
"502 92 OFFCURVE",
"429 92 CURVE SMOOTH",
"276 92 LINE"
);
},
{
closed = 1;
nodes = (
"276 603 LINE",
"406 603 LINE SMOOTH",
"469 603 OFFCURVE",
"503 558 OFFCURVE",
"503 501 CURVE SMOOTH",
"503 444 OFFCURVE",
"469 400 OFFCURVE",
"406 400 CURVE SMOOTH",
"276 400 LINE"
);
}
);
width = 737;
}
);
note = B;
unicode = 0042;
},
{
glyphname = C;
lastChange = "2015-07-16 19:31:59 +0000";
layers = (
{
layerId = "9EEBCA4B-DAAA-41A9-8636-8F7562732FC0";
name = Bold;
paths = (
{
closed = 1;
nodes = (
"498 -15 OFFCURVE",
"564 15 OFFCURVE",
"597 38 CURVE SMOOTH",
"616 51 OFFCURVE",
"634 67 OFFCURVE",
"634 94 CURVE SMOOTH",
"634 119 OFFCURVE",
"614 136 OFFCURVE",
"595 136 CURVE SMOOTH",
"584 136 OFFCURVE",
"575 130 OFFCURVE",
"554 116 CURVE SMOOTH",
"515 90 OFFCURVE",
"471 79 OFFCURVE",
"412 79 CURVE SMOOTH",
"290 79 OFFCURVE",
"188 168 OFFCURVE",
"188 349 CURVE SMOOTH",
"188 529 OFFCURVE",
"283 616 OFFCURVE",
"408 616 CURVE SMOOTH",
"467 616 OFFCURVE",
"509 600 OFFCURVE",
"529 590 CURVE",
"550 521 LINE SMOOTH",
"562 481 OFFCURVE",
"573 463 OFFCURVE",
"599 463 CURVE SMOOTH",
"620 463 OFFCURVE",
"624 475 OFFCURVE",
"624 489 CURVE SMOOTH",
"624 633 LINE",
"575 673 OFFCURVE",
"495 710 OFFCURVE",
"380 710 CURVE SMOOTH",
"207 710 OFFCURVE",
"36 590 OFFCURVE",
"36 349 CURVE SMOOTH",
"36 106 OFFCURVE",
"200 -15 OFFCURVE",
"390 -15 CURVE SMOOTH"
);
}
);
width = 676;
}
);
note = C;
unicode = 0043;
},
{
glyphname = Cacute;
lastChange = "2015-07-16 19:31:59 +0000";
layers = (
{
layerId = "9EEBCA4B-DAAA-41A9-8636-8F7562732FC0";
name = Bold;
paths = (
{
closed = 1;
nodes = (
"498 -15 OFFCURVE",
"564 15 OFFCURVE",
"597 38 CURVE SMOOTH",
"616 51 OFFCURVE",
"634 67 OFFCURVE",
"634 94 CURVE SMOOTH",
"634 119 OFFCURVE",
"614 136 OFFCURVE",
"595 136 CURVE SMOOTH",
"584 136 OFFCURVE",
"575 130 OFFCURVE",
"554 116 CURVE SMOOTH",
"515 90 OFFCURVE",
"471 79 OFFCURVE",
"412 79 CURVE SMOOTH",
"290 79 OFFCURVE",
"188 168 OFFCURVE",
"188 349 CURVE SMOOTH",
"188 529 OFFCURVE",
"283 616 OFFCURVE",
"408 616 CURVE SMOOTH",
"467 616 OFFCURVE",
"509 600 OFFCURVE",
"529 590 CURVE",
"550 521 LINE SMOOTH",
"562 481 OFFCURVE",
"573 463 OFFCURVE",
"599 463 CURVE SMOOTH",
"620 463 OFFCURVE",
"624 475 OFFCURVE",
"624 489 CURVE SMOOTH",
"624 633 LINE",
"575 673 OFFCURVE",
"495 710 OFFCURVE",
"380 710 CURVE SMOOTH",
"207 710 OFFCURVE",
"36 590 OFFCURVE",
"36 349 CURVE SMOOTH",
"36 106 OFFCURVE",
"200 -15 OFFCURVE",
"390 -15 CURVE SMOOTH"
);
},
{
closed = 1;
nodes = (
"506 927 LINE",
"401 996 LINE",
"290 808 LINE",
"370 755 LINE"
);
}
);
width = 676;
}
);
note = Cacute;
unicode = 0106;
},
{
glyphname = Ccaron;
lastChange = "2015-07-16 19:31:59 +0000";
layers = (
{
layerId = "9EEBCA4B-DAAA-41A9-8636-8F7562732FC0";
name = Bold;
paths = (
{
closed = 1;
nodes = (
"498 -15 OFFCURVE",
"564 15 OFFCURVE",
"597 38 CURVE SMOOTH",
"616 51 OFFCURVE",
"634 67 OFFCURVE",
"634 94 CURVE SMOOTH",
"634 119 OFFCURVE",
"614 136 OFFCURVE",
"595 136 CURVE SMOOTH",
"584 136 OFFCURVE",
"575 130 OFFCURVE",
"554 116 CURVE SMOOTH",
"515 90 OFFCURVE",
"471 79 OFFCURVE",
"412 79 CURVE SMOOTH",
"290 79 OFFCURVE",
"188 168 OFFCURVE",
"188 349 CURVE SMOOTH",
"188 529 OFFCURVE",
"283 616 OFFCURVE",
"408 616 CURVE SMOOTH",
"467 616 OFFCURVE",
"509 600 OFFCURVE",
"529 590 CURVE",
"550 521 LINE SMOOTH",
"562 481 OFFCURVE",
"573 463 OFFCURVE",
"599 463 CURVE SMOOTH",
"620 463 OFFCURVE",
"624 475 OFFCURVE",
"624 489 CURVE SMOOTH",
"624 633 LINE",
"575 673 OFFCURVE",
"495 710 OFFCURVE",
"380 710 CURVE SMOOTH",
"207 710 OFFCURVE",
"36 590 OFFCURVE",
"36 349 CURVE SMOOTH",
"36 106 OFFCURVE",
"200 -15 OFFCURVE",
"390 -15 CURVE SMOOTH"
);
},
{
closed = 1;
nodes = (
"392 754 LINE",
"517 917 LINE",
"456 971 LINE",
"359 860 LINE",
"262 971 LINE",
"201 917 LINE",
"326 754 LINE"
);
}
);
width = 676;
}
);
note = Ccaron;
unicode = 010C;
},
{
glyphname = Ccedilla;
lastChange = "2015-07-16 19:31:59 +0000";
layers = (
{
layerId = "9EEBCA4B-DAAA-41A9-8636-8F7562732FC0";
name = Bold;
paths = (
{
closed = 1;
nodes = (
"394 -217 OFFCURVE",
"462 -174 OFFCURVE",
"462 -123 CURVE SMOOTH",
"462 -91 OFFCURVE",
"442 -71 OFFCURVE",
"413 -59 CURVE",
"433 -13 LINE",
"516 -7 OFFCURVE",
"569 18 OFFCURVE",
"597 38 CURVE SMOOTH",
"616 51 OFFCURVE",
"634 67 OFFCURVE",
"634 94 CURVE SMOOTH",
"634 119 OFFCURVE",
"614 136 OFFCURVE",
"595 136 CURVE SMOOTH",
"584 136 OFFCURVE",
"575 130 OFFCURVE",
"554 116 CURVE SMOOTH",
"515 90 OFFCURVE",
"471 79 OFFCURVE",
"412 79 CURVE SMOOTH",
"290 79 OFFCURVE",
"188 168 OFFCURVE",
"188 349 CURVE SMOOTH",
"188 529 OFFCURVE",
"283 616 OFFCURVE",
"408 616 CURVE SMOOTH",
"467 616 OFFCURVE",
"509 600 OFFCURVE",
"529 590 CURVE",
"550 521 LINE SMOOTH",
"562 481 OFFCURVE",
"573 463 OFFCURVE",
"599 463 CURVE SMOOTH",
"620 463 OFFCURVE",
"624 475 OFFCURVE",
"624 489 CURVE SMOOTH",
"624 633 LINE",
"575 673 OFFCURVE",
"495 710 OFFCURVE",
"380 710 CURVE SMOOTH",
"207 710 OFFCURVE",
"36 590 OFFCURVE",
"36 349 CURVE SMOOTH",
"36 126 OFFCURVE",
"174 6 OFFCURVE",
"343 -13 CURVE",
"323 -71 LINE",
"350 -80 OFFCURVE",
"364 -96 OFFCURVE",
"364 -119 CURVE SMOOTH",
"364 -146 OFFCURVE",
"345 -170 OFFCURVE",
"298 -185 CURVE",
"317 -231 LINE"
);
}
);
width = 676;
}
);
note = Ccedilla;
unicode = 00C7;
},
{
glyphname = Ccircumflex;
lastChange = "2015-07-16 19:31:59 +0000";
layers = (
{
layerId = "9EEBCA4B-DAAA-41A9-8636-8F7562732FC0";
name = Bold;
paths = (
{
closed = 1;
nodes = (
"498 -15 OFFCURVE",
"564 15 OFFCURVE",
"597 38 CURVE SMOOTH",
"616 51 OFFCURVE",
"634 67 OFFCURVE",
"634 94 CURVE SMOOTH",
"634 119 OFFCURVE",
"614 136 OFFCURVE",
"595 136 CURVE SMOOTH",
"584 136 OFFCURVE",
"575 130 OFFCURVE",
"554 116 CURVE SMOOTH",
"515 90 OFFCURVE",
"471 79 OFFCURVE",
"412 79 CURVE SMOOTH",
"290 79 OFFCURVE",
"188 168 OFFCURVE",
"188 349 CURVE SMOOTH",
"188 529 OFFCURVE",
"283 616 OFFCURVE",
"408 616 CURVE SMOOTH",
"467 616 OFFCURVE",
"509 600 OFFCURVE",
"529 590 CURVE",
"550 521 LINE SMOOTH",
"562 481 OFFCURVE",
"573 463 OFFCURVE",
"599 463 CURVE SMOOTH",
"620 463 OFFCURVE",
"624 475 OFFCURVE",
"624 489 CURVE SMOOTH",
"624 633 LINE",
"575 673 OFFCURVE",
"495 710 OFFCURVE",
"380 710 CURVE SMOOTH",
"207 710 OFFCURVE",
"36 590 OFFCURVE",
"36 349 CURVE SMOOTH",
"36 106 OFFCURVE",
"200 -15 OFFCURVE",
"390 -15 CURVE SMOOTH"
);
},
{
closed = 1;
nodes = (
"360 865 LINE",
"457 754 LINE",
"518 808 LINE",
"393 971 LINE",
"327 971 LINE",
"202 808 LINE",
"263 754 LINE"
);
}
);
width = 676;
}
);
note = Ccircumflex;
unicode = 0108;
},
{
glyphname = Cdotaccent;
lastChange = "2015-07-31 05:00:57 +0000";
layers = (
{
layerId = "9EEBCA4B-DAAA-41A9-8636-8F7562732FC0";
name = Bold;
paths = (
{
closed = 1;
nodes = (
"498 -15 OFFCURVE",
"564 15 OFFCURVE",
"597 38 CURVE SMOOTH",
"616 51 OFFCURVE",
"634 67 OFFCURVE",
"634 94 CURVE SMOOTH",
"634 119 OFFCURVE",
"614 136 OFFCURVE",
"595 136 CURVE SMOOTH",
"584 136 OFFCURVE",
"575 130 OFFCURVE",
"554 116 CURVE SMOOTH",
"515 90 OFFCURVE",
"471 79 OFFCURVE",
"412 79 CURVE SMOOTH",
"290 79 OFFCURVE",
"188 168 OFFCURVE",
"188 349 CURVE SMOOTH",
"188 529 OFFCURVE",
"283 616 OFFCURVE",
"408 616 CURVE SMOOTH",
"467 616 OFFCURVE",
"509 600 OFFCURVE",
"529 590 CURVE",
"550 521 LINE SMOOTH",
"562 481 OFFCURVE",
"573 463 OFFCURVE",
"599 463 CURVE SMOOTH",
"620 463 OFFCURVE",
"624 475 OFFCURVE",
"624 489 CURVE SMOOTH",
"624 633 LINE",
"575 673 OFFCURVE",
"495 710 OFFCURVE",
"380 710 CURVE SMOOTH",
"207 710 OFFCURVE",
"36 590 OFFCURVE",
"36 349 CURVE SMOOTH",
"36 106 OFFCURVE",
"200 -15 OFFCURVE",
"390 -15 CURVE SMOOTH"
);
},
{
closed = 1;
nodes = (
"425 772 OFFCURVE",
"457 802 OFFCURVE",
"457 843 CURVE SMOOTH",
"457 884 OFFCURVE",
"425 914 OFFCURVE",
"387 914 CURVE SMOOTH",
"348 914 OFFCURVE",
"316 884 OFFCURVE",
"316 843 CURVE SMOOTH",
"316 802 OFFCURVE",
"348 772 OFFCURVE",
"387 772 CURVE SMOOTH"
);
}
);
width = 676;
}
);
note = Cdotaccent;
unicode = 010A;
},
{
glyphname = D;
lastChange = "2015-07-16 19:31:59 +0000";
layers = (
{
layerId = "9EEBCA4B-DAAA-41A9-8636-8F7562732FC0";
name = Bold;
paths = (
{
closed = 1;
nodes = (
"392 0 LINE SMOOTH",
"577 0 OFFCURVE",
"736 102 OFFCURVE",
"736 346 CURVE SMOOTH",
"736 590 OFFCURVE",
"577 695 OFFCURVE",
"392 695 CURVE SMOOTH",
"69 695 LINE SMOOTH",
"57 695 OFFCURVE",
"47 687 OFFCURVE",
"47 666 CURVE SMOOTH",
"47 636 OFFCURVE",
"67 625 OFFCURVE",
"113 607 CURVE SMOOTH",
"126 602 LINE",
"126 93 LINE",
"113 88 LINE SMOOTH",
"67 70 OFFCURVE",
"47 59 OFFCURVE",
"47 29 CURVE SMOOTH",
"47 8 OFFCURVE",
"57 0 OFFCURVE",
"69 0 CURVE SMOOTH"
);
},
{
closed = 1;
nodes = (
"276 601 LINE",
"392 601 LINE SMOOTH",
"521 601 OFFCURVE",
"584 502 OFFCURVE",
"584 346 CURVE SMOOTH",
"584 190 OFFCURVE",
"521 94 OFFCURVE",
"392 94 CURVE SMOOTH",
"276 94 LINE"
);
}
);
width = 773;
}
);
note = D;
unicode = 0044;
},
{
glyphname = Eth;
lastChange = "2015-07-16 19:31:59 +0000";
layers = (
{
layerId = "9EEBCA4B-DAAA-41A9-8636-8F7562732FC0";
name = Bold;
paths = (
{
closed = 1;
nodes = (
"394 0 LINE SMOOTH",
"579 0 OFFCURVE",
"738 102 OFFCURVE",
"738 346 CURVE SMOOTH",
"738 590 OFFCURVE",
"579 695 OFFCURVE",
"394 695 CURVE SMOOTH",
"71 695 LINE SMOOTH",
"59 695 OFFCURVE",
"49 687 OFFCURVE",
"49 666 CURVE SMOOTH",
"49 636 OFFCURVE",
"69 625 OFFCURVE",
"115 607 CURVE SMOOTH",
"128 602 LINE",
"128 401 LINE",
"59 401 LINE",
"59 307 LINE",
"128 307 LINE",
"128 93 LINE",
"115 88 LINE SMOOTH",
"69 70 OFFCURVE",
"49 59 OFFCURVE",
"49 29 CURVE SMOOTH",
"49 8 OFFCURVE",
"59 0 OFFCURVE",
"71 0 CURVE SMOOTH"
);
},
{
closed = 1;
nodes = (
"278 307 LINE",
"440 307 LINE",
"440 401 LINE",
"278 401 LINE",
"278 601 LINE",
"394 601 LINE SMOOTH",
"523 601 OFFCURVE",
"586 502 OFFCURVE",
"586 346 CURVE SMOOTH",
"586 190 OFFCURVE",
"523 94 OFFCURVE",
"394 94 CURVE SMOOTH",
"278 94 LINE"
);
}
);
width = 775;
}
);
note = Eth;
unicode = 00D0;
},
{
glyphname = Dcaron;
lastChange = "2015-07-16 19:32:00 +0000";
layers = (
{
layerId = "9EEBCA4B-DAAA-41A9-8636-8F7562732FC0";
name = Bold;
paths = (
{
closed = 1;
nodes = (
"392 0 LINE SMOOTH",
"577 0 OFFCURVE",
"736 102 OFFCURVE",
"736 346 CURVE SMOOTH",
"736 590 OFFCURVE",
"577 695 OFFCURVE",
"392 695 CURVE SMOOTH",
"69 695 LINE SMOOTH",
"57 695 OFFCURVE",
"47 687 OFFCURVE",
"47 666 CURVE SMOOTH",
"47 636 OFFCURVE",
"67 625 OFFCURVE",
"113 607 CURVE SMOOTH",
"126 602 LINE",
"126 93 LINE",
"113 88 LINE SMOOTH",
"67 70 OFFCURVE",
"47 59 OFFCURVE",
"47 29 CURVE SMOOTH",
"47 8 OFFCURVE",
"57 0 OFFCURVE",
"69 0 CURVE SMOOTH"
);
},
{
closed = 1;
nodes = (
"276 601 LINE",
"392 601 LINE SMOOTH",
"521 601 OFFCURVE",
"584 502 OFFCURVE",
"584 346 CURVE SMOOTH",
"584 190 OFFCURVE",
"521 94 OFFCURVE",
"392 94 CURVE SMOOTH",
"276 94 LINE"
);
},
{
closed = 1;
nodes = (
"378 754 LINE",
"503 917 LINE",
"442 971 LINE",
"345 860 LINE",
"248 971 LINE",
"187 917 LINE",
"312 754 LINE"
);
}
);
width = 773;
}
);
note = Dcaron;
unicode = 010E;
},
{
glyphname = Dcroat;
lastChange = "2015-07-16 19:31:59 +0000";
layers = (
{
layerId = "9EEBCA4B-DAAA-41A9-8636-8F7562732FC0";
name = Bold;
paths = (
{
closed = 1;
nodes = (
"394 0 LINE SMOOTH",
"579 0 OFFCURVE",
"738 102 OFFCURVE",
"738 346 CURVE SMOOTH",
"738 590 OFFCURVE",
"579 695 OFFCURVE",
"394 695 CURVE SMOOTH",
"71 695 LINE SMOOTH",
"59 695 OFFCURVE",
"49 687 OFFCURVE",
"49 666 CURVE SMOOTH",
"49 636 OFFCURVE",
"69 625 OFFCURVE",
"115 607 CURVE SMOOTH",
"128 602 LINE",
"128 401 LINE",
"59 401 LINE",
"59 307 LINE",
"128 307 LINE",
"128 93 LINE",
"115 88 LINE SMOOTH",
"69 70 OFFCURVE",
"49 59 OFFCURVE",
"49 29 CURVE SMOOTH",
"49 8 OFFCURVE",
"59 0 OFFCURVE",
"71 0 CURVE SMOOTH"
);
},
{
closed = 1;
nodes = (
"278 307 LINE",
"440 307 LINE",
"440 401 LINE",
"278 401 LINE",
"278 601 LINE",
"394 601 LINE SMOOTH",
"523 601 OFFCURVE",
"586 502 OFFCURVE",
"586 346 CURVE SMOOTH",
"586 190 OFFCURVE",
"523 94 OFFCURVE",
"394 94 CURVE SMOOTH",
"278 94 LINE"
);
}
);
width = 775;
}
);
note = Dcroat;
unicode = 0110;
},
{
glyphname = Ddotbelow;
lastChange = "2015-07-16 19:31:59 +0000";
layers = (
{
layerId = "9EEBCA4B-DAAA-41A9-8636-8F7562732FC0";
name = Bold;
paths = (
{
closed = 1;
nodes = (
"392 0 LINE SMOOTH",
"577 0 OFFCURVE",
"736 102 OFFCURVE",
"736 346 CURVE SMOOTH",
"736 590 OFFCURVE",
"577 695 OFFCURVE",
"392 695 CURVE SMOOTH",
"69 695 LINE SMOOTH",
"57 695 OFFCURVE",
"47 687 OFFCURVE",
"47 666 CURVE SMOOTH",
"47 636 OFFCURVE",
"67 625 OFFCURVE",
"113 607 CURVE SMOOTH",
"126 602 LINE",
"126 93 LINE",
"113 88 LINE SMOOTH",
"67 70 OFFCURVE",
"47 59 OFFCURVE",
"47 29 CURVE SMOOTH",
"47 8 OFFCURVE",
"57 0 OFFCURVE",
"69 0 CURVE SMOOTH"
);
},
{
closed = 1;
nodes = (
"422 -208 OFFCURVE",
"454 -178 OFFCURVE",
"454 -137 CURVE SMOOTH",
"454 -96 OFFCURVE",
"422 -66 OFFCURVE",
"384 -66 CURVE SMOOTH",
"345 -66 OFFCURVE",
"313 -96 OFFCURVE",
"313 -137 CURVE SMOOTH",
"313 -178 OFFCURVE",
"345 -208 OFFCURVE",
"384 -208 CURVE SMOOTH"
);
},
{
closed = 1;
nodes = (
"276 601 LINE",
"392 601 LINE SMOOTH",
"521 601 OFFCURVE",
"584 502 OFFCURVE",
"584 346 CURVE SMOOTH",
"584 190 OFFCURVE",
"521 94 OFFCURVE",
"392 94 CURVE SMOOTH",
"276 94 LINE"
);
}
);
width = 773;
}
);
note = Ddotbelow;
unicode = 1E0C;
},
{
glyphname = Dlinebelow;
lastChange = "2015-07-16 19:31:59 +0000";
layers = (
{
layerId = "9EEBCA4B-DAAA-41A9-8636-8F7562732FC0";
name = Bold;
paths = (
{
closed = 1;
nodes = (
"392 0 LINE SMOOTH",
"577 0 OFFCURVE",
"736 102 OFFCURVE",
"736 346 CURVE SMOOTH",
"736 590 OFFCURVE",
"577 695 OFFCURVE",
"392 695 CURVE SMOOTH",
"69 695 LINE SMOOTH",
"57 695 OFFCURVE",
"47 687 OFFCURVE",
"47 666 CURVE SMOOTH",
"47 636 OFFCURVE",
"67 625 OFFCURVE",
"113 607 CURVE SMOOTH",
"126 602 LINE",
"126 93 LINE",
"113 88 LINE SMOOTH",
"67 70 OFFCURVE",
"47 59 OFFCURVE",
"47 29 CURVE SMOOTH",
"47 8 OFFCURVE",
"57 0 OFFCURVE",
"69 0 CURVE SMOOTH"
);
},
{
closed = 1;
nodes = (
"580 -182 LINE",
"580 -88 LINE",
"166 -88 LINE",
"166 -182 LINE"
);
},
{
closed = 1;
nodes = (
"276 601 LINE",
"392 601 LINE SMOOTH",
"521 601 OFFCURVE",
"584 502 OFFCURVE",
"584 346 CURVE SMOOTH",
"584 190 OFFCURVE",
"521 94 OFFCURVE",
"392 94 CURVE SMOOTH",
"276 94 LINE"
);
}
);
width = 773;
}
);
note = Dlinebelow;
unicode = 1E0E;
},
{
glyphname = E;
lastChange = "2015-07-16 19:31:59 +0000";
layers = (
{
layerId = "9EEBCA4B-DAAA-41A9-8636-8F7562732FC0";
name = Bold;
paths = (
{
closed = 1;
nodes = (
"667 0 LINE",
"667 172 LINE SMOOTH",
"667 186 OFFCURVE",
"662 195 OFFCURVE",
"644 195 CURVE SMOOTH",
"624 195 OFFCURVE",
"613 172 OFFCURVE",
"596 125 CURVE SMOOTH",
"584 92 LINE",
"276 92 LINE",
"276 310 LINE",
"503 310 LINE",
"520 274 LINE SMOOTH",
"532 249 OFFCURVE",
"542 237 OFFCURVE",
"555 237 CURVE SMOOTH",
"571 237 OFFCURVE",
"576 247 OFFCURVE",
"576 257 CURVE SMOOTH",
"576 453 LINE SMOOTH",
"576 463 OFFCURVE",
"571 473 OFFCURVE",
"555 473 CURVE SMOOTH",
"542 473 OFFCURVE",
"532 461 OFFCURVE",
"520 436 CURVE SMOOTH",
"503 400 LINE",
"276 400 LINE",
"276 603 LINE",
"569 603 LINE",
"581 570 LINE SMOOTH",
"598 523 OFFCURVE",
"609 500 OFFCURVE",
"629 500 CURVE SMOOTH",
"647 500 OFFCURVE",
"652 509 OFFCURVE",
"652 523 CURVE SMOOTH",
"652 695 LINE",
"69 695 LINE SMOOTH",
"57 695 OFFCURVE",
"47 687 OFFCURVE",
"47 666 CURVE SMOOTH",
"47 636 OFFCURVE",
"67 625 OFFCURVE",
"113 607 CURVE SMOOTH",
"126 602 LINE",
"126 93 LINE",
"113 88 LINE SMOOTH",
"67 70 OFFCURVE",
"47 59 OFFCURVE",
"47 29 CURVE SMOOTH",
"47 8 OFFCURVE",
"57 0 OFFCURVE",
"69 0 CURVE SMOOTH"
);
}
);
width = 726;
}
);
note = E;
unicode = 0045;
},
{
glyphname = Eacute;
lastChange = "2015-07-16 19:31:59 +0000";
layers = (
{
layerId = "9EEBCA4B-DAAA-41A9-8636-8F7562732FC0";
name = Bold;
paths = (
{
closed = 1;
nodes = (
"667 0 LINE",
"667 172 LINE SMOOTH",
"667 186 OFFCURVE",
"662 195 OFFCURVE",
"644 195 CURVE SMOOTH",
"624 195 OFFCURVE",
"613 172 OFFCURVE",
"596 125 CURVE SMOOTH",
"584 92 LINE",
"276 92 LINE",
"276 310 LINE",
"503 310 LINE",
"520 274 LINE SMOOTH",
"532 249 OFFCURVE",
"542 237 OFFCURVE",
"555 237 CURVE SMOOTH",
"571 237 OFFCURVE",
"576 247 OFFCURVE",
"576 257 CURVE SMOOTH",
"576 453 LINE SMOOTH",
"576 463 OFFCURVE",
"571 473 OFFCURVE",
"555 473 CURVE SMOOTH",
"542 473 OFFCURVE",
"532 461 OFFCURVE",
"520 436 CURVE SMOOTH",
"503 400 LINE",
"276 400 LINE",
"276 603 LINE",
"569 603 LINE",
"581 570 LINE SMOOTH",
"598 523 OFFCURVE",
"609 500 OFFCURVE",
"629 500 CURVE SMOOTH",
"647 500 OFFCURVE",
"652 509 OFFCURVE",
"652 523 CURVE SMOOTH",
"652 695 LINE",
"69 695 LINE SMOOTH",
"57 695 OFFCURVE",
"47 687 OFFCURVE",
"47 666 CURVE SMOOTH",
"47 636 OFFCURVE",
"67 625 OFFCURVE",
"113 607 CURVE SMOOTH",
"126 602 LINE",
"126 93 LINE",
"113 88 LINE SMOOTH",
"67 70 OFFCURVE",
"47 59 OFFCURVE",
"47 29 CURVE SMOOTH",
"47 8 OFFCURVE",
"57 0 OFFCURVE",
"69 0 CURVE SMOOTH"
);
},
{
closed = 1;
nodes = (
"505 927 LINE",
"400 996 LINE",
"289 808 LINE",
"369 755 LINE"
);
}
);
width = 726;
}
);
note = Eacute;
unicode = 00C9;
},
{
glyphname = Ebreve;
lastChange = "2015-07-16 19:32:00 +0000";
layers = (
{
layerId = "9EEBCA4B-DAAA-41A9-8636-8F7562732FC0";
name = Bold;
paths = (
{
closed = 1;
nodes = (
"667 0 LINE",
"667 172 LINE SMOOTH",
"667 186 OFFCURVE",
"662 195 OFFCURVE",
"644 195 CURVE SMOOTH",
"624 195 OFFCURVE",
"613 172 OFFCURVE",
"596 125 CURVE SMOOTH",
"584 92 LINE",
"276 92 LINE",
"276 310 LINE",
"503 310 LINE",
"520 274 LINE SMOOTH",
"532 249 OFFCURVE",
"542 237 OFFCURVE",
"555 237 CURVE SMOOTH",
"571 237 OFFCURVE",
"576 247 OFFCURVE",
"576 257 CURVE SMOOTH",
"576 453 LINE SMOOTH",
"576 463 OFFCURVE",
"571 473 OFFCURVE",
"555 473 CURVE SMOOTH",
"542 473 OFFCURVE",
"532 461 OFFCURVE",
"520 436 CURVE SMOOTH",
"503 400 LINE",
"276 400 LINE",
"276 603 LINE",
"569 603 LINE",
"581 570 LINE SMOOTH",
"598 523 OFFCURVE",
"609 500 OFFCURVE",
"629 500 CURVE SMOOTH",
"647 500 OFFCURVE",
"652 509 OFFCURVE",
"652 523 CURVE SMOOTH",
"652 695 LINE",
"69 695 LINE SMOOTH",
"57 695 OFFCURVE",
"47 687 OFFCURVE",
"47 666 CURVE SMOOTH",
"47 636 OFFCURVE",
"67 625 OFFCURVE",
"113 607 CURVE SMOOTH",
"126 602 LINE",
"126 93 LINE",
"113 88 LINE SMOOTH",
"67 70 OFFCURVE",
"47 59 OFFCURVE",
"47 29 CURVE SMOOTH",
"47 8 OFFCURVE",
"57 0 OFFCURVE",
"69 0 CURVE SMOOTH"
);
},
{
closed = 1;
nodes = (
"434 747 OFFCURVE",
"505 787 OFFCURVE",
"534 891 CURVE",
"459 917 LINE",
"441 867 OFFCURVE",
"404 841 OFFCURVE",
"359 841 CURVE SMOOTH",
"314 841 OFFCURVE",
"277 867 OFFCURVE",
"259 917 CURVE",
"184 891 LINE",
"213 787 OFFCURVE",
"284 747 OFFCURVE",
"359 747 CURVE SMOOTH"
);
}
);
width = 726;
}
);
note = Ebreve;
unicode = 0114;
},
{
glyphname = Ecaron;
lastChange = "2015-07-16 19:31:59 +0000";
layers = (
{
layerId = "9EEBCA4B-DAAA-41A9-8636-8F7562732FC0";
name = Bold;
paths = (
{
closed = 1;
nodes = (
"667 0 LINE",
"667 172 LINE SMOOTH",
"667 186 OFFCURVE",
"662 195 OFFCURVE",
"644 195 CURVE SMOOTH",
"624 195 OFFCURVE",
"613 172 OFFCURVE",
"596 125 CURVE SMOOTH",
"584 92 LINE",
"276 92 LINE",
"276 310 LINE",
"503 310 LINE",
"520 274 LINE SMOOTH",
"532 249 OFFCURVE",
"542 237 OFFCURVE",
"555 237 CURVE SMOOTH",
"571 237 OFFCURVE",
"576 247 OFFCURVE",
"576 257 CURVE SMOOTH",
"576 453 LINE SMOOTH",
"576 463 OFFCURVE",
"571 473 OFFCURVE",
"555 473 CURVE SMOOTH",
"542 473 OFFCURVE",
"532 461 OFFCURVE",
"520 436 CURVE SMOOTH",
"503 400 LINE",
"276 400 LINE",
"276 603 LINE",
"569 603 LINE",
"581 570 LINE SMOOTH",
"598 523 OFFCURVE",
"609 500 OFFCURVE",
"629 500 CURVE SMOOTH",
"647 500 OFFCURVE",
"652 509 OFFCURVE",
"652 523 CURVE SMOOTH",
"652 695 LINE",
"69 695 LINE SMOOTH",
"57 695 OFFCURVE",
"47 687 OFFCURVE",
"47 666 CURVE SMOOTH",
"47 636 OFFCURVE",
"67 625 OFFCURVE",
"113 607 CURVE SMOOTH",
"126 602 LINE",
"126 93 LINE",
"113 88 LINE SMOOTH",
"67 70 OFFCURVE",
"47 59 OFFCURVE",
"47 29 CURVE SMOOTH",
"47 8 OFFCURVE",
"57 0 OFFCURVE",
"69 0 CURVE SMOOTH"
);
},
{
closed = 1;
nodes = (
"396 754 LINE",
"521 917 LINE",
"460 971 LINE",
"363 860 LINE",
"266 971 LINE",
"205 917 LINE",
"330 754 LINE"
);
}
);
width = 726;
}
);
note = Ecaron;
unicode = 011A;
},
{
glyphname = Ecircumflex;
lastChange = "2015-07-16 19:31:59 +0000";
layers = (
{
layerId = "9EEBCA4B-DAAA-41A9-8636-8F7562732FC0";
name = Bold;
paths = (
{
closed = 1;
nodes = (
"667 0 LINE",
"667 172 LINE SMOOTH",
"667 186 OFFCURVE",
"662 195 OFFCURVE",
"644 195 CURVE SMOOTH",
"624 195 OFFCURVE",
"613 172 OFFCURVE",
"596 125 CURVE SMOOTH",
"584 92 LINE",
"276 92 LINE",
"276 310 LINE",
"503 310 LINE",
"520 274 LINE SMOOTH",
"532 249 OFFCURVE",
"542 237 OFFCURVE",
"555 237 CURVE SMOOTH",
"571 237 OFFCURVE",
"576 247 OFFCURVE",
"576 257 CURVE SMOOTH",
"576 453 LINE SMOOTH",
"576 463 OFFCURVE",
"571 473 OFFCURVE",
"555 473 CURVE SMOOTH",
"542 473 OFFCURVE",
"532 461 OFFCURVE",
"520 436 CURVE SMOOTH",
"503 400 LINE",
"276 400 LINE",
"276 603 LINE",
"569 603 LINE",
"581 570 LINE SMOOTH",
"598 523 OFFCURVE",
"609 500 OFFCURVE",
"629 500 CURVE SMOOTH",
"647 500 OFFCURVE",
"652 509 OFFCURVE",
"652 523 CURVE SMOOTH",
"652 695 LINE",
"69 695 LINE SMOOTH",
"57 695 OFFCURVE",
"47 687 OFFCURVE",
"47 666 CURVE SMOOTH",
"47 636 OFFCURVE",
"67 625 OFFCURVE",
"113 607 CURVE SMOOTH",
"126 602 LINE",
"126 93 LINE",
"113 88 LINE SMOOTH",
"67 70 OFFCURVE",
"47 59 OFFCURVE",
"47 29 CURVE SMOOTH",
"47 8 OFFCURVE",
"57 0 OFFCURVE",
"69 0 CURVE SMOOTH"
);
},
{
closed = 1;
nodes = (
"360 865 LINE",
"457 754 LINE",
"518 808 LINE",
"393 971 LINE",
"327 971 LINE",
"202 808 LINE",
"263 754 LINE"
);
}
);
width = 726;
}
);
note = Ecircumflex;
unicode = 00CA;
},
{
glyphname = Ecircumflexacute;
lastChange = "2015-07-16 19:31:59 +0000";
layers = (
{
layerId = "9EEBCA4B-DAAA-41A9-8636-8F7562732FC0";
name = Bold;
paths = (
{
closed = 1;
nodes = (
"667 0 LINE",
"667 172 LINE SMOOTH",
"667 186 OFFCURVE",
"662 195 OFFCURVE",
"644 195 CURVE SMOOTH",
"624 195 OFFCURVE",
"613 172 OFFCURVE",
"596 125 CURVE SMOOTH",
"584 92 LINE",
"276 92 LINE",
"276 310 LINE",
"503 310 LINE",
"520 274 LINE SMOOTH",
"532 249 OFFCURVE",
"542 237 OFFCURVE",
"555 237 CURVE SMOOTH",
"571 237 OFFCURVE",
"576 247 OFFCURVE",
"576 257 CURVE SMOOTH",
"576 453 LINE SMOOTH",
"576 463 OFFCURVE",
"571 473 OFFCURVE",
"555 473 CURVE SMOOTH",
"542 473 OFFCURVE",
"532 461 OFFCURVE",
"520 436 CURVE SMOOTH",
"503 400 LINE",
"276 400 LINE",
"276 603 LINE",
"569 603 LINE",
"581 570 LINE SMOOTH",
"598 523 OFFCURVE",
"609 500 OFFCURVE",
"629 500 CURVE SMOOTH",
"647 500 OFFCURVE",
"652 509 OFFCURVE",
"652 523 CURVE SMOOTH",
"652 695 LINE",
"69 695 LINE SMOOTH",
"57 695 OFFCURVE",
"47 687 OFFCURVE",
"47 666 CURVE SMOOTH",
"47 636 OFFCURVE",
"67 625 OFFCURVE",
"113 607 CURVE SMOOTH",
"126 602 LINE",
"126 93 LINE",
"113 88 LINE SMOOTH",
"67 70 OFFCURVE",
"47 59 OFFCURVE",
"47 29 CURVE SMOOTH",
"47 8 OFFCURVE",
"57 0 OFFCURVE",
"69 0 CURVE SMOOTH"
);
},
{
closed = 1;
nodes = (
"369 865 LINE",
"466 754 LINE",
"527 808 LINE",
"402 971 LINE",
"336 971 LINE",
"211 808 LINE",
"272 754 LINE"
);
},
{
closed = 1;
nodes = (
"643 995 LINE",
"551 1056 LINE",
"481 927 LINE",
"541 885 LINE"
);
}
);
width = 726;
}
);
note = Ecircumflexacute;
unicode = 1EBE;
},
{
glyphname = Ecircumflexdotbelow;
lastChange = "2015-07-16 19:32:00 +0000";
layers = (
{
layerId = "9EEBCA4B-DAAA-41A9-8636-8F7562732FC0";
name = Bold;
paths = (
{
closed = 1;
nodes = (
"667 0 LINE",
"667 172 LINE SMOOTH",
"667 186 OFFCURVE",
"662 195 OFFCURVE",
"644 195 CURVE SMOOTH",
"624 195 OFFCURVE",
"613 172 OFFCURVE",
"596 125 CURVE SMOOTH",
"584 92 LINE",
"276 92 LINE",
"276 310 LINE",
"503 310 LINE",
"520 274 LINE SMOOTH",
"532 249 OFFCURVE",
"542 237 OFFCURVE",
"555 237 CURVE SMOOTH",
"571 237 OFFCURVE",
"576 247 OFFCURVE",
"576 257 CURVE SMOOTH",
"576 453 LINE SMOOTH",
"576 463 OFFCURVE",
"571 473 OFFCURVE",
"555 473 CURVE SMOOTH",
"542 473 OFFCURVE",
"532 461 OFFCURVE",
"520 436 CURVE SMOOTH",
"503 400 LINE",
"276 400 LINE",
"276 603 LINE",
"569 603 LINE",
"581 570 LINE SMOOTH",
"598 523 OFFCURVE",
"609 500 OFFCURVE",
"629 500 CURVE SMOOTH",
"647 500 OFFCURVE",
"652 509 OFFCURVE",
"652 523 CURVE SMOOTH",
"652 695 LINE",
"69 695 LINE SMOOTH",
"57 695 OFFCURVE",
"47 687 OFFCURVE",
"47 666 CURVE SMOOTH",
"47 636 OFFCURVE",
"67 625 OFFCURVE",
"113 607 CURVE SMOOTH",
"126 602 LINE",
"126 93 LINE",
"113 88 LINE SMOOTH",
"67 70 OFFCURVE",
"47 59 OFFCURVE",
"47 29 CURVE SMOOTH",
"47 8 OFFCURVE",
"57 0 OFFCURVE",
"69 0 CURVE SMOOTH"
);
},
{
closed = 1;
nodes = (
"409 -208 OFFCURVE",
"441 -178 OFFCURVE",
"441 -137 CURVE SMOOTH",
"441 -96 OFFCURVE",
"409 -66 OFFCURVE",
"371 -66 CURVE SMOOTH",
"332 -66 OFFCURVE",
"300 -96 OFFCURVE",
"300 -137 CURVE SMOOTH",
"300 -178 OFFCURVE",
"332 -208 OFFCURVE",
"371 -208 CURVE SMOOTH"
);
},
{
closed = 1;
nodes = (
"360 865 LINE",
"457 754 LINE",
"518 808 LINE",
"393 971 LINE",
"327 971 LINE",
"202 808 LINE",
"263 754 LINE"
);
}
);
width = 726;
}
);
note = Ecircumflexdotbelow;
unicode = 1EC6;
},
{
glyphname = Ecircumflexgrave;
lastChange = "2015-07-16 19:31:59 +0000";
layers = (
{
layerId = "9EEBCA4B-DAAA-41A9-8636-8F7562732FC0";
name = Bold;
paths = (
{
closed = 1;
nodes = (
"667 0 LINE",
"667 172 LINE SMOOTH",
"667 186 OFFCURVE",
"662 195 OFFCURVE",
"644 195 CURVE SMOOTH",
"624 195 OFFCURVE",
"613 172 OFFCURVE",
"596 125 CURVE SMOOTH",
"584 92 LINE",
"276 92 LINE",
"276 310 LINE",
"503 310 LINE",
"520 274 LINE SMOOTH",
"532 249 OFFCURVE",
"542 237 OFFCURVE",
"555 237 CURVE SMOOTH",
"571 237 OFFCURVE",
"576 247 OFFCURVE",
"576 257 CURVE SMOOTH",
"576 453 LINE SMOOTH",
"576 463 OFFCURVE",
"571 473 OFFCURVE",
"555 473 CURVE SMOOTH",
"542 473 OFFCURVE",
"532 461 OFFCURVE",
"520 436 CURVE SMOOTH",
"503 400 LINE",
"276 400 LINE",
"276 603 LINE",
"569 603 LINE",
"581 570 LINE SMOOTH",
"598 523 OFFCURVE",
"609 500 OFFCURVE",
"629 500 CURVE SMOOTH",
"647 500 OFFCURVE",
"652 509 OFFCURVE",
"652 523 CURVE SMOOTH",
"652 695 LINE",
"69 695 LINE SMOOTH",
"57 695 OFFCURVE",
"47 687 OFFCURVE",
"47 666 CURVE SMOOTH",
"47 636 OFFCURVE",
"67 625 OFFCURVE",
"113 607 CURVE SMOOTH",
"126 602 LINE",
"126 93 LINE",
"113 88 LINE SMOOTH",
"67 70 OFFCURVE",
"47 59 OFFCURVE",
"47 29 CURVE SMOOTH",
"47 8 OFFCURVE",
"57 0 OFFCURVE",
"69 0 CURVE SMOOTH"
);
},
{
closed = 1;
nodes = (
"261 927 LINE",
"191 1056 LINE",
"99 995 LINE",
"201 885 LINE"
);
},
{
closed = 1;
nodes = (
"373 865 LINE",
"470 754 LINE",
"531 808 LINE",
"406 971 LINE",
"340 971 LINE",
"215 808 LINE",
"276 754 LINE"
);
}
);
width = 726;
}
);
note = Ecircumflexgrave;
unicode = 1EC0;
},
{
glyphname = Ecircumflexhookabove;
lastChange = "2015-07-16 19:32:00 +0000";
layers = (
{
layerId = "9EEBCA4B-DAAA-41A9-8636-8F7562732FC0";
name = Bold;
paths = (
{
closed = 1;
nodes = (
"667 0 LINE",
"667 172 LINE SMOOTH",
"667 186 OFFCURVE",
"662 195 OFFCURVE",
"644 195 CURVE SMOOTH",
"624 195 OFFCURVE",
"613 172 OFFCURVE",
"596 125 CURVE SMOOTH",
"584 92 LINE",
"276 92 LINE",
"276 310 LINE",
"503 310 LINE",
"520 274 LINE SMOOTH",
"532 249 OFFCURVE",
"542 237 OFFCURVE",
"555 237 CURVE SMOOTH",
"571 237 OFFCURVE",
"576 247 OFFCURVE",
"576 257 CURVE SMOOTH",
"576 453 LINE SMOOTH",
"576 463 OFFCURVE",
"571 473 OFFCURVE",
"555 473 CURVE SMOOTH",
"542 473 OFFCURVE",
"532 461 OFFCURVE",
"520 436 CURVE SMOOTH",
"503 400 LINE",
"276 400 LINE",
"276 603 LINE",
"569 603 LINE",
"581 570 LINE SMOOTH",
"598 523 OFFCURVE",
"609 500 OFFCURVE",
"629 500 CURVE SMOOTH",
"647 500 OFFCURVE",
"652 509 OFFCURVE",
"652 523 CURVE SMOOTH",
"652 695 LINE",
"69 695 LINE SMOOTH",
"57 695 OFFCURVE",
"47 687 OFFCURVE",
"47 666 CURVE SMOOTH",
"47 636 OFFCURVE",
"67 625 OFFCURVE",
"113 607 CURVE SMOOTH",
"126 602 LINE",
"126 93 LINE",
"113 88 LINE SMOOTH",
"67 70 OFFCURVE",
"47 59 OFFCURVE",
"47 29 CURVE SMOOTH",
"47 8 OFFCURVE",
"57 0 OFFCURVE",
"69 0 CURVE SMOOTH"
);
},
{
closed = 1;
nodes = (
"349 865 LINE",
"446 754 LINE",
"507 808 LINE",
"382 971 LINE",
"316 971 LINE",
"191 808 LINE",
"252 754 LINE"
);
},
{
closed = 1;
nodes = (
"561 886 LINE",
"568 935 LINE",
"617 953 OFFCURVE",
"646 985 OFFCURVE",
"646 1027 CURVE SMOOTH",
"646 1072 OFFCURVE",
"607 1113 OFFCURVE",
"537 1113 CURVE SMOOTH",
"509 1113 OFFCURVE",
"475 1103 OFFCURVE",
"456 1095 CURVE",
"465 1045 LINE",
"487 1051 OFFCURVE",
"504 1055 OFFCURVE",
"524 1055 CURVE SMOOTH",
"548 1055 OFFCURVE",
"556 1044 OFFCURVE",
"556 1026 CURVE SMOOTH",
"556 1000 OFFCURVE",
"530 983 OFFCURVE",
"490 968 CURVE",
"498 886 LINE"
);
}
);
width = 726;
}
);
note = Ecircumflexhookabove;
unicode = 1EC2;
},
{
glyphname = Ecircumflextilde;
lastChange = "2015-07-16 19:31:59 +0000";
layers = (
{
layerId = "9EEBCA4B-DAAA-41A9-8636-8F7562732FC0";
name = Bold;
paths = (
{
closed = 1;
nodes = (
"667 0 LINE",
"667 172 LINE SMOOTH",
"667 186 OFFCURVE",
"662 195 OFFCURVE",
"644 195 CURVE SMOOTH",
"624 195 OFFCURVE",
"613 172 OFFCURVE",
"596 125 CURVE SMOOTH",
"584 92 LINE",
"276 92 LINE",
"276 310 LINE",
"503 310 LINE",
"520 274 LINE SMOOTH",
"532 249 OFFCURVE",
"542 237 OFFCURVE",
"555 237 CURVE SMOOTH",
"571 237 OFFCURVE",
"576 247 OFFCURVE",
"576 257 CURVE SMOOTH",
"576 453 LINE SMOOTH",
"576 463 OFFCURVE",
"571 473 OFFCURVE",
"555 473 CURVE SMOOTH",
"542 473 OFFCURVE",
"532 461 OFFCURVE",
"520 436 CURVE SMOOTH",
"503 400 LINE",
"276 400 LINE",
"276 603 LINE",
"569 603 LINE",
"581 570 LINE SMOOTH",
"598 523 OFFCURVE",
"609 500 OFFCURVE",
"629 500 CURVE SMOOTH",
"647 500 OFFCURVE",
"652 509 OFFCURVE",
"652 523 CURVE SMOOTH",
"652 695 LINE",
"69 695 LINE SMOOTH",
"57 695 OFFCURVE",
"47 687 OFFCURVE",
"47 666 CURVE SMOOTH",
"47 636 OFFCURVE",
"67 625 OFFCURVE",
"113 607 CURVE SMOOTH",
"126 602 LINE",
"126 93 LINE",
"113 88 LINE SMOOTH",
"67 70 OFFCURVE",
"47 59 OFFCURVE",
"47 29 CURVE SMOOTH",
"47 8 OFFCURVE",
"57 0 OFFCURVE",
"69 0 CURVE SMOOTH"
);
},
{
closed = 1;
nodes = (
"369 865 LINE",
"466 754 LINE",
"527 808 LINE",
"402 971 LINE",
"336 971 LINE",
"211 808 LINE",
"272 754 LINE"
);
},
{
closed = 1;
nodes = (
"456 1000 OFFCURVE",
"487 1016 OFFCURVE",
"514 1044 CURVE",
"475 1098 LINE",
"459 1086 OFFCURVE",
"444 1080 OFFCURVE",
"427 1080 CURVE SMOOTH",
"389 1080 OFFCURVE",
"359 1113 OFFCURVE",
"319 1113 CURVE SMOOTH",
"292 1113 OFFCURVE",
"257 1094 OFFCURVE",
"230 1070 CURVE",
"269 1014 LINE",
"284 1025 OFFCURVE",
"298 1034 OFFCURVE",
"319 1034 CURVE SMOOTH",
"357 1034 OFFCURVE",
"387 1000 OFFCURVE",
"428 1000 CURVE SMOOTH"
);
}
);
width = 726;
}
);
note = Ecircumflextilde;
unicode = 1EC4;
},
{
glyphname = Edieresis;
lastChange = "2015-07-16 19:31:59 +0000";
layers = (
{
layerId = "9EEBCA4B-DAAA-41A9-8636-8F7562732FC0";
name = Bold;
paths = (
{
closed = 1;
nodes = (
"667 0 LINE",
"667 172 LINE SMOOTH",
"667 186 OFFCURVE",
"662 195 OFFCURVE",
"644 195 CURVE SMOOTH",
"624 195 OFFCURVE",
"613 172 OFFCURVE",
"596 125 CURVE SMOOTH",
"584 92 LINE",
"276 92 LINE",
"276 310 LINE",
"503 310 LINE",
"520 274 LINE SMOOTH",
"532 249 OFFCURVE",
"542 237 OFFCURVE",
"555 237 CURVE SMOOTH",
"571 237 OFFCURVE",
"576 247 OFFCURVE",
"576 257 CURVE SMOOTH",
"576 453 LINE SMOOTH",
"576 463 OFFCURVE",
"571 473 OFFCURVE",
"555 473 CURVE SMOOTH",
"542 473 OFFCURVE",
"532 461 OFFCURVE",
"520 436 CURVE SMOOTH",
"503 400 LINE",
"276 400 LINE",
"276 603 LINE",
"569 603 LINE",
"581 570 LINE SMOOTH",
"598 523 OFFCURVE",
"609 500 OFFCURVE",
"629 500 CURVE SMOOTH",
"647 500 OFFCURVE",
"652 509 OFFCURVE",
"652 523 CURVE SMOOTH",
"652 695 LINE",
"69 695 LINE SMOOTH",
"57 695 OFFCURVE",
"47 687 OFFCURVE",
"47 666 CURVE SMOOTH",
"47 636 OFFCURVE",
"67 625 OFFCURVE",
"113 607 CURVE SMOOTH",
"126 602 LINE",
"126 93 LINE",
"113 88 LINE SMOOTH",
"67 70 OFFCURVE",
"47 59 OFFCURVE",
"47 29 CURVE SMOOTH",
"47 8 OFFCURVE",
"57 0 OFFCURVE",
"69 0 CURVE SMOOTH"
);
},
{
closed = 1;
nodes = (
"307 765 OFFCURVE",
"339 795 OFFCURVE",
"339 836 CURVE SMOOTH",
"339 877 OFFCURVE",
"307 907 OFFCURVE",
"269 907 CURVE SMOOTH",
"230 907 OFFCURVE",
"198 877 OFFCURVE",
"198 836 CURVE SMOOTH",
"198 795 OFFCURVE",
"230 765 OFFCURVE",
"269 765 CURVE SMOOTH"
);
},
{
closed = 1;
nodes = (
"519 765 OFFCURVE",
"551 795 OFFCURVE",
"551 836 CURVE SMOOTH",
"551 877 OFFCURVE",
"519 907 OFFCURVE",
"481 907 CURVE SMOOTH",
"442 907 OFFCURVE",
"410 877 OFFCURVE",
"410 836 CURVE SMOOTH",
"410 795 OFFCURVE",
"442 765 OFFCURVE",
"481 765 CURVE SMOOTH"
);
}
);
width = 726;
}
);
note = Edieresis;
unicode = 00CB;
},
{
glyphname = Edotaccent;
lastChange = "2015-07-16 19:31:59 +0000";
layers = (
{
layerId = "9EEBCA4B-DAAA-41A9-8636-8F7562732FC0";
name = Bold;
paths = (
{
closed = 1;
nodes = (
"667 0 LINE",
"667 172 LINE SMOOTH",
"667 186 OFFCURVE",
"662 195 OFFCURVE",
"644 195 CURVE SMOOTH",
"624 195 OFFCURVE",
"613 172 OFFCURVE",
"596 125 CURVE SMOOTH",
"584 92 LINE",
"276 92 LINE",
"276 310 LINE",
"503 310 LINE",
"520 274 LINE SMOOTH",
"532 249 OFFCURVE",
"542 237 OFFCURVE",
"555 237 CURVE SMOOTH",
"571 237 OFFCURVE",
"576 247 OFFCURVE",
"576 257 CURVE SMOOTH",
"576 453 LINE SMOOTH",
"576 463 OFFCURVE",
"571 473 OFFCURVE",
"555 473 CURVE SMOOTH",
"542 473 OFFCURVE",
"532 461 OFFCURVE",
"520 436 CURVE SMOOTH",
"503 400 LINE",
"276 400 LINE",
"276 603 LINE",
"569 603 LINE",
"581 570 LINE SMOOTH",
"598 523 OFFCURVE",
"609 500 OFFCURVE",
"629 500 CURVE SMOOTH",
"647 500 OFFCURVE",
"652 509 OFFCURVE",
"652 523 CURVE SMOOTH",
"652 695 LINE",
"69 695 LINE SMOOTH",
"57 695 OFFCURVE",
"47 687 OFFCURVE",
"47 666 CURVE SMOOTH",
"47 636 OFFCURVE",
"67 625 OFFCURVE",
"113 607 CURVE SMOOTH",
"126 602 LINE",
"126 93 LINE",
"113 88 LINE SMOOTH",
"67 70 OFFCURVE",
"47 59 OFFCURVE",
"47 29 CURVE SMOOTH",
"47 8 OFFCURVE",
"57 0 OFFCURVE",
"69 0 CURVE SMOOTH"
);
},
{
closed = 1;
nodes = (
"406 772 OFFCURVE",
"438 802 OFFCURVE",
"438 843 CURVE SMOOTH",
"438 884 OFFCURVE",
"406 914 OFFCURVE",
"368 914 CURVE SMOOTH",
"329 914 OFFCURVE",
"297 884 OFFCURVE",
"297 843 CURVE SMOOTH",
"297 802 OFFCURVE",
"329 772 OFFCURVE",
"368 772 CURVE SMOOTH"
);
}
);
width = 726;
}
);
note = Edotaccent;
unicode = 0116;
},
{
glyphname = Edotbelow;
lastChange = "2015-07-16 19:31:59 +0000";
layers = (
{
layerId = "9EEBCA4B-DAAA-41A9-8636-8F7562732FC0";
name = Bold;
paths = (
{
closed = 1;
nodes = (
"667 0 LINE",
"667 172 LINE SMOOTH",
"667 186 OFFCURVE",
"662 195 OFFCURVE",
"644 195 CURVE SMOOTH",
"624 195 OFFCURVE",
"613 172 OFFCURVE",
"596 125 CURVE SMOOTH",
"584 92 LINE",
"276 92 LINE",
"276 310 LINE",
"503 310 LINE",
"520 274 LINE SMOOTH",
"532 249 OFFCURVE",
"542 237 OFFCURVE",
"555 237 CURVE SMOOTH",
"571 237 OFFCURVE",
"576 247 OFFCURVE",
"576 257 CURVE SMOOTH",
"576 453 LINE SMOOTH",
"576 463 OFFCURVE",
"571 473 OFFCURVE",
"555 473 CURVE SMOOTH",
"542 473 OFFCURVE",
"532 461 OFFCURVE",
"520 436 CURVE SMOOTH",
"503 400 LINE",
"276 400 LINE",
"276 603 LINE",
"569 603 LINE",
"581 570 LINE SMOOTH",
"598 523 OFFCURVE",
"609 500 OFFCURVE",
"629 500 CURVE SMOOTH",
"647 500 OFFCURVE",
"652 509 OFFCURVE",
"652 523 CURVE SMOOTH",
"652 695 LINE",
"69 695 LINE SMOOTH",
"57 695 OFFCURVE",
"47 687 OFFCURVE",
"47 666 CURVE SMOOTH",
"47 636 OFFCURVE",
"67 625 OFFCURVE",
"113 607 CURVE SMOOTH",
"126 602 LINE",
"126 93 LINE",
"113 88 LINE SMOOTH",
"67 70 OFFCURVE",
"47 59 OFFCURVE",
"47 29 CURVE SMOOTH",
"47 8 OFFCURVE",
"57 0 OFFCURVE",
"69 0 CURVE SMOOTH"
);
},
{
closed = 1;
nodes = (
"419 -208 OFFCURVE",
"451 -178 OFFCURVE",
"451 -137 CURVE SMOOTH",
"451 -96 OFFCURVE",
"419 -66 OFFCURVE",
"381 -66 CURVE SMOOTH",
"342 -66 OFFCURVE",
"310 -96 OFFCURVE",
"310 -137 CURVE SMOOTH",
"310 -178 OFFCURVE",
"342 -208 OFFCURVE",
"381 -208 CURVE SMOOTH"
);
}
);
width = 726;
}
);
note = Edotbelow;
unicode = 1EB8;
},
{
glyphname = Egrave;
lastChange = "2015-07-16 19:31:59 +0000";
layers = (
{
layerId = "9EEBCA4B-DAAA-41A9-8636-8F7562732FC0";
name = Bold;
paths = (
{
closed = 1;
nodes = (
"667 0 LINE",
"667 172 LINE SMOOTH",
"667 186 OFFCURVE",
"662 195 OFFCURVE",
"644 195 CURVE SMOOTH",
"624 195 OFFCURVE",
"613 172 OFFCURVE",
"596 125 CURVE SMOOTH",
"584 92 LINE",
"276 92 LINE",
"276 310 LINE",
"503 310 LINE",
"520 274 LINE SMOOTH",
"532 249 OFFCURVE",
"542 237 OFFCURVE",
"555 237 CURVE SMOOTH",
"571 237 OFFCURVE",
"576 247 OFFCURVE",
"576 257 CURVE SMOOTH",
"576 453 LINE SMOOTH",
"576 463 OFFCURVE",
"571 473 OFFCURVE",
"555 473 CURVE SMOOTH",
"542 473 OFFCURVE",
"532 461 OFFCURVE",
"520 436 CURVE SMOOTH",
"503 400 LINE",
"276 400 LINE",
"276 603 LINE",
"569 603 LINE",
"581 570 LINE SMOOTH",
"598 523 OFFCURVE",
"609 500 OFFCURVE",
"629 500 CURVE SMOOTH",
"647 500 OFFCURVE",
"652 509 OFFCURVE",
"652 523 CURVE SMOOTH",
"652 695 LINE",
"69 695 LINE SMOOTH",
"57 695 OFFCURVE",
"47 687 OFFCURVE",
"47 666 CURVE SMOOTH",
"47 636 OFFCURVE",
"67 625 OFFCURVE",
"113 607 CURVE SMOOTH",
"126 602 LINE",
"126 93 LINE",
"113 88 LINE SMOOTH",
"67 70 OFFCURVE",
"47 59 OFFCURVE",
"47 29 CURVE SMOOTH",
"47 8 OFFCURVE",
"57 0 OFFCURVE",
"69 0 CURVE SMOOTH"
);
},
{
closed = 1;
nodes = (
"441 808 LINE",
"330 996 LINE",
"225 927 LINE",
"361 755 LINE"
);
}
);
width = 726;
}
);
note = Egrave;
unicode = 00C8;
},
{
glyphname = Ehookabove;
lastChange = "2015-07-16 19:32:00 +0000";
layers = (
{
layerId = "9EEBCA4B-DAAA-41A9-8636-8F7562732FC0";
name = Bold;
paths = (
{
closed = 1;
nodes = (
"667 0 LINE",
"667 172 LINE SMOOTH",
"667 186 OFFCURVE",
"662 195 OFFCURVE",
"644 195 CURVE SMOOTH",
"624 195 OFFCURVE",
"613 172 OFFCURVE",
"596 125 CURVE SMOOTH",
"584 92 LINE",
"276 92 LINE",
"276 310 LINE",
"503 310 LINE",
"520 274 LINE SMOOTH",
"532 249 OFFCURVE",
"542 237 OFFCURVE",
"555 237 CURVE SMOOTH",
"571 237 OFFCURVE",
"576 247 OFFCURVE",
"576 257 CURVE SMOOTH",
"576 453 LINE SMOOTH",
"576 463 OFFCURVE",
"571 473 OFFCURVE",
"555 473 CURVE SMOOTH",
"542 473 OFFCURVE",
"532 461 OFFCURVE",
"520 436 CURVE SMOOTH",
"503 400 LINE",
"276 400 LINE",
"276 603 LINE",
"569 603 LINE",
"581 570 LINE SMOOTH",
"598 523 OFFCURVE",
"609 500 OFFCURVE",
"629 500 CURVE SMOOTH",
"647 500 OFFCURVE",
"652 509 OFFCURVE",
"652 523 CURVE SMOOTH",
"652 695 LINE",
"69 695 LINE SMOOTH",
"57 695 OFFCURVE",
"47 687 OFFCURVE",
"47 666 CURVE SMOOTH",
"47 636 OFFCURVE",
"67 625 OFFCURVE",
"113 607 CURVE SMOOTH",
"126 602 LINE",
"126 93 LINE",
"113 88 LINE SMOOTH",
"67 70 OFFCURVE",
"47 59 OFFCURVE",
"47 29 CURVE SMOOTH",
"47 8 OFFCURVE",
"57 0 OFFCURVE",
"69 0 CURVE SMOOTH"
);
},
{
closed = 1;
nodes = (
"401 750 LINE",
"408 799 LINE",
"457 817 OFFCURVE",
"486 849 OFFCURVE",
"486 891 CURVE SMOOTH",
"486 936 OFFCURVE",
"447 977 OFFCURVE",
"377 977 CURVE SMOOTH",
"349 977 OFFCURVE",
"315 967 OFFCURVE",
"296 959 CURVE",
"305 909 LINE",
"327 915 OFFCURVE",
"344 919 OFFCURVE",
"364 919 CURVE SMOOTH",
"388 919 OFFCURVE",
"396 908 OFFCURVE",
"396 890 CURVE SMOOTH",
"396 864 OFFCURVE",
"370 847 OFFCURVE",
"330 832 CURVE",
"338 750 LINE"
);
}
);
width = 726;
}
);
note = Ehookabove;
unicode = 1EBA;
},
{
glyphname = Emacron;
lastChange = "2015-07-16 19:32:00 +0000";
layers = (
{
layerId = "9EEBCA4B-DAAA-41A9-8636-8F7562732FC0";
name = Bold;
paths = (
{
closed = 1;
nodes = (
"667 0 LINE",
"667 172 LINE SMOOTH",
"667 186 OFFCURVE",
"662 195 OFFCURVE",
"644 195 CURVE SMOOTH",
"624 195 OFFCURVE",
"613 172 OFFCURVE",
"596 125 CURVE SMOOTH",
"584 92 LINE",
"276 92 LINE",
"276 310 LINE",
"503 310 LINE",
"520 274 LINE SMOOTH",
"532 249 OFFCURVE",
"542 237 OFFCURVE",
"555 237 CURVE SMOOTH",
"571 237 OFFCURVE",
"576 247 OFFCURVE",
"576 257 CURVE SMOOTH",
"576 453 LINE SMOOTH",
"576 463 OFFCURVE",
"571 473 OFFCURVE",
"555 473 CURVE SMOOTH",
"542 473 OFFCURVE",
"532 461 OFFCURVE",
"520 436 CURVE SMOOTH",
"503 400 LINE",
"276 400 LINE",
"276 603 LINE",
"569 603 LINE",
"581 570 LINE SMOOTH",
"598 523 OFFCURVE",
"609 500 OFFCURVE",
"629 500 CURVE SMOOTH",
"647 500 OFFCURVE",
"652 509 OFFCURVE",
"652 523 CURVE SMOOTH",
"652 695 LINE",
"69 695 LINE SMOOTH",
"57 695 OFFCURVE",
"47 687 OFFCURVE",
"47 666 CURVE SMOOTH",
"47 636 OFFCURVE",
"67 625 OFFCURVE",
"113 607 CURVE SMOOTH",
"126 602 LINE",
"126 93 LINE",
"113 88 LINE SMOOTH",
"67 70 OFFCURVE",
"47 59 OFFCURVE",
"47 29 CURVE SMOOTH",
"47 8 OFFCURVE",
"57 0 OFFCURVE",
"69 0 CURVE SMOOTH"
);
},
{
closed = 1;
nodes = (
"514 788 LINE",
"514 882 LINE",
"214 882 LINE",
"214 788 LINE"
);
}
);
width = 726;
}
);
note = Emacron;
unicode = 0112;
},
{
glyphname = Eogonek;
lastChange = "2015-07-16 19:31:59 +0000";
layers = (
{
layerId = "9EEBCA4B-DAAA-41A9-8636-8F7562732FC0";
name = Bold;
paths = (
{
closed = 1;
nodes = (
"616 -215 OFFCURVE",
"645 -209 OFFCURVE",
"667 -197 CURVE",
"656 -139 LINE",
"642 -143 OFFCURVE",
"628 -147 OFFCURVE",
"609 -147 CURVE SMOOTH",
"572 -147 OFFCURVE",
"556 -124 OFFCURVE",
"556 -99 CURVE SMOOTH",
"556 -63 OFFCURVE",
"588 -18 OFFCURVE",
"626 0 CURVE",
"667 0 LINE",
"667 172 LINE SMOOTH",
"667 186 OFFCURVE",
"662 195 OFFCURVE",
"644 195 CURVE SMOOTH",
"624 195 OFFCURVE",
"613 172 OFFCURVE",
"596 125 CURVE SMOOTH",
"584 92 LINE",
"276 92 LINE",
"276 310 LINE",
"503 310 LINE",
"520 274 LINE SMOOTH",
"532 249 OFFCURVE",
"542 237 OFFCURVE",
"555 237 CURVE SMOOTH",
"571 237 OFFCURVE",
"576 247 OFFCURVE",
"576 257 CURVE SMOOTH",
"576 453 LINE SMOOTH",
"576 463 OFFCURVE",
"571 473 OFFCURVE",
"555 473 CURVE SMOOTH",
"542 473 OFFCURVE",
"532 461 OFFCURVE",
"520 436 CURVE SMOOTH",
"503 400 LINE",
"276 400 LINE",
"276 603 LINE",
"569 603 LINE",
"581 570 LINE SMOOTH",
"598 523 OFFCURVE",
"609 500 OFFCURVE",
"629 500 CURVE SMOOTH",
"647 500 OFFCURVE",
"652 509 OFFCURVE",
"652 523 CURVE SMOOTH",
"652 695 LINE",
"69 695 LINE SMOOTH",
"57 695 OFFCURVE",
"47 687 OFFCURVE",
"47 666 CURVE SMOOTH",
"47 636 OFFCURVE",
"67 625 OFFCURVE",
"113 607 CURVE SMOOTH",
"126 602 LINE",
"126 93 LINE",
"113 88 LINE SMOOTH",
"67 70 OFFCURVE",
"47 59 OFFCURVE",
"47 29 CURVE SMOOTH",
"47 8 OFFCURVE",
"57 0 OFFCURVE",
"69 0 CURVE SMOOTH",
"532 0 LINE",
"484 -28 OFFCURVE",
"461 -68 OFFCURVE",
"461 -105 CURVE SMOOTH",
"461 -172 OFFCURVE",
"513 -215 OFFCURVE",
"593 -215 CURVE SMOOTH"
);
}
);
width = 726;
}
);
note = Eogonek;
unicode = 0118;
},
{
glyphname = Etilde;
lastChange = "2015-07-16 19:31:59 +0000";
layers = (
{
layerId = "9EEBCA4B-DAAA-41A9-8636-8F7562732FC0";
name = Bold;
paths = (
{
closed = 1;
nodes = (
"667 0 LINE",
"667 172 LINE SMOOTH",
"667 186 OFFCURVE",
"662 195 OFFCURVE",
"644 195 CURVE SMOOTH",
"624 195 OFFCURVE",
"613 172 OFFCURVE",
"596 125 CURVE SMOOTH",
"584 92 LINE",
"276 92 LINE",
"276 310 LINE",
"503 310 LINE",
"520 274 LINE SMOOTH",
"532 249 OFFCURVE",
"542 237 OFFCURVE",
"555 237 CURVE SMOOTH",
"571 237 OFFCURVE",
"576 247 OFFCURVE",
"576 257 CURVE SMOOTH",
"576 453 LINE SMOOTH",
"576 463 OFFCURVE",
"571 473 OFFCURVE",
"555 473 CURVE SMOOTH",
"542 473 OFFCURVE",
"532 461 OFFCURVE",
"520 436 CURVE SMOOTH",
"503 400 LINE",
"276 400 LINE",
"276 603 LINE",
"569 603 LINE",
"581 570 LINE SMOOTH",
"598 523 OFFCURVE",
"609 500 OFFCURVE",
"629 500 CURVE SMOOTH",
"647 500 OFFCURVE",
"652 509 OFFCURVE",
"652 523 CURVE SMOOTH",
"652 695 LINE",
"69 695 LINE SMOOTH",
"57 695 OFFCURVE",
"47 687 OFFCURVE",
"47 666 CURVE SMOOTH",
"47 636 OFFCURVE",
"67 625 OFFCURVE",
"113 607 CURVE SMOOTH",
"126 602 LINE",
"126 93 LINE",
"113 88 LINE SMOOTH",
"67 70 OFFCURVE",
"47 59 OFFCURVE",
"47 29 CURVE SMOOTH",
"47 8 OFFCURVE",
"57 0 OFFCURVE",
"69 0 CURVE SMOOTH"
);
},
{
closed = 1;
nodes = (
"480 765 OFFCURVE",
"518 784 OFFCURVE",
"551 818 CURVE",
"504 885 LINE",
"484 870 OFFCURVE",
"466 862 OFFCURVE",
"445 862 CURVE SMOOTH",
"399 862 OFFCURVE",
"362 903 OFFCURVE",
"314 903 CURVE SMOOTH",
"280 903 OFFCURVE",
"238 880 OFFCURVE",
"205 850 CURVE",
"252 782 LINE",
"271 796 OFFCURVE",
"288 806 OFFCURVE",
"314 806 CURVE SMOOTH",
"360 806 OFFCURVE",
"397 765 OFFCURVE",
"446 765 CURVE SMOOTH"
);
}
);
width = 726;
}
);
note = Etilde;
unicode = 1EBC;
},
{
glyphname = F;
lastChange = "2015-07-16 19:31:59 +0000";
layers = (
{
layerId = "9EEBCA4B-DAAA-41A9-8636-8F7562732FC0";
name = Bold;
paths = (
{
closed = 1;
nodes = (
"339 0 LINE SMOOTH",
"354 0 OFFCURVE",
"358 7 OFFCURVE",
"358 20 CURVE SMOOTH",
"358 40 OFFCURVE",
"345 50 OFFCURVE",
"314 65 CURVE SMOOTH",
"276 84 LINE",
"276 282 LINE",
"476 282 LINE",
"493 246 LINE SMOOTH",
"505 221 OFFCURVE",
"515 209 OFFCURVE",
"528 209 CURVE SMOOTH",
"544 209 OFFCURVE",
"549 219 OFFCURVE",
"549 229 CURVE SMOOTH",
"549 429 LINE SMOOTH",
"549 439 OFFCURVE",
"544 449 OFFCURVE",
"528 449 CURVE SMOOTH",
"515 449 OFFCURVE",
"505 437 OFFCURVE",
"493 412 CURVE SMOOTH",
"476 376 LINE",
"276 376 LINE",
"276 601 LINE",
"542 601 LINE",
"554 568 LINE SMOOTH",
"571 521 OFFCURVE",
"582 498 OFFCURVE",
"602 498 CURVE SMOOTH",
"620 498 OFFCURVE",
"625 507 OFFCURVE",
"625 521 CURVE SMOOTH",
"625 695 LINE",
"69 695 LINE SMOOTH",
"57 695 OFFCURVE",
"47 687 OFFCURVE",
"47 666 CURVE SMOOTH",
"47 636 OFFCURVE",
"67 625 OFFCURVE",
"113 607 CURVE SMOOTH",
"126 602 LINE",
"126 85 LINE",
"117 85 LINE SMOOTH",
"77 85 OFFCURVE",
"51 69 OFFCURVE",
"51 35 CURVE SMOOTH",
"51 13 OFFCURVE",
"61 0 OFFCURVE",
"80 0 CURVE SMOOTH"
);
}
);
width = 679;
}
);
note = F;
unicode = 0046;
},
{
glyphname = G;
lastChange = "2015-07-16 19:31:59 +0000";
layers = (
{
layerId = "9EEBCA4B-DAAA-41A9-8636-8F7562732FC0";
name = Bold;
paths = (
{
closed = 1;
nodes = (
"487 -15 OFFCURVE",
"572 1 OFFCURVE",
"637 33 CURVE",
"637 272 LINE",
"670 291 LINE SMOOTH",
"700 308 OFFCURVE",
"712 316 OFFCURVE",
"712 336 CURVE SMOOTH",
"712 349 OFFCURVE",
"706 356 OFFCURVE",
"694 356 CURVE SMOOTH",
"458 356 LINE SMOOTH",
"419 356 OFFCURVE",
"392 340 OFFCURVE",
"392 306 CURVE SMOOTH",
"392 284 OFFCURVE",
"402 271 OFFCURVE",
"421 271 CURVE SMOOTH",
"487 271 LINE",
"487 90 LINE",
"467 83 OFFCURVE",
"442 79 OFFCURVE",
"415 79 CURVE SMOOTH",
"293 79 OFFCURVE",
"191 168 OFFCURVE",
"191 349 CURVE SMOOTH",
"191 529 OFFCURVE",
"283 616 OFFCURVE",
"411 616 CURVE SMOOTH",
"470 616 OFFCURVE",
"512 600 OFFCURVE",
"532 590 CURVE",
"553 521 LINE SMOOTH",
"565 481 OFFCURVE",
"576 463 OFFCURVE",
"602 463 CURVE SMOOTH",
"623 463 OFFCURVE",
"627 475 OFFCURVE",
"627 489 CURVE SMOOTH",
"627 633 LINE",
"578 673 OFFCURVE",
"496 710 OFFCURVE",
"381 710 CURVE SMOOTH",
"205 710 OFFCURVE",
"39 590 OFFCURVE",
"39 349 CURVE SMOOTH",
"39 93 OFFCURVE",
"217 -15 OFFCURVE",
"410 -15 CURVE SMOOTH"
);
}
);
width = 744;
}
);
note = G;
unicode = 0047;
},
{
glyphname = Gbreve;
lastChange = "2015-07-16 19:31:59 +0000";
layers = (
{
layerId = "9EEBCA4B-DAAA-41A9-8636-8F7562732FC0";
name = Bold;
paths = (
{
closed = 1;
nodes = (
"487 -15 OFFCURVE",
"572 1 OFFCURVE",
"637 33 CURVE",
"637 272 LINE",
"670 291 LINE SMOOTH",
"700 308 OFFCURVE",
"712 316 OFFCURVE",
"712 336 CURVE SMOOTH",
"712 349 OFFCURVE",
"706 356 OFFCURVE",
"694 356 CURVE SMOOTH",
"458 356 LINE SMOOTH",
"419 356 OFFCURVE",
"392 340 OFFCURVE",
"392 306 CURVE SMOOTH",
"392 284 OFFCURVE",
"402 271 OFFCURVE",
"421 271 CURVE SMOOTH",
"487 271 LINE",
"487 90 LINE",
"467 83 OFFCURVE",
"442 79 OFFCURVE",
"415 79 CURVE SMOOTH",
"293 79 OFFCURVE",
"191 168 OFFCURVE",
"191 349 CURVE SMOOTH",
"191 529 OFFCURVE",
"283 616 OFFCURVE",
"411 616 CURVE SMOOTH",
"470 616 OFFCURVE",
"512 600 OFFCURVE",
"532 590 CURVE",
"553 521 LINE SMOOTH",
"565 481 OFFCURVE",
"576 463 OFFCURVE",
"602 463 CURVE SMOOTH",
"623 463 OFFCURVE",
"627 475 OFFCURVE",
"627 489 CURVE SMOOTH",
"627 633 LINE",
"578 673 OFFCURVE",
"496 710 OFFCURVE",
"381 710 CURVE SMOOTH",
"205 710 OFFCURVE",
"39 590 OFFCURVE",
"39 349 CURVE SMOOTH",
"39 93 OFFCURVE",
"217 -15 OFFCURVE",
"410 -15 CURVE SMOOTH"
);
},
{
closed = 1;
nodes = (
"456 747 OFFCURVE",
"527 787 OFFCURVE",
"556 891 CURVE",
"481 917 LINE",
"463 867 OFFCURVE",
"426 841 OFFCURVE",
"381 841 CURVE SMOOTH",
"336 841 OFFCURVE",
"299 867 OFFCURVE",
"281 917 CURVE",
"206 891 LINE",
"235 787 OFFCURVE",
"306 747 OFFCURVE",
"381 747 CURVE SMOOTH"
);
}
);
width = 744;
}
);
note = Gbreve;
unicode = 011E;
},
{
glyphname = Gcaron;
lastChange = "2015-07-16 19:31:59 +0000";
layers = (
{
layerId = "9EEBCA4B-DAAA-41A9-8636-8F7562732FC0";
name = Bold;
paths = (
{
closed = 1;
nodes = (
"487 -15 OFFCURVE",
"572 1 OFFCURVE",
"637 33 CURVE",
"637 272 LINE",
"670 291 LINE SMOOTH",
"700 308 OFFCURVE",
"712 316 OFFCURVE",
"712 336 CURVE SMOOTH",
"712 349 OFFCURVE",
"706 356 OFFCURVE",
"694 356 CURVE SMOOTH",
"458 356 LINE SMOOTH",
"419 356 OFFCURVE",
"392 340 OFFCURVE",
"392 306 CURVE SMOOTH",
"392 284 OFFCURVE",
"402 271 OFFCURVE",
"421 271 CURVE SMOOTH",
"487 271 LINE",
"487 90 LINE",
"467 83 OFFCURVE",
"442 79 OFFCURVE",
"415 79 CURVE SMOOTH",
"293 79 OFFCURVE",
"191 168 OFFCURVE",
"191 349 CURVE SMOOTH",
"191 529 OFFCURVE",
"283 616 OFFCURVE",
"411 616 CURVE SMOOTH",
"470 616 OFFCURVE",
"512 600 OFFCURVE",
"532 590 CURVE",
"553 521 LINE SMOOTH",
"565 481 OFFCURVE",
"576 463 OFFCURVE",
"602 463 CURVE SMOOTH",
"623 463 OFFCURVE",
"627 475 OFFCURVE",
"627 489 CURVE SMOOTH",
"627 633 LINE",
"578 673 OFFCURVE",
"496 710 OFFCURVE",
"381 710 CURVE SMOOTH",
"205 710 OFFCURVE",
"39 590 OFFCURVE",
"39 349 CURVE SMOOTH",
"39 93 OFFCURVE",
"217 -15 OFFCURVE",
"410 -15 CURVE SMOOTH"
);
},
{
closed = 1;
nodes = (
"419 754 LINE",
"544 917 LINE",
"483 971 LINE",
"386 860 LINE",
"289 971 LINE",
"228 917 LINE",
"353 754 LINE"
);
}
);
width = 744;
}
);
note = Gcaron;
unicode = 01E6;
},
{
glyphname = Gcircumflex;
lastChange = "2015-07-16 19:32:00 +0000";
layers = (
{
layerId = "9EEBCA4B-DAAA-41A9-8636-8F7562732FC0";
name = Bold;
paths = (
{
closed = 1;
nodes = (
"487 -15 OFFCURVE",
"572 1 OFFCURVE",
"637 33 CURVE",
"637 272 LINE",
"670 291 LINE SMOOTH",
"700 308 OFFCURVE",
"712 316 OFFCURVE",
"712 336 CURVE SMOOTH",
"712 349 OFFCURVE",
"706 356 OFFCURVE",
"694 356 CURVE SMOOTH",
"458 356 LINE SMOOTH",
"419 356 OFFCURVE",
"392 340 OFFCURVE",
"392 306 CURVE SMOOTH",
"392 284 OFFCURVE",
"402 271 OFFCURVE",
"421 271 CURVE SMOOTH",
"487 271 LINE",
"487 90 LINE",
"467 83 OFFCURVE",
"442 79 OFFCURVE",
"415 79 CURVE SMOOTH",
"293 79 OFFCURVE",
"191 168 OFFCURVE",
"191 349 CURVE SMOOTH",
"191 529 OFFCURVE",
"283 616 OFFCURVE",
"411 616 CURVE SMOOTH",
"470 616 OFFCURVE",
"512 600 OFFCURVE",
"532 590 CURVE",
"553 521 LINE SMOOTH",
"565 481 OFFCURVE",
"576 463 OFFCURVE",
"602 463 CURVE SMOOTH",
"623 463 OFFCURVE",
"627 475 OFFCURVE",
"627 489 CURVE SMOOTH",
"627 633 LINE",
"578 673 OFFCURVE",
"496 710 OFFCURVE",
"381 710 CURVE SMOOTH",
"205 710 OFFCURVE",
"39 590 OFFCURVE",
"39 349 CURVE SMOOTH",
"39 93 OFFCURVE",
"217 -15 OFFCURVE",
"410 -15 CURVE SMOOTH"
);
},
{
closed = 1;
nodes = (
"383 865 LINE",
"480 754 LINE",
"541 808 LINE",
"416 971 LINE",
"350 971 LINE",
"225 808 LINE",
"286 754 LINE"
);
}
);
width = 744;
}
);
note = Gcircumflex;
unicode = 011C;
},
{
glyphname = Gcommaaccent;
lastChange = "2015-07-16 19:31:59 +0000";
layers = (
{
layerId = "9EEBCA4B-DAAA-41A9-8636-8F7562732FC0";
name = Bold;
paths = (
{
closed = 1;
nodes = (
"487 -15 OFFCURVE",
"572 1 OFFCURVE",
"637 33 CURVE",
"637 272 LINE",
"670 291 LINE SMOOTH",
"700 308 OFFCURVE",
"712 316 OFFCURVE",
"712 336 CURVE SMOOTH",
"712 349 OFFCURVE",
"706 356 OFFCURVE",
"694 356 CURVE SMOOTH",
"458 356 LINE SMOOTH",
"419 356 OFFCURVE",
"392 340 OFFCURVE",
"392 306 CURVE SMOOTH",
"392 284 OFFCURVE",
"402 271 OFFCURVE",
"421 271 CURVE SMOOTH",
"487 271 LINE",
"487 90 LINE",
"467 83 OFFCURVE",
"442 79 OFFCURVE",
"415 79 CURVE SMOOTH",
"293 79 OFFCURVE",
"191 168 OFFCURVE",
"191 349 CURVE SMOOTH",
"191 529 OFFCURVE",
"283 616 OFFCURVE",
"411 616 CURVE SMOOTH",
"470 616 OFFCURVE",
"512 600 OFFCURVE",
"532 590 CURVE",
"553 521 LINE SMOOTH",
"565 481 OFFCURVE",
"576 463 OFFCURVE",
"602 463 CURVE SMOOTH",
"623 463 OFFCURVE",
"627 475 OFFCURVE",
"627 489 CURVE SMOOTH",
"627 633 LINE",
"578 673 OFFCURVE",
"496 710 OFFCURVE",
"381 710 CURVE SMOOTH",
"205 710 OFFCURVE",
"39 590 OFFCURVE",
"39 349 CURVE SMOOTH",
"39 93 OFFCURVE",
"217 -15 OFFCURVE",
"410 -15 CURVE SMOOTH"
);
},
{
closed = 1;
nodes = (
"409 -242 OFFCURVE",
"457 -141 OFFCURVE",
"473 -83 CURVE",
"365 -59 LINE SMOOTH",
"331 -51 OFFCURVE",
"308 -66 OFFCURVE",
"308 -94 CURVE SMOOTH",
"308 -108 OFFCURVE",
"316 -115 OFFCURVE",
"328 -119 CURVE SMOOTH",
"354 -127 LINE",
"350 -161 OFFCURVE",
"316 -230 OFFCURVE",
"290 -266 CURVE",
"351 -303 LINE"
);
}
);
width = 744;
}
);
note = Gcommaaccent;
unicode = 0122;
},
{
glyphname = Gdotaccent;
lastChange = "2015-07-16 19:32:00 +0000";
layers = (
{
layerId = "9EEBCA4B-DAAA-41A9-8636-8F7562732FC0";
name = Bold;
paths = (
{
closed = 1;
nodes = (
"487 -15 OFFCURVE",
"572 1 OFFCURVE",
"637 33 CURVE",
"637 272 LINE",
"670 291 LINE SMOOTH",
"700 308 OFFCURVE",
"712 316 OFFCURVE",
"712 336 CURVE SMOOTH",
"712 349 OFFCURVE",
"706 356 OFFCURVE",
"694 356 CURVE SMOOTH",
"458 356 LINE SMOOTH",
"419 356 OFFCURVE",
"392 340 OFFCURVE",
"392 306 CURVE SMOOTH",
"392 284 OFFCURVE",
"402 271 OFFCURVE",
"421 271 CURVE SMOOTH",
"487 271 LINE",
"487 90 LINE",
"467 83 OFFCURVE",
"442 79 OFFCURVE",
"415 79 CURVE SMOOTH",
"293 79 OFFCURVE",
"191 168 OFFCURVE",
"191 349 CURVE SMOOTH",
"191 529 OFFCURVE",
"283 616 OFFCURVE",
"411 616 CURVE SMOOTH",
"470 616 OFFCURVE",
"512 600 OFFCURVE",
"532 590 CURVE",
"553 521 LINE SMOOTH",
"565 481 OFFCURVE",
"576 463 OFFCURVE",
"602 463 CURVE SMOOTH",
"623 463 OFFCURVE",
"627 475 OFFCURVE",
"627 489 CURVE SMOOTH",
"627 633 LINE",
"578 673 OFFCURVE",
"496 710 OFFCURVE",
"381 710 CURVE SMOOTH",
"205 710 OFFCURVE",
"39 590 OFFCURVE",
"39 349 CURVE SMOOTH",
"39 93 OFFCURVE",
"217 -15 OFFCURVE",
"410 -15 CURVE SMOOTH"
);
},
{
closed = 1;
nodes = (
"423 772 OFFCURVE",
"455 802 OFFCURVE",
"455 843 CURVE SMOOTH",
"455 884 OFFCURVE",
"423 914 OFFCURVE",
"385 914 CURVE SMOOTH",
"346 914 OFFCURVE",
"314 884 OFFCURVE",
"314 843 CURVE SMOOTH",
"314 802 OFFCURVE",
"346 772 OFFCURVE",
"385 772 CURVE SMOOTH"
);
}
);
width = 744;
}
);
note = Gdotaccent;
unicode = 0120;
},
{
glyphname = Gmacron;
lastChange = "2015-07-16 19:31:59 +0000";
layers = (
{
layerId = "9EEBCA4B-DAAA-41A9-8636-8F7562732FC0";
name = Bold;
paths = (
{
closed = 1;
nodes = (
"487 -15 OFFCURVE",
"572 1 OFFCURVE",
"637 33 CURVE",
"637 272 LINE",
"670 291 LINE SMOOTH",
"700 308 OFFCURVE",
"712 316 OFFCURVE",
"712 336 CURVE SMOOTH",
"712 349 OFFCURVE",
"706 356 OFFCURVE",
"694 356 CURVE SMOOTH",
"458 356 LINE SMOOTH",
"419 356 OFFCURVE",
"392 340 OFFCURVE",
"392 306 CURVE SMOOTH",
"392 284 OFFCURVE",
"402 271 OFFCURVE",
"421 271 CURVE SMOOTH",
"487 271 LINE",
"487 90 LINE",
"467 83 OFFCURVE",
"442 79 OFFCURVE",
"415 79 CURVE SMOOTH",
"293 79 OFFCURVE",
"191 168 OFFCURVE",
"191 349 CURVE SMOOTH",
"191 529 OFFCURVE",
"283 616 OFFCURVE",
"411 616 CURVE SMOOTH",
"470 616 OFFCURVE",
"512 600 OFFCURVE",
"532 590 CURVE",
"553 521 LINE SMOOTH",
"565 481 OFFCURVE",
"576 463 OFFCURVE",
"602 463 CURVE SMOOTH",
"623 463 OFFCURVE",
"627 475 OFFCURVE",
"627 489 CURVE SMOOTH",
"627 633 LINE",
"578 673 OFFCURVE",
"496 710 OFFCURVE",
"381 710 CURVE SMOOTH",
"205 710 OFFCURVE",
"39 590 OFFCURVE",
"39 349 CURVE SMOOTH",
"39 93 OFFCURVE",
"217 -15 OFFCURVE",
"410 -15 CURVE SMOOTH"
);
},
{
closed = 1;
nodes = (
"536 788 LINE",
"536 882 LINE",
"236 882 LINE",
"236 788 LINE"
);
}
);
width = 744;
}
);
note = Gmacron;
unicode = 1E20;
},
{
glyphname = H;
lastChange = "2015-07-16 19:31:59 +0000";
layers = (
{
layerId = "9EEBCA4B-DAAA-41A9-8636-8F7562732FC0";
name = Bold;
paths = (
{
closed = 1;
nodes = (
"335 0 LINE SMOOTH",
"350 0 OFFCURVE",
"354 7 OFFCURVE",
"354 20 CURVE SMOOTH",
"354 40 OFFCURVE",
"341 50 OFFCURVE",
"310 65 CURVE SMOOTH",
"272 84 LINE",
"272 314 LINE",
"573 314 LINE",
"573 85 LINE",
"559 85 LINE SMOOTH",
"520 85 OFFCURVE",
"493 69 OFFCURVE",
"493 35 CURVE SMOOTH",
"493 13 OFFCURVE",
"503 0 OFFCURVE",
"522 0 CURVE SMOOTH",
"782 0 LINE SMOOTH",
"796 0 OFFCURVE",
"800 8 OFFCURVE",
"800 20 CURVE SMOOTH",
"800 40 OFFCURVE",
"788 49 OFFCURVE",
"765 61 CURVE SMOOTH",
"723 84 LINE",
"723 611 LINE",
"765 634 LINE SMOOTH",
"788 646 OFFCURVE",
"800 655 OFFCURVE",
"800 675 CURVE SMOOTH",
"800 687 OFFCURVE",
"796 695 OFFCURVE",
"782 695 CURVE SMOOTH",
"559 695 LINE SMOOTH",
"520 695 OFFCURVE",
"493 679 OFFCURVE",
"493 645 CURVE SMOOTH",
"493 623 OFFCURVE",
"503 610 OFFCURVE",
"522 610 CURVE SMOOTH",
"573 610 LINE",
"573 408 LINE",
"272 408 LINE",
"272 611 LINE",
"310 630 LINE SMOOTH",
"341 645 OFFCURVE",
"354 655 OFFCURVE",
"354 675 CURVE SMOOTH",
"354 688 OFFCURVE",
"350 695 OFFCURVE",
"335 695 CURVE SMOOTH",
"113 695 LINE SMOOTH",
"74 695 OFFCURVE",
"47 679 OFFCURVE",
"47 645 CURVE SMOOTH",
"47 623 OFFCURVE",
"57 610 OFFCURVE",
"76 610 CURVE SMOOTH",
"122 610 LINE",
"122 85 LINE",
"113 85 LINE SMOOTH",
"73 85 OFFCURVE",
"47 69 OFFCURVE",
"47 35 CURVE SMOOTH",
"47 13 OFFCURVE",
"57 0 OFFCURVE",
"76 0 CURVE SMOOTH"
);
}
);
width = 847;
}
);
note = H;
unicode = 0048;
},
{
glyphname = Hbar;
lastChange = "2015-07-16 19:31:59 +0000";
layers = (
{
layerId = "9EEBCA4B-DAAA-41A9-8636-8F7562732FC0";
name = Bold;
paths = (
{
closed = 1;
nodes = (
"336 0 LINE SMOOTH",
"351 0 OFFCURVE",
"355 7 OFFCURVE",
"355 20 CURVE SMOOTH",
"355 40 OFFCURVE",
"342 50 OFFCURVE",
"311 65 CURVE SMOOTH",
"273 84 LINE",
"273 314 LINE",
"574 314 LINE",
"574 85 LINE",
"560 85 LINE SMOOTH",
"521 85 OFFCURVE",
"494 69 OFFCURVE",
"494 35 CURVE SMOOTH",
"494 13 OFFCURVE",
"504 0 OFFCURVE",
"523 0 CURVE SMOOTH",
"783 0 LINE SMOOTH",
"797 0 OFFCURVE",
"801 8 OFFCURVE",
"801 20 CURVE SMOOTH",
"801 40 OFFCURVE",
"789 49 OFFCURVE",
"766 61 CURVE SMOOTH",
"724 84 LINE",
"724 464 LINE",
"801 464 LINE",
"801 554 LINE",
"724 554 LINE",
"724 611 LINE",
"766 634 LINE SMOOTH",
"789 646 OFFCURVE",
"801 655 OFFCURVE",
"801 675 CURVE SMOOTH",
"801 687 OFFCURVE",
"797 695 OFFCURVE",
"783 695 CURVE SMOOTH",
"560 695 LINE SMOOTH",
"521 695 OFFCURVE",
"494 679 OFFCURVE",
"494 645 CURVE SMOOTH",
"494 623 OFFCURVE",
"504 610 OFFCURVE",
"523 610 CURVE SMOOTH",
"574 610 LINE",
"574 554 LINE",
"273 554 LINE",
"273 611 LINE",
"311 630 LINE SMOOTH",
"342 645 OFFCURVE",
"355 655 OFFCURVE",
"355 675 CURVE SMOOTH",
"355 688 OFFCURVE",
"351 695 OFFCURVE",
"336 695 CURVE SMOOTH",
"114 695 LINE SMOOTH",
"75 695 OFFCURVE",
"48 679 OFFCURVE",
"48 645 CURVE SMOOTH",
"48 623 OFFCURVE",
"58 610 OFFCURVE",
"77 610 CURVE SMOOTH",
"123 610 LINE",
"123 554 LINE",
"48 554 LINE",
"48 464 LINE",
"123 464 LINE",
"123 85 LINE",
"114 85 LINE SMOOTH",
"75 85 OFFCURVE",
"48 69 OFFCURVE",
"48 35 CURVE SMOOTH",
"48 13 OFFCURVE",
"58 0 OFFCURVE",
"77 0 CURVE SMOOTH"
);
},
{
closed = 1;
nodes = (
"273 464 LINE",
"574 464 LINE",
"574 408 LINE",
"273 408 LINE"
);
}
);
width = 849;
}
);
note = Hbar;
unicode = 0126;
},
{
glyphname = Hbrevebelow;
lastChange = "2015-07-16 19:32:00 +0000";
layers = (
{
layerId = "9EEBCA4B-DAAA-41A9-8636-8F7562732FC0";
name = Bold;
paths = (
{
closed = 1;
nodes = (
"335 0 LINE SMOOTH",
"350 0 OFFCURVE",
"354 7 OFFCURVE",
"354 20 CURVE SMOOTH",
"354 40 OFFCURVE",
"341 50 OFFCURVE",
"310 65 CURVE SMOOTH",
"272 84 LINE",
"272 314 LINE",
"573 314 LINE",
"573 85 LINE",
"559 85 LINE SMOOTH",
"520 85 OFFCURVE",
"493 69 OFFCURVE",
"493 35 CURVE SMOOTH",
"493 13 OFFCURVE",
"503 0 OFFCURVE",
"522 0 CURVE SMOOTH",
"782 0 LINE SMOOTH",
"796 0 OFFCURVE",
"800 8 OFFCURVE",
"800 20 CURVE SMOOTH",
"800 40 OFFCURVE",
"788 49 OFFCURVE",
"765 61 CURVE SMOOTH",
"723 84 LINE",
"723 611 LINE",
"765 634 LINE SMOOTH",
"788 646 OFFCURVE",
"800 655 OFFCURVE",
"800 675 CURVE SMOOTH",
"800 687 OFFCURVE",
"796 695 OFFCURVE",
"782 695 CURVE SMOOTH",
"559 695 LINE SMOOTH",
"520 695 OFFCURVE",
"493 679 OFFCURVE",
"493 645 CURVE SMOOTH",
"493 623 OFFCURVE",
"503 610 OFFCURVE",
"522 610 CURVE SMOOTH",
"573 610 LINE",
"573 408 LINE",
"272 408 LINE",
"272 611 LINE",
"310 630 LINE SMOOTH",
"341 645 OFFCURVE",
"354 655 OFFCURVE",
"354 675 CURVE SMOOTH",
"354 688 OFFCURVE",
"350 695 OFFCURVE",
"335 695 CURVE SMOOTH",
"113 695 LINE SMOOTH",
"74 695 OFFCURVE",
"47 679 OFFCURVE",
"47 645 CURVE SMOOTH",
"47 623 OFFCURVE",
"57 610 OFFCURVE",
"76 610 CURVE SMOOTH",
"122 610 LINE",
"122 85 LINE",
"113 85 LINE SMOOTH",
"74 85 OFFCURVE",
"47 69 OFFCURVE",
"47 35 CURVE SMOOTH",
"47 13 OFFCURVE",
"57 0 OFFCURVE",
"76 0 CURVE SMOOTH"
);
},
{
closed = 1;
nodes = (
"500 -236 OFFCURVE",
"571 -196 OFFCURVE",
"600 -92 CURVE",
"525 -66 LINE",
"507 -116 OFFCURVE",
"470 -142 OFFCURVE",
"425 -142 CURVE SMOOTH",
"380 -142 OFFCURVE",
"343 -116 OFFCURVE",
"325 -66 CURVE",
"250 -92 LINE",
"279 -196 OFFCURVE",
"350 -236 OFFCURVE",
"425 -236 CURVE SMOOTH"
);
}
);
width = 847;
}
);
note = Hbrevebelow;
unicode = 1E2A;
},
{
glyphname = Hcircumflex;
lastChange = "2015-07-16 19:31:59 +0000";
layers = (
{
layerId = "9EEBCA4B-DAAA-41A9-8636-8F7562732FC0";
name = Bold;
paths = (
{
closed = 1;
nodes = (
"335 0 LINE SMOOTH",
"350 0 OFFCURVE",
"354 7 OFFCURVE",
"354 20 CURVE SMOOTH",
"354 40 OFFCURVE",
"341 50 OFFCURVE",
"310 65 CURVE SMOOTH",
"272 84 LINE",
"272 314 LINE",
"573 314 LINE",
"573 85 LINE",
"559 85 LINE SMOOTH",
"520 85 OFFCURVE",
"493 69 OFFCURVE",
"493 35 CURVE SMOOTH",
"493 13 OFFCURVE",
"503 0 OFFCURVE",
"522 0 CURVE SMOOTH",
"782 0 LINE SMOOTH",
"796 0 OFFCURVE",
"800 8 OFFCURVE",
"800 20 CURVE SMOOTH",
"800 40 OFFCURVE",
"788 49 OFFCURVE",
"765 61 CURVE SMOOTH",
"723 84 LINE",
"723 611 LINE",
"765 634 LINE SMOOTH",
"788 646 OFFCURVE",
"800 655 OFFCURVE",
"800 675 CURVE SMOOTH",
"800 687 OFFCURVE",
"796 695 OFFCURVE",
"782 695 CURVE SMOOTH",
"559 695 LINE SMOOTH",
"520 695 OFFCURVE",
"493 679 OFFCURVE",
"493 645 CURVE SMOOTH",
"493 623 OFFCURVE",
"503 610 OFFCURVE",
"522 610 CURVE SMOOTH",
"573 610 LINE",
"573 408 LINE",
"272 408 LINE",
"272 611 LINE",
"310 630 LINE SMOOTH",
"341 645 OFFCURVE",
"354 655 OFFCURVE",
"354 675 CURVE SMOOTH",
"354 688 OFFCURVE",
"350 695 OFFCURVE",
"335 695 CURVE SMOOTH",
"113 695 LINE SMOOTH",
"74 695 OFFCURVE",
"47 679 OFFCURVE",
"47 645 CURVE SMOOTH",
"47 623 OFFCURVE",
"57 610 OFFCURVE",
"76 610 CURVE SMOOTH",
"122 610 LINE",
"122 85 LINE",
"113 85 LINE SMOOTH",
"74 85 OFFCURVE",
"47 69 OFFCURVE",
"47 35 CURVE SMOOTH",
"47 13 OFFCURVE",
"57 0 OFFCURVE",
"76 0 CURVE SMOOTH"
);
},
{
closed = 1;
nodes = (
"423 865 LINE",
"520 754 LINE",
"581 808 LINE",
"456 971 LINE",
"390 971 LINE",
"265 808 LINE",
"326 754 LINE"
);
}
);
width = 847;
}
);
note = Hcircumflex;
unicode = 0124;
},
{
glyphname = Hdotbelow;
lastChange = "2015-07-16 19:31:59 +0000";
layers = (
{
layerId = "9EEBCA4B-DAAA-41A9-8636-8F7562732FC0";
name = Bold;
paths = (
{
closed = 1;
nodes = (
"335 0 LINE SMOOTH",
"350 0 OFFCURVE",
"354 7 OFFCURVE",
"354 20 CURVE SMOOTH",
"354 40 OFFCURVE",
"341 50 OFFCURVE",
"310 65 CURVE SMOOTH",
"272 84 LINE",
"272 314 LINE",
"573 314 LINE",
"573 85 LINE",
"559 85 LINE SMOOTH",
"520 85 OFFCURVE",
"493 69 OFFCURVE",
"493 35 CURVE SMOOTH",
"493 13 OFFCURVE",
"503 0 OFFCURVE",
"522 0 CURVE SMOOTH",
"782 0 LINE SMOOTH",
"796 0 OFFCURVE",
"800 8 OFFCURVE",
"800 20 CURVE SMOOTH",
"800 40 OFFCURVE",
"788 49 OFFCURVE",
"765 61 CURVE SMOOTH",
"723 84 LINE",
"723 611 LINE",
"765 634 LINE SMOOTH",
"788 646 OFFCURVE",
"800 655 OFFCURVE",
"800 675 CURVE SMOOTH",
"800 687 OFFCURVE",
"796 695 OFFCURVE",
"782 695 CURVE SMOOTH",
"559 695 LINE SMOOTH",
"520 695 OFFCURVE",
"493 679 OFFCURVE",
"493 645 CURVE SMOOTH",
"493 623 OFFCURVE",
"503 610 OFFCURVE",
"522 610 CURVE SMOOTH",
"573 610 LINE",
"573 408 LINE",
"272 408 LINE",
"272 611 LINE",
"310 630 LINE SMOOTH",
"341 645 OFFCURVE",
"354 655 OFFCURVE",
"354 675 CURVE SMOOTH",
"354 688 OFFCURVE",
"350 695 OFFCURVE",
"335 695 CURVE SMOOTH",
"113 695 LINE SMOOTH",
"74 695 OFFCURVE",
"47 679 OFFCURVE",
"47 645 CURVE SMOOTH",
"47 623 OFFCURVE",
"57 610 OFFCURVE",
"76 610 CURVE SMOOTH",
"122 610 LINE",
"122 85 LINE",
"113 85 LINE SMOOTH",
"74 85 OFFCURVE",
"47 69 OFFCURVE",
"47 35 CURVE SMOOTH",
"47 13 OFFCURVE",
"57 0 OFFCURVE",
"76 0 CURVE SMOOTH"
);
},
{
closed = 1;
nodes = (
"467 -208 OFFCURVE",
"499 -178 OFFCURVE",
"499 -137 CURVE SMOOTH",
"499 -96 OFFCURVE",
"467 -66 OFFCURVE",
"429 -66 CURVE SMOOTH",
"390 -66 OFFCURVE",
"358 -96 OFFCURVE",
"358 -137 CURVE SMOOTH",
"358 -178 OFFCURVE",
"390 -208 OFFCURVE",
"429 -208 CURVE SMOOTH"
);
}
);
width = 847;
}
);
note = Hdotbelow;
unicode = 1E24;
},
{
glyphname = I;
lastChange = "2015-07-16 19:31:59 +0000";
layers = (
{
layerId = "9EEBCA4B-DAAA-41A9-8636-8F7562732FC0";
name = Bold;
paths = (
{
closed = 1;
nodes = (
"340 0 LINE SMOOTH",
"355 0 OFFCURVE",
"359 7 OFFCURVE",
"359 20 CURVE SMOOTH",
"359 40 OFFCURVE",
"346 50 OFFCURVE",
"315 65 CURVE SMOOTH",
"277 84 LINE",
"277 611 LINE",
"315 630 LINE SMOOTH",
"346 645 OFFCURVE",
"359 655 OFFCURVE",
"359 675 CURVE SMOOTH",
"359 688 OFFCURVE",
"355 695 OFFCURVE",
"340 695 CURVE SMOOTH",
"118 695 LINE SMOOTH",
"79 695 OFFCURVE",
"52 679 OFFCURVE",
"52 645 CURVE SMOOTH",
"52 623 OFFCURVE",
"62 610 OFFCURVE",
"81 610 CURVE SMOOTH",
"127 610 LINE",
"127 85 LINE",
"118 85 LINE SMOOTH",
"79 85 OFFCURVE",
"52 69 OFFCURVE",
"52 35 CURVE SMOOTH",
"52 13 OFFCURVE",
"62 0 OFFCURVE",
"81 0 CURVE SMOOTH"
);
}
);
width = 411;
}
);
note = I;
unicode = 0049;
},
{
glyphname = IJ;
lastChange = "2015-07-16 19:31:59 +0000";
layers = (
{
layerId = "9EEBCA4B-DAAA-41A9-8636-8F7562732FC0";
name = Bold;
paths = (
{
closed = 1;
nodes = (
"525 -15 OFFCURVE",
"561 -7 OFFCURVE",
"594 12 CURVE SMOOTH",
"646 42 OFFCURVE",
"726 116 OFFCURVE",
"726 267 CURVE SMOOTH",
"726 611 LINE",
"764 630 LINE SMOOTH",
"795 645 OFFCURVE",
"808 655 OFFCURVE",
"808 675 CURVE SMOOTH",
"808 688 OFFCURVE",
"804 695 OFFCURVE",
"789 695 CURVE SMOOTH",
"547 695 LINE SMOOTH",
"508 695 OFFCURVE",
"481 679 OFFCURVE",
"481 645 CURVE SMOOTH",
"481 623 OFFCURVE",
"491 610 OFFCURVE",
"510 610 CURVE SMOOTH",
"576 610 LINE",
"576 277 LINE SMOOTH",
"576 164 OFFCURVE",
"520 124 OFFCURVE",
"410 84 CURVE",
"414 12 OFFCURVE",
"449 -15 OFFCURVE",
"494 -15 CURVE SMOOTH"
);
},
{
closed = 1;
nodes = (
"340 0 LINE SMOOTH",
"355 0 OFFCURVE",
"359 7 OFFCURVE",
"359 20 CURVE SMOOTH",
"359 40 OFFCURVE",
"346 50 OFFCURVE",
"315 65 CURVE SMOOTH",
"277 84 LINE",
"277 611 LINE",
"315 630 LINE SMOOTH",
"346 645 OFFCURVE",
"359 655 OFFCURVE",
"359 675 CURVE SMOOTH",
"359 688 OFFCURVE",
"355 695 OFFCURVE",
"340 695 CURVE SMOOTH",
"118 695 LINE SMOOTH",
"79 695 OFFCURVE",
"52 679 OFFCURVE",
"52 645 CURVE SMOOTH",
"52 623 OFFCURVE",
"62 610 OFFCURVE",
"81 610 CURVE SMOOTH",
"127 610 LINE",
"127 85 LINE",
"118 85 LINE SMOOTH",
"79 85 OFFCURVE",
"52 69 OFFCURVE",
"52 35 CURVE SMOOTH",
"52 13 OFFCURVE",
"62 0 OFFCURVE",
"81 0 CURVE SMOOTH"
);
}
);
width = 842;
}
);
note = IJ;
unicode = 0132;
},
{
glyphname = Iacute;
lastChange = "2015-07-16 19:31:59 +0000";
layers = (
{
layerId = "9EEBCA4B-DAAA-41A9-8636-8F7562732FC0";
name = Bold;
paths = (
{
closed = 1;
nodes = (
"340 0 LINE SMOOTH",
"355 0 OFFCURVE",
"359 7 OFFCURVE",
"359 20 CURVE SMOOTH",
"359 40 OFFCURVE",
"346 50 OFFCURVE",
"315 65 CURVE SMOOTH",
"277 84 LINE",
"277 611 LINE",
"315 630 LINE SMOOTH",
"346 645 OFFCURVE",
"359 655 OFFCURVE",
"359 675 CURVE SMOOTH",
"359 688 OFFCURVE",
"355 695 OFFCURVE",
"340 695 CURVE SMOOTH",
"118 695 LINE SMOOTH",
"79 695 OFFCURVE",
"52 679 OFFCURVE",
"52 645 CURVE SMOOTH",
"52 623 OFFCURVE",
"62 610 OFFCURVE",
"81 610 CURVE SMOOTH",
"127 610 LINE",
"127 85 LINE",
"118 85 LINE SMOOTH",
"79 85 OFFCURVE",
"52 69 OFFCURVE",
"52 35 CURVE SMOOTH",
"52 13 OFFCURVE",
"62 0 OFFCURVE",
"81 0 CURVE SMOOTH"
);
},
{
closed = 1;
nodes = (
"340 927 LINE",
"235 996 LINE",
"124 808 LINE",
"204 755 LINE"
);
}
);
width = 411;
}
);
note = Iacute;
unicode = 00CD;
},
{
glyphname = Ibreve;
lastChange = "2015-07-16 19:31:59 +0000";
layers = (
{
layerId = "9EEBCA4B-DAAA-41A9-8636-8F7562732FC0";
name = Bold;
paths = (
{
closed = 1;
nodes = (
"330 0 LINE SMOOTH",
"345 0 OFFCURVE",
"349 7 OFFCURVE",
"349 20 CURVE SMOOTH",
"349 40 OFFCURVE",
"336 50 OFFCURVE",
"305 65 CURVE SMOOTH",
"267 84 LINE",
"267 611 LINE",
"305 630 LINE SMOOTH",
"336 645 OFFCURVE",
"349 655 OFFCURVE",
"349 675 CURVE SMOOTH",
"349 688 OFFCURVE",
"345 695 OFFCURVE",
"330 695 CURVE SMOOTH",
"108 695 LINE SMOOTH",
"69 695 OFFCURVE",
"42 679 OFFCURVE",
"42 645 CURVE SMOOTH",
"42 623 OFFCURVE",
"52 610 OFFCURVE",
"71 610 CURVE SMOOTH",
"117 610 LINE",
"117 85 LINE",
"108 85 LINE SMOOTH",
"69 85 OFFCURVE",
"42 69 OFFCURVE",
"42 35 CURVE SMOOTH",
"42 13 OFFCURVE",
"52 0 OFFCURVE",
"71 0 CURVE SMOOTH"
);
},
{
closed = 1;
nodes = (
"261 747 OFFCURVE",
"332 787 OFFCURVE",
"361 891 CURVE",
"286 917 LINE",
"268 867 OFFCURVE",
"231 841 OFFCURVE",
"186 841 CURVE SMOOTH",
"141 841 OFFCURVE",
"104 867 OFFCURVE",
"86 917 CURVE",
"11 891 LINE",
"40 787 OFFCURVE",
"111 747 OFFCURVE",
"186 747 CURVE SMOOTH"
);
}
);
width = 372;
}
);
note = Ibreve;
unicode = 012C;
},
{
glyphname = Icaron;
lastChange = "2015-07-16 19:31:59 +0000";
layers = (
{
layerId = "9EEBCA4B-DAAA-41A9-8636-8F7562732FC0";
name = Bold;
paths = (
{
closed = 1;
nodes = (
"329 0 LINE SMOOTH",
"344 0 OFFCURVE",
"348 7 OFFCURVE",
"348 20 CURVE SMOOTH",
"348 40 OFFCURVE",
"335 50 OFFCURVE",
"304 65 CURVE SMOOTH",
"266 84 LINE",
"266 611 LINE",
"304 630 LINE SMOOTH",
"335 645 OFFCURVE",
"348 655 OFFCURVE",
"348 675 CURVE SMOOTH",
"348 688 OFFCURVE",
"344 695 OFFCURVE",
"329 695 CURVE SMOOTH",
"107 695 LINE SMOOTH",
"68 695 OFFCURVE",
"41 679 OFFCURVE",
"41 645 CURVE SMOOTH",
"41 623 OFFCURVE",
"51 610 OFFCURVE",
"70 610 CURVE SMOOTH",
"116 610 LINE",
"116 85 LINE",
"107 85 LINE SMOOTH",
"68 85 OFFCURVE",
"41 69 OFFCURVE",
"41 35 CURVE SMOOTH",
"41 13 OFFCURVE",
"51 0 OFFCURVE",
"70 0 CURVE SMOOTH"
);
},
{
closed = 1;
nodes = (
"219 754 LINE",
"344 917 LINE",
"283 971 LINE",
"186 860 LINE",
"89 971 LINE",
"28 917 LINE",
"153 754 LINE"
);
}
);
width = 376;
}
);
note = Icaron;
unicode = 01CF;
},
{
glyphname = Icircumflex;
lastChange = "2015-07-16 19:31:59 +0000";
layers = (
{
layerId = "9EEBCA4B-DAAA-41A9-8636-8F7562732FC0";
name = Bold;
paths = (
{
closed = 1;
nodes = (
"330 0 LINE SMOOTH",
"345 0 OFFCURVE",
"349 7 OFFCURVE",
"349 20 CURVE SMOOTH",
"349 40 OFFCURVE",
"336 50 OFFCURVE",
"305 65 CURVE SMOOTH",
"267 84 LINE",
"267 611 LINE",
"305 630 LINE SMOOTH",
"336 645 OFFCURVE",
"349 655 OFFCURVE",
"349 675 CURVE SMOOTH",
"349 688 OFFCURVE",
"345 695 OFFCURVE",
"330 695 CURVE SMOOTH",
"108 695 LINE SMOOTH",
"69 695 OFFCURVE",
"42 679 OFFCURVE",
"42 645 CURVE SMOOTH",
"42 623 OFFCURVE",
"52 610 OFFCURVE",
"71 610 CURVE SMOOTH",
"117 610 LINE",
"117 85 LINE",
"108 85 LINE SMOOTH",
"69 85 OFFCURVE",
"42 69 OFFCURVE",
"42 35 CURVE SMOOTH",
"42 13 OFFCURVE",
"52 0 OFFCURVE",
"71 0 CURVE SMOOTH"
);
},
{
closed = 1;
nodes = (
"186 865 LINE",
"283 754 LINE",
"344 808 LINE",
"219 971 LINE",
"153 971 LINE",
"28 808 LINE",
"89 754 LINE"
);
}
);
width = 375;
}
);
note = Icircumflex;
unicode = 00CE;
},
{
glyphname = Idieresis;
lastChange = "2015-07-16 19:31:59 +0000";
layers = (
{
layerId = "9EEBCA4B-DAAA-41A9-8636-8F7562732FC0";
name = Bold;
paths = (
{
closed = 1;
nodes = (
"327 0 LINE SMOOTH",
"342 0 OFFCURVE",
"346 7 OFFCURVE",
"346 20 CURVE SMOOTH",
"346 40 OFFCURVE",
"333 50 OFFCURVE",
"302 65 CURVE SMOOTH",
"264 84 LINE",
"264 611 LINE",
"302 630 LINE SMOOTH",
"333 645 OFFCURVE",
"346 655 OFFCURVE",
"346 675 CURVE SMOOTH",
"346 688 OFFCURVE",
"342 695 OFFCURVE",
"327 695 CURVE SMOOTH",
"105 695 LINE SMOOTH",
"66 695 OFFCURVE",
"39 679 OFFCURVE",
"39 645 CURVE SMOOTH",
"39 623 OFFCURVE",
"49 610 OFFCURVE",
"68 610 CURVE SMOOTH",
"114 610 LINE",
"114 85 LINE",
"105 85 LINE SMOOTH",
"66 85 OFFCURVE",
"39 69 OFFCURVE",
"39 35 CURVE SMOOTH",
"39 13 OFFCURVE",
"49 0 OFFCURVE",
"68 0 CURVE SMOOTH"
);
},
{
closed = 1;
nodes = (
"122 765 OFFCURVE",
"154 795 OFFCURVE",
"154 836 CURVE SMOOTH",
"154 877 OFFCURVE",
"122 907 OFFCURVE",
"84 907 CURVE SMOOTH",
"45 907 OFFCURVE",
"13 877 OFFCURVE",
"13 836 CURVE SMOOTH",
"13 795 OFFCURVE",
"45 765 OFFCURVE",
"84 765 CURVE SMOOTH"
);
},
{
closed = 1;
nodes = (
"334 765 OFFCURVE",
"366 795 OFFCURVE",
"366 836 CURVE SMOOTH",
"366 877 OFFCURVE",
"334 907 OFFCURVE",
"296 907 CURVE SMOOTH",
"257 907 OFFCURVE",
"225 877 OFFCURVE",
"225 836 CURVE SMOOTH",
"225 795 OFFCURVE",
"257 765 OFFCURVE",
"296 765 CURVE SMOOTH"
);
}
);
width = 379;
}
);
note = Idieresis;
unicode = 00CF;
},
{
glyphname = Idotaccent;
lastChange = "2015-07-16 19:31:59 +0000";
layers = (
{
layerId = "9EEBCA4B-DAAA-41A9-8636-8F7562732FC0";
name = Bold;
paths = (
{
closed = 1;
nodes = (
"342 0 LINE SMOOTH",
"357 0 OFFCURVE",
"361 7 OFFCURVE",
"361 20 CURVE SMOOTH",
"361 40 OFFCURVE",
"348 50 OFFCURVE",
"317 65 CURVE SMOOTH",
"279 84 LINE",
"279 611 LINE",
"317 630 LINE SMOOTH",
"348 645 OFFCURVE",
"361 655 OFFCURVE",
"361 675 CURVE SMOOTH",
"361 688 OFFCURVE",
"357 695 OFFCURVE",
"342 695 CURVE SMOOTH",
"120 695 LINE SMOOTH",
"81 695 OFFCURVE",
"54 679 OFFCURVE",
"54 645 CURVE SMOOTH",
"54 623 OFFCURVE",
"64 610 OFFCURVE",
"83 610 CURVE SMOOTH",
"129 610 LINE",
"129 85 LINE",
"120 85 LINE SMOOTH",
"81 85 OFFCURVE",
"54 69 OFFCURVE",
"54 35 CURVE SMOOTH",
"54 13 OFFCURVE",
"64 0 OFFCURVE",
"83 0 CURVE SMOOTH"
);
},
{
closed = 1;
nodes = (
"247 772 OFFCURVE",
"279 802 OFFCURVE",
"279 843 CURVE SMOOTH",
"279 884 OFFCURVE",
"247 914 OFFCURVE",
"209 914 CURVE SMOOTH",
"170 914 OFFCURVE",
"138 884 OFFCURVE",
"138 843 CURVE SMOOTH",
"138 802 OFFCURVE",
"170 772 OFFCURVE",
"209 772 CURVE SMOOTH"
);
}
);
width = 415;
}
);
note = Idotaccent;
unicode = 0130;
},
{
glyphname = Idotbelow;
lastChange = "2015-07-16 19:31:59 +0000";
layers = (
{
layerId = "9EEBCA4B-DAAA-41A9-8636-8F7562732FC0";
name = Bold;
paths = (
{
closed = 1;
nodes = (
"340 0 LINE SMOOTH",
"355 0 OFFCURVE",
"359 7 OFFCURVE",
"359 20 CURVE SMOOTH",
"359 40 OFFCURVE",
"346 50 OFFCURVE",
"315 65 CURVE SMOOTH",
"277 84 LINE",
"277 611 LINE",
"315 630 LINE SMOOTH",
"346 645 OFFCURVE",
"359 655 OFFCURVE",
"359 675 CURVE SMOOTH",
"359 688 OFFCURVE",
"355 695 OFFCURVE",
"340 695 CURVE SMOOTH",
"118 695 LINE SMOOTH",
"79 695 OFFCURVE",
"52 679 OFFCURVE",
"52 645 CURVE SMOOTH",
"52 623 OFFCURVE",
"62 610 OFFCURVE",
"81 610 CURVE SMOOTH",
"127 610 LINE",
"127 85 LINE",
"118 85 LINE SMOOTH",
"79 85 OFFCURVE",
"52 69 OFFCURVE",
"52 35 CURVE SMOOTH",
"52 13 OFFCURVE",
"62 0 OFFCURVE",
"81 0 CURVE SMOOTH"
);
},
{
closed = 1;
nodes = (
"247 -208 OFFCURVE",
"279 -178 OFFCURVE",
"279 -137 CURVE SMOOTH",
"279 -96 OFFCURVE",
"247 -66 OFFCURVE",
"209 -66 CURVE SMOOTH",
"170 -66 OFFCURVE",
"138 -96 OFFCURVE",
"138 -137 CURVE SMOOTH",
"138 -178 OFFCURVE",
"170 -208 OFFCURVE",
"209 -208 CURVE SMOOTH"
);
}
);
width = 411;
}
);
note = Idotbelow;
unicode = 1ECA;
},
{
glyphname = Igrave;
lastChange = "2015-07-16 19:31:59 +0000";
layers = (
{
layerId = "9EEBCA4B-DAAA-41A9-8636-8F7562732FC0";
name = Bold;
paths = (
{
closed = 1;
nodes = (
"340 0 LINE SMOOTH",
"355 0 OFFCURVE",
"359 7 OFFCURVE",
"359 20 CURVE SMOOTH",
"359 40 OFFCURVE",
"346 50 OFFCURVE",
"315 65 CURVE SMOOTH",
"277 84 LINE",
"277 611 LINE",
"315 630 LINE SMOOTH",
"346 645 OFFCURVE",
"359 655 OFFCURVE",
"359 675 CURVE SMOOTH",
"359 688 OFFCURVE",
"355 695 OFFCURVE",
"340 695 CURVE SMOOTH",
"118 695 LINE SMOOTH",
"79 695 OFFCURVE",
"52 679 OFFCURVE",
"52 645 CURVE SMOOTH",
"52 623 OFFCURVE",
"62 610 OFFCURVE",
"81 610 CURVE SMOOTH",
"127 610 LINE",
"127 85 LINE",
"118 85 LINE SMOOTH",
"79 85 OFFCURVE",
"52 69 OFFCURVE",
"52 35 CURVE SMOOTH",
"52 13 OFFCURVE",
"62 0 OFFCURVE",
"81 0 CURVE SMOOTH"
);
},
{
closed = 1;
nodes = (
"274 808 LINE",
"163 996 LINE",
"58 927 LINE",
"194 755 LINE"
);
}
);
width = 411;
}
);
note = Igrave;
unicode = 00CC;
},
{
glyphname = Ihookabove;
lastChange = "2015-07-16 19:31:59 +0000";
layers = (
{
layerId = "9EEBCA4B-DAAA-41A9-8636-8F7562732FC0";
name = Bold;
paths = (
{
closed = 1;
nodes = (
"342 0 LINE SMOOTH",
"357 0 OFFCURVE",
"361 7 OFFCURVE",
"361 20 CURVE SMOOTH",
"361 40 OFFCURVE",
"348 50 OFFCURVE",
"317 65 CURVE SMOOTH",
"279 84 LINE",
"279 611 LINE",
"317 630 LINE SMOOTH",
"348 645 OFFCURVE",
"361 655 OFFCURVE",
"361 675 CURVE SMOOTH",
"361 688 OFFCURVE",
"357 695 OFFCURVE",
"342 695 CURVE SMOOTH",
"120 695 LINE SMOOTH",
"81 695 OFFCURVE",
"54 679 OFFCURVE",
"54 645 CURVE SMOOTH",
"54 623 OFFCURVE",
"64 610 OFFCURVE",
"83 610 CURVE SMOOTH",
"129 610 LINE",
"129 85 LINE",
"120 85 LINE SMOOTH",
"81 85 OFFCURVE",
"54 69 OFFCURVE",
"54 35 CURVE SMOOTH",
"54 13 OFFCURVE",
"64 0 OFFCURVE",
"83 0 CURVE SMOOTH"
);
},
{
closed = 1;
nodes = (
"222 750 LINE",
"229 799 LINE",
"278 817 OFFCURVE",
"307 849 OFFCURVE",
"307 891 CURVE SMOOTH",
"307 936 OFFCURVE",
"268 977 OFFCURVE",
"198 977 CURVE SMOOTH",
"170 977 OFFCURVE",
"136 967 OFFCURVE",
"117 959 CURVE",
"126 909 LINE",
"148 915 OFFCURVE",
"165 919 OFFCURVE",
"185 919 CURVE SMOOTH",
"209 919 OFFCURVE",
"217 908 OFFCURVE",
"217 890 CURVE SMOOTH",
"217 864 OFFCURVE",
"191 847 OFFCURVE",
"151 832 CURVE",
"159 750 LINE"
);
}
);
width = 438;
}
);
note = Ihookabove;
unicode = 1EC8;
},
{
glyphname = Imacron;
lastChange = "2015-07-16 19:31:59 +0000";
layers = (
{
layerId = "9EEBCA4B-DAAA-41A9-8636-8F7562732FC0";
name = Bold;
paths = (
{
closed = 1;
nodes = (
"292 0 LINE SMOOTH",
"307 0 OFFCURVE",
"311 7 OFFCURVE",
"311 20 CURVE SMOOTH",
"311 40 OFFCURVE",
"298 50 OFFCURVE",
"267 65 CURVE SMOOTH",
"229 84 LINE",
"229 611 LINE",
"267 630 LINE SMOOTH",
"298 645 OFFCURVE",
"311 655 OFFCURVE",
"311 675 CURVE SMOOTH",
"311 688 OFFCURVE",
"307 695 OFFCURVE",
"292 695 CURVE SMOOTH",
"70 695 LINE SMOOTH",
"31 695 OFFCURVE",
"4 679 OFFCURVE",
"4 645 CURVE SMOOTH",
"4 623 OFFCURVE",
"14 610 OFFCURVE",
"33 610 CURVE SMOOTH",
"79 610 LINE",
"79 85 LINE",
"70 85 LINE SMOOTH",
"31 85 OFFCURVE",
"4 69 OFFCURVE",
"4 35 CURVE SMOOTH",
"4 13 OFFCURVE",
"14 0 OFFCURVE",
"33 0 CURVE SMOOTH"
);
},
{
closed = 1;
nodes = (
"305 788 LINE",
"305 882 LINE",
"5 882 LINE",
"5 788 LINE"
);
}
);
width = 315;
}
);
note = Imacron;
unicode = 012A;
},
{
glyphname = Iogonek;
lastChange = "2015-07-16 19:31:59 +0000";
layers = (
{
layerId = "9EEBCA4B-DAAA-41A9-8636-8F7562732FC0";
name = Bold;
paths = (
{
closed = 1;
nodes = (
"213 -215 OFFCURVE",
"242 -209 OFFCURVE",
"264 -197 CURVE",
"253 -139 LINE",
"239 -143 OFFCURVE",
"225 -147 OFFCURVE",
"206 -147 CURVE SMOOTH",
"169 -147 OFFCURVE",
"153 -124 OFFCURVE",
"153 -99 CURVE SMOOTH",
"153 -63 OFFCURVE",
"185 -18 OFFCURVE",
"223 0 CURVE",
"342 0 LINE SMOOTH",
"357 0 OFFCURVE",
"361 7 OFFCURVE",
"361 20 CURVE SMOOTH",
"361 40 OFFCURVE",
"348 50 OFFCURVE",
"317 65 CURVE SMOOTH",
"279 84 LINE",
"279 611 LINE",
"317 630 LINE SMOOTH",
"348 645 OFFCURVE",
"361 655 OFFCURVE",
"361 675 CURVE SMOOTH",
"361 688 OFFCURVE",
"357 695 OFFCURVE",
"342 695 CURVE SMOOTH",
"120 695 LINE SMOOTH",
"81 695 OFFCURVE",
"54 679 OFFCURVE",
"54 645 CURVE SMOOTH",
"54 623 OFFCURVE",
"64 610 OFFCURVE",
"83 610 CURVE SMOOTH",
"129 610 LINE",
"129 85 LINE",
"120 85 LINE SMOOTH",
"81 85 OFFCURVE",
"54 69 OFFCURVE",
"54 35 CURVE SMOOTH",
"54 13 OFFCURVE",
"64 0 OFFCURVE",
"83 0 CURVE SMOOTH",
"129 0 LINE",
"81 -28 OFFCURVE",
"58 -68 OFFCURVE",
"58 -105 CURVE SMOOTH",
"58 -172 OFFCURVE",
"110 -215 OFFCURVE",
"190 -215 CURVE SMOOTH"
);
}
);
width = 414;
}
);
note = Iogonek;
unicode = 012E;
},
{
glyphname = Itilde;
lastChange = "2015-07-16 19:31:59 +0000";
layers = (
{
layerId = "9EEBCA4B-DAAA-41A9-8636-8F7562732FC0";
name = Bold;
paths = (
{
closed = 1;
nodes = (
"325 0 LINE SMOOTH",
"340 0 OFFCURVE",
"344 7 OFFCURVE",
"344 20 CURVE SMOOTH",
"344 40 OFFCURVE",
"331 50 OFFCURVE",
"300 65 CURVE SMOOTH",
"262 84 LINE",
"262 611 LINE",
"300 630 LINE SMOOTH",
"331 645 OFFCURVE",
"344 655 OFFCURVE",
"344 675 CURVE SMOOTH",
"344 688 OFFCURVE",
"340 695 OFFCURVE",
"325 695 CURVE SMOOTH",
"103 695 LINE SMOOTH",
"64 695 OFFCURVE",
"37 679 OFFCURVE",
"37 645 CURVE SMOOTH",
"37 623 OFFCURVE",
"47 610 OFFCURVE",
"66 610 CURVE SMOOTH",
"112 610 LINE",
"112 85 LINE",
"103 85 LINE SMOOTH",
"64 85 OFFCURVE",
"37 69 OFFCURVE",
"37 35 CURVE SMOOTH",
"37 13 OFFCURVE",
"47 0 OFFCURVE",
"66 0 CURVE SMOOTH"
);
},
{
closed = 1;
nodes = (
"285 765 OFFCURVE",
"323 784 OFFCURVE",
"356 818 CURVE",
"309 885 LINE",
"289 870 OFFCURVE",
"271 862 OFFCURVE",
"250 862 CURVE SMOOTH",
"204 862 OFFCURVE",
"167 903 OFFCURVE",
"119 903 CURVE SMOOTH",
"85 903 OFFCURVE",
"43 880 OFFCURVE",
"10 850 CURVE",
"57 782 LINE",
"76 796 OFFCURVE",
"93 806 OFFCURVE",
"119 806 CURVE SMOOTH",
"165 806 OFFCURVE",
"202 765 OFFCURVE",
"251 765 CURVE SMOOTH"
);
}
);
width = 366;
}
);
note = Itilde;
unicode = 0128;
},
{
glyphname = J;
lastChange = "2015-07-16 19:31:59 +0000";
layers = (
{
layerId = "9EEBCA4B-DAAA-41A9-8636-8F7562732FC0";
name = Bold;
paths = (
{
closed = 1;
nodes = (
"142 -15 OFFCURVE",
"178 -7 OFFCURVE",
"211 12 CURVE SMOOTH",
"263 42 OFFCURVE",
"343 116 OFFCURVE",
"343 267 CURVE SMOOTH",
"343 611 LINE",
"381 630 LINE SMOOTH",
"412 645 OFFCURVE",
"425 655 OFFCURVE",
"425 675 CURVE SMOOTH",
"425 688 OFFCURVE",
"421 695 OFFCURVE",
"406 695 CURVE SMOOTH",
"164 695 LINE SMOOTH",
"125 695 OFFCURVE",
"98 679 OFFCURVE",
"98 645 CURVE SMOOTH",
"98 623 OFFCURVE",
"108 610 OFFCURVE",
"127 610 CURVE SMOOTH",
"193 610 LINE",
"193 277 LINE SMOOTH",
"193 164 OFFCURVE",
"137 124 OFFCURVE",
"27 84 CURVE",
"31 12 OFFCURVE",
"66 -15 OFFCURVE",
"111 -15 CURVE SMOOTH"
);
}
);
width = 459;
}
);
note = J;
unicode = 004A;
},
{
glyphname = Jcircumflex;
lastChange = "2015-07-16 19:31:59 +0000";
layers = (
{
layerId = "9EEBCA4B-DAAA-41A9-8636-8F7562732FC0";
name = Bold;
paths = (
{
closed = 1;
nodes = (
"142 -15 OFFCURVE",
"178 -7 OFFCURVE",
"211 12 CURVE SMOOTH",
"263 42 OFFCURVE",
"343 116 OFFCURVE",
"343 267 CURVE SMOOTH",
"343 611 LINE",
"381 630 LINE SMOOTH",
"412 645 OFFCURVE",
"425 655 OFFCURVE",
"425 675 CURVE SMOOTH",
"425 688 OFFCURVE",
"421 695 OFFCURVE",
"406 695 CURVE SMOOTH",
"164 695 LINE SMOOTH",
"125 695 OFFCURVE",
"98 679 OFFCURVE",
"98 645 CURVE SMOOTH",
"98 623 OFFCURVE",
"108 610 OFFCURVE",
"127 610 CURVE SMOOTH",
"193 610 LINE",
"193 277 LINE SMOOTH",
"193 164 OFFCURVE",
"137 124 OFFCURVE",
"27 84 CURVE",
"31 12 OFFCURVE",
"66 -15 OFFCURVE",
"111 -15 CURVE SMOOTH"
);
},
{
closed = 1;
nodes = (
"262 865 LINE",
"359 754 LINE",
"420 808 LINE",
"295 971 LINE",
"229 971 LINE",
"104 808 LINE",
"165 754 LINE"
);
}
);
width = 457;
}
);
note = Jcircumflex;
unicode = 0134;
},
{
glyphname = K;
lastChange = "2015-07-16 19:31:59 +0000";
layers = (
{
layerId = "9EEBCA4B-DAAA-41A9-8636-8F7562732FC0";
name = Bold;
paths = (
{
closed = 1;
nodes = (
"743 0 LINE SMOOTH",
"758 0 OFFCURVE",
"762 8 OFFCURVE",
"762 21 CURVE SMOOTH",
"762 41 OFFCURVE",
"747 53 OFFCURVE",
"715 64 CURVE SMOOTH",
"667 81 LINE",
"429 364 LINE",
"665 611 LINE",
"697 622 LINE SMOOTH",
"729 633 OFFCURVE",
"745 647 OFFCURVE",
"745 667 CURVE SMOOTH",
"745 687 OFFCURVE",
"737 695 OFFCURVE",
"722 695 CURVE SMOOTH",
"510 695 LINE SMOOTH",
"471 695 OFFCURVE",
"444 679 OFFCURVE",
"444 645 CURVE SMOOTH",
"444 623 OFFCURVE",
"454 610 OFFCURVE",
"473 610 CURVE SMOOTH",
"533 610 LINE",
"272 340 LINE",
"535 0 LINE"
);
},
{
closed = 1;
nodes = (
"335 0 LINE SMOOTH",
"347 0 OFFCURVE",
"354 7 OFFCURVE",
"354 20 CURVE SMOOTH",
"354 40 OFFCURVE",
"341 50 OFFCURVE",
"310 65 CURVE SMOOTH",
"272 84 LINE",
"272 611 LINE",
"310 630 LINE SMOOTH",
"341 645 OFFCURVE",
"352 655 OFFCURVE",
"352 675 CURVE SMOOTH",
"352 688 OFFCURVE",
"344 695 OFFCURVE",
"333 695 CURVE SMOOTH",
"113 695 LINE SMOOTH",
"74 695 OFFCURVE",
"47 679 OFFCURVE",
"47 645 CURVE SMOOTH",
"47 623 OFFCURVE",
"57 610 OFFCURVE",
"76 610 CURVE SMOOTH",
"122 610 LINE",
"122 85 LINE",
"113 85 LINE SMOOTH",
"74 85 OFFCURVE",
"47 69 OFFCURVE",
"47 35 CURVE SMOOTH",
"47 13 OFFCURVE",
"57 0 OFFCURVE",
"76 0 CURVE SMOOTH"
);
}
);
width = 762;
}
);
note = K;
unicode = 004B;
},
{
glyphname = Kcommaaccent;
lastChange = "2015-07-16 19:31:59 +0000";
layers = (
{
layerId = "9EEBCA4B-DAAA-41A9-8636-8F7562732FC0";
name = Bold;
paths = (
{
closed = 1;
nodes = (
"743 0 LINE SMOOTH",
"758 0 OFFCURVE",
"762 8 OFFCURVE",
"762 21 CURVE SMOOTH",
"762 41 OFFCURVE",
"747 53 OFFCURVE",
"715 64 CURVE SMOOTH",
"667 81 LINE",
"429 364 LINE",
"665 611 LINE",
"697 622 LINE SMOOTH",
"729 633 OFFCURVE",
"745 647 OFFCURVE",
"745 667 CURVE SMOOTH",
"745 687 OFFCURVE",
"737 695 OFFCURVE",
"722 695 CURVE SMOOTH",
"510 695 LINE SMOOTH",
"471 695 OFFCURVE",
"444 679 OFFCURVE",
"444 645 CURVE SMOOTH",
"444 623 OFFCURVE",
"454 610 OFFCURVE",
"473 610 CURVE SMOOTH",
"533 610 LINE",
"272 340 LINE",
"535 0 LINE"
);
},
{
closed = 1;
nodes = (
"394 -242 OFFCURVE",
"442 -141 OFFCURVE",
"458 -83 CURVE",
"350 -59 LINE SMOOTH",
"316 -51 OFFCURVE",
"293 -66 OFFCURVE",
"293 -94 CURVE SMOOTH",
"293 -108 OFFCURVE",
"301 -115 OFFCURVE",
"313 -119 CURVE SMOOTH",
"339 -127 LINE",
"335 -161 OFFCURVE",
"301 -230 OFFCURVE",
"275 -266 CURVE",
"336 -303 LINE"
);
},
{
closed = 1;
nodes = (
"335 0 LINE SMOOTH",
"347 0 OFFCURVE",
"354 7 OFFCURVE",
"354 20 CURVE SMOOTH",
"354 40 OFFCURVE",
"341 50 OFFCURVE",
"310 65 CURVE SMOOTH",
"272 84 LINE",
"272 611 LINE",
"310 630 LINE SMOOTH",
"341 645 OFFCURVE",
"352 655 OFFCURVE",
"352 675 CURVE SMOOTH",
"352 688 OFFCURVE",
"344 695 OFFCURVE",
"333 695 CURVE SMOOTH",
"113 695 LINE SMOOTH",
"74 695 OFFCURVE",
"47 679 OFFCURVE",
"47 645 CURVE SMOOTH",
"47 623 OFFCURVE",
"57 610 OFFCURVE",
"76 610 CURVE SMOOTH",
"122 610 LINE",
"122 85 LINE",
"113 85 LINE SMOOTH",
"74 85 OFFCURVE",
"47 69 OFFCURVE",
"47 35 CURVE SMOOTH",
"47 13 OFFCURVE",
"57 0 OFFCURVE",
"76 0 CURVE SMOOTH"
);
}
);
width = 762;
}
);
note = Kcommaaccent;
unicode = 0136;
},
{
glyphname = L;
lastChange = "2015-07-16 19:31:59 +0000";
layers = (
{
layerId = "9EEBCA4B-DAAA-41A9-8636-8F7562732FC0";
name = Bold;
paths = (
{
closed = 1;
nodes = (
"637 0 LINE",
"637 204 LINE SMOOTH",
"637 218 OFFCURVE",
"632 227 OFFCURVE",
"614 227 CURVE SMOOTH",
"594 227 OFFCURVE",
"583 204 OFFCURVE",
"566 157 CURVE SMOOTH",
"543 94 LINE",
"276 94 LINE",
"276 611 LINE",
"324 630 LINE SMOOTH",
"356 643 OFFCURVE",
"368 655 OFFCURVE",
"368 675 CURVE SMOOTH",
"368 688 OFFCURVE",
"364 695 OFFCURVE",
"349 695 CURVE SMOOTH",
"117 695 LINE SMOOTH",
"78 695 OFFCURVE",
"51 679 OFFCURVE",
"51 645 CURVE SMOOTH",
"51 623 OFFCURVE",
"61 610 OFFCURVE",
"80 610 CURVE SMOOTH",
"126 610 LINE",
"126 93 LINE",
"113 88 LINE SMOOTH",
"67 70 OFFCURVE",
"47 59 OFFCURVE",
"47 29 CURVE SMOOTH",
"47 8 OFFCURVE",
"57 0 OFFCURVE",
"69 0 CURVE SMOOTH"
);
}
);
width = 645;
}
);
note = L;
unicode = 004C;
},
{
glyphname = Lacute;
lastChange = "2015-07-16 19:32:00 +0000";
layers = (
{
layerId = "9EEBCA4B-DAAA-41A9-8636-8F7562732FC0";
name = Bold;
paths = (
{
closed = 1;
nodes = (
"637 0 LINE",
"637 204 LINE SMOOTH",
"637 218 OFFCURVE",
"632 227 OFFCURVE",
"614 227 CURVE SMOOTH",
"594 227 OFFCURVE",
"583 204 OFFCURVE",
"566 157 CURVE SMOOTH",
"543 94 LINE",
"276 94 LINE",
"276 611 LINE",
"324 630 LINE SMOOTH",
"356 643 OFFCURVE",
"368 655 OFFCURVE",
"368 675 CURVE SMOOTH",
"368 688 OFFCURVE",
"364 695 OFFCURVE",
"349 695 CURVE SMOOTH",
"117 695 LINE SMOOTH",
"78 695 OFFCURVE",
"51 679 OFFCURVE",
"51 645 CURVE SMOOTH",
"51 623 OFFCURVE",
"61 610 OFFCURVE",
"80 610 CURVE SMOOTH",
"126 610 LINE",
"126 93 LINE",
"113 88 LINE SMOOTH",
"67 70 OFFCURVE",
"47 59 OFFCURVE",
"47 29 CURVE SMOOTH",
"47 8 OFFCURVE",
"57 0 OFFCURVE",
"69 0 CURVE SMOOTH"
);
},
{
closed = 1;
nodes = (
"313 926 LINE",
"208 995 LINE",
"97 807 LINE",
"177 754 LINE"
);
}
);
width = 645;
}
);
note = Lacute;
unicode = 0139;
},
{
glyphname = Lcaron;
lastChange = "2015-07-16 19:31:59 +0000";
layers = (
{
layerId = "9EEBCA4B-DAAA-41A9-8636-8F7562732FC0";
name = Bold;
paths = (
{
closed = 1;
nodes = (
"637 0 LINE",
"637 204 LINE SMOOTH",
"637 218 OFFCURVE",
"632 227 OFFCURVE",
"614 227 CURVE SMOOTH",
"594 227 OFFCURVE",
"583 204 OFFCURVE",
"566 157 CURVE SMOOTH",
"543 94 LINE",
"276 94 LINE",
"276 611 LINE",
"324 630 LINE SMOOTH",
"356 643 OFFCURVE",
"368 655 OFFCURVE",
"368 675 CURVE SMOOTH",
"368 688 OFFCURVE",
"364 695 OFFCURVE",
"349 695 CURVE SMOOTH",
"117 695 LINE SMOOTH",
"78 695 OFFCURVE",
"51 679 OFFCURVE",
"51 645 CURVE SMOOTH",
"51 623 OFFCURVE",
"61 610 OFFCURVE",
"80 610 CURVE SMOOTH",
"126 610 LINE",
"126 93 LINE",
"113 88 LINE SMOOTH",
"67 70 OFFCURVE",
"47 59 OFFCURVE",
"47 29 CURVE SMOOTH",
"47 8 OFFCURVE",
"57 0 OFFCURVE",
"69 0 CURVE SMOOTH"
);
},
{
closed = 1;
nodes = (
"537 518 OFFCURVE",
"585 619 OFFCURVE",
"601 677 CURVE",
"493 701 LINE SMOOTH",
"459 709 OFFCURVE",
"436 694 OFFCURVE",
"436 666 CURVE SMOOTH",
"436 652 OFFCURVE",
"444 645 OFFCURVE",
"456 641 CURVE SMOOTH",
"482 633 LINE",
"478 599 OFFCURVE",
"444 530 OFFCURVE",
"418 494 CURVE",
"479 457 LINE"
);
}
);
width = 645;
}
);
note = Lcaron;
unicode = 013D;
},
{
glyphname = Lcommaaccent;
lastChange = "2015-07-16 19:31:59 +0000";
layers = (
{
layerId = "9EEBCA4B-DAAA-41A9-8636-8F7562732FC0";
name = Bold;
paths = (
{
closed = 1;
nodes = (
"637 0 LINE",
"637 204 LINE SMOOTH",
"637 218 OFFCURVE",
"632 227 OFFCURVE",
"614 227 CURVE SMOOTH",
"594 227 OFFCURVE",
"583 204 OFFCURVE",
"566 157 CURVE SMOOTH",
"543 94 LINE",
"276 94 LINE",
"276 611 LINE",
"324 630 LINE SMOOTH",
"356 643 OFFCURVE",
"368 655 OFFCURVE",
"368 675 CURVE SMOOTH",
"368 688 OFFCURVE",
"364 695 OFFCURVE",
"349 695 CURVE SMOOTH",
"117 695 LINE SMOOTH",
"78 695 OFFCURVE",
"51 679 OFFCURVE",
"51 645 CURVE SMOOTH",
"51 623 OFFCURVE",
"61 610 OFFCURVE",
"80 610 CURVE SMOOTH",
"126 610 LINE",
"126 93 LINE",
"113 88 LINE SMOOTH",
"67 70 OFFCURVE",
"47 59 OFFCURVE",
"47 29 CURVE SMOOTH",
"47 8 OFFCURVE",
"57 0 OFFCURVE",
"69 0 CURVE SMOOTH"
);
},
{
closed = 1;
nodes = (
"398 -242 OFFCURVE",
"446 -141 OFFCURVE",
"462 -83 CURVE",
"354 -59 LINE SMOOTH",
"320 -51 OFFCURVE",
"297 -66 OFFCURVE",
"297 -94 CURVE SMOOTH",
"297 -108 OFFCURVE",
"305 -115 OFFCURVE",
"317 -119 CURVE SMOOTH",
"343 -127 LINE",
"339 -161 OFFCURVE",
"305 -230 OFFCURVE",
"279 -266 CURVE",
"340 -303 LINE"
);
}
);
width = 645;
}
);
note = Lcommaaccent;
unicode = 013B;
},
{
glyphname = Ldot;
lastChange = "2015-07-16 19:31:59 +0000";
layers = (
{
layerId = "9EEBCA4B-DAAA-41A9-8636-8F7562732FC0";
name = Bold;
paths = (
{
closed = 1;
nodes = (
"637 0 LINE",
"637 204 LINE SMOOTH",
"637 218 OFFCURVE",
"632 227 OFFCURVE",
"614 227 CURVE SMOOTH",
"594 227 OFFCURVE",
"583 204 OFFCURVE",
"566 157 CURVE SMOOTH",
"543 94 LINE",
"276 94 LINE",
"276 611 LINE",
"324 630 LINE SMOOTH",
"356 643 OFFCURVE",
"368 655 OFFCURVE",
"368 675 CURVE SMOOTH",
"368 688 OFFCURVE",
"364 695 OFFCURVE",
"349 695 CURVE SMOOTH",
"117 695 LINE SMOOTH",
"78 695 OFFCURVE",
"51 679 OFFCURVE",
"51 645 CURVE SMOOTH",
"51 623 OFFCURVE",
"61 610 OFFCURVE",
"80 610 CURVE SMOOTH",
"126 610 LINE",
"126 93 LINE",
"113 88 LINE SMOOTH",
"67 70 OFFCURVE",
"47 59 OFFCURVE",
"47 29 CURVE SMOOTH",
"47 8 OFFCURVE",
"57 0 OFFCURVE",
"69 0 CURVE SMOOTH"
);
},
{
closed = 1;
nodes = (
"495 305 OFFCURVE",
"527 335 OFFCURVE",
"527 376 CURVE SMOOTH",
"527 417 OFFCURVE",
"495 447 OFFCURVE",
"457 447 CURVE SMOOTH",
"418 447 OFFCURVE",
"386 417 OFFCURVE",
"386 376 CURVE SMOOTH",
"386 335 OFFCURVE",
"418 305 OFFCURVE",
"457 305 CURVE SMOOTH"
);
}
);
width = 645;
}
);
note = Ldot;
unicode = 013F;
},
{
glyphname = Ldotbelow;
lastChange = "2015-07-16 19:31:59 +0000";
layers = (
{
layerId = "9EEBCA4B-DAAA-41A9-8636-8F7562732FC0";
name = Bold;
paths = (
{
closed = 1;
nodes = (
"637 0 LINE",
"637 204 LINE SMOOTH",
"637 218 OFFCURVE",
"632 227 OFFCURVE",
"614 227 CURVE SMOOTH",
"594 227 OFFCURVE",
"583 204 OFFCURVE",
"566 157 CURVE SMOOTH",
"543 94 LINE",
"276 94 LINE",
"276 611 LINE",
"324 630 LINE SMOOTH",
"356 643 OFFCURVE",
"368 655 OFFCURVE",
"368 675 CURVE SMOOTH",
"368 688 OFFCURVE",
"364 695 OFFCURVE",
"349 695 CURVE SMOOTH",
"117 695 LINE SMOOTH",
"78 695 OFFCURVE",
"51 679 OFFCURVE",
"51 645 CURVE SMOOTH",
"51 623 OFFCURVE",
"61 610 OFFCURVE",
"80 610 CURVE SMOOTH",
"126 610 LINE",
"126 93 LINE",
"113 88 LINE SMOOTH",
"67 70 OFFCURVE",
"47 59 OFFCURVE",
"47 29 CURVE SMOOTH",
"47 8 OFFCURVE",
"57 0 OFFCURVE",
"69 0 CURVE SMOOTH"
);
},
{
closed = 1;
nodes = (
"399 -208 OFFCURVE",
"431 -178 OFFCURVE",
"431 -137 CURVE SMOOTH",
"431 -96 OFFCURVE",
"399 -66 OFFCURVE",
"361 -66 CURVE SMOOTH",
"322 -66 OFFCURVE",
"290 -96 OFFCURVE",
"290 -137 CURVE SMOOTH",
"290 -178 OFFCURVE",
"322 -208 OFFCURVE",
"361 -208 CURVE SMOOTH"
);
}
);
width = 645;
}
);
note = Ldotbelow;
unicode = 1E36;
},
{
glyphname = Ldotbelowmacron;
lastChange = "2015-07-16 19:31:59 +0000";
layers = (
{
layerId = "9EEBCA4B-DAAA-41A9-8636-8F7562732FC0";
name = Bold;
paths = (
{
closed = 1;
nodes = (
"610 0 LINE",
"610 204 LINE SMOOTH",
"610 218 OFFCURVE",
"605 227 OFFCURVE",
"587 227 CURVE SMOOTH",
"567 227 OFFCURVE",
"556 204 OFFCURVE",
"539 157 CURVE SMOOTH",
"516 94 LINE",
"249 94 LINE",
"249 611 LINE",
"297 630 LINE SMOOTH",
"329 643 OFFCURVE",
"341 655 OFFCURVE",
"341 675 CURVE SMOOTH",
"341 688 OFFCURVE",
"337 695 OFFCURVE",
"322 695 CURVE SMOOTH",
"90 695 LINE SMOOTH",
"51 695 OFFCURVE",
"24 679 OFFCURVE",
"24 645 CURVE SMOOTH",
"24 623 OFFCURVE",
"34 610 OFFCURVE",
"53 610 CURVE SMOOTH",
"99 610 LINE",
"99 93 LINE",
"86 88 LINE SMOOTH",
"40 70 OFFCURVE",
"20 59 OFFCURVE",
"20 29 CURVE SMOOTH",
"20 8 OFFCURVE",
"30 0 OFFCURVE",
"42 0 CURVE SMOOTH"
);
},
{
closed = 1;
nodes = (
"372 -208 OFFCURVE",
"404 -178 OFFCURVE",
"404 -137 CURVE SMOOTH",
"404 -96 OFFCURVE",
"372 -66 OFFCURVE",
"334 -66 CURVE SMOOTH",
"295 -66 OFFCURVE",
"263 -96 OFFCURVE",
"263 -137 CURVE SMOOTH",
"263 -178 OFFCURVE",
"295 -208 OFFCURVE",
"334 -208 CURVE SMOOTH"
);
},
{
closed = 1;
nodes = (
"331 788 LINE",
"331 882 LINE",
"31 882 LINE",
"31 788 LINE"
);
}
);
width = 618;
}
);
note = Ldotbelowmacron;
unicode = 1E38;
},
{
glyphname = Llinebelow;
lastChange = "2015-07-16 19:31:59 +0000";
layers = (
{
layerId = "9EEBCA4B-DAAA-41A9-8636-8F7562732FC0";
name = Bold;
paths = (
{
closed = 1;
nodes = (
"637 0 LINE",
"637 204 LINE SMOOTH",
"637 218 OFFCURVE",
"632 227 OFFCURVE",
"614 227 CURVE SMOOTH",
"594 227 OFFCURVE",
"583 204 OFFCURVE",
"566 157 CURVE SMOOTH",
"543 94 LINE",
"276 94 LINE",
"276 611 LINE",
"324 630 LINE SMOOTH",
"356 643 OFFCURVE",
"368 655 OFFCURVE",
"368 675 CURVE SMOOTH",
"368 688 OFFCURVE",
"364 695 OFFCURVE",
"349 695 CURVE SMOOTH",
"117 695 LINE SMOOTH",
"78 695 OFFCURVE",
"51 679 OFFCURVE",
"51 645 CURVE SMOOTH",
"51 623 OFFCURVE",
"61 610 OFFCURVE",
"80 610 CURVE SMOOTH",
"126 610 LINE",
"126 93 LINE",
"113 88 LINE SMOOTH",
"67 70 OFFCURVE",
"47 59 OFFCURVE",
"47 29 CURVE SMOOTH",
"47 8 OFFCURVE",
"57 0 OFFCURVE",
"69 0 CURVE SMOOTH"
);
},
{
closed = 1;
nodes = (
"570 -182 LINE",
"570 -88 LINE",
"156 -88 LINE",
"156 -182 LINE"
);
}
);
width = 645;
}
);
note = Llinebelow;
unicode = 1E3A;
},
{
glyphname = Lslash;
lastChange = "2015-07-16 19:31:59 +0000";
layers = (
{
layerId = "9EEBCA4B-DAAA-41A9-8636-8F7562732FC0";
name = Bold;
paths = (
{
closed = 1;
nodes = (
"666 0 LINE",
"666 204 LINE SMOOTH",
"666 218 OFFCURVE",
"661 227 OFFCURVE",
"643 227 CURVE SMOOTH",
"623 227 OFFCURVE",
"612 204 OFFCURVE",
"595 157 CURVE SMOOTH",
"572 94 LINE",
"305 94 LINE",
"305 326 LINE",
"442 411 LINE",
"396 492 LINE",
"305 436 LINE",
"305 611 LINE",
"353 630 LINE SMOOTH",
"385 643 OFFCURVE",
"397 655 OFFCURVE",
"397 675 CURVE SMOOTH",
"397 688 OFFCURVE",
"393 695 OFFCURVE",
"378 695 CURVE SMOOTH",
"146 695 LINE SMOOTH",
"107 695 OFFCURVE",
"80 679 OFFCURVE",
"80 645 CURVE SMOOTH",
"80 623 OFFCURVE",
"90 610 OFFCURVE",
"109 610 CURVE SMOOTH",
"155 610 LINE",
"155 343 LINE",
"48 277 LINE",
"94 196 LINE",
"155 234 LINE",
"155 93 LINE",
"142 88 LINE SMOOTH",
"96 70 OFFCURVE",
"76 59 OFFCURVE",
"76 29 CURVE SMOOTH",
"76 8 OFFCURVE",
"86 0 OFFCURVE",
"98 0 CURVE SMOOTH"
);
}
);
width = 674;
}
);
note = Lslash;
unicode = 0141;
},
{
glyphname = M;
lastChange = "2015-07-16 19:31:59 +0000";
layers = (
{
layerId = "9EEBCA4B-DAAA-41A9-8636-8F7562732FC0";
name = Bold;
paths = (
{
closed = 1;
nodes = (
"285 0 LINE SMOOTH",
"296 0 OFFCURVE",
"302 7 OFFCURVE",
"302 22 CURVE SMOOTH",
"302 41 OFFCURVE",
"291 51 OFFCURVE",
"255 64 CURVE SMOOTH",
"201 84 LINE",
"278 510 LINE SMOOTH",
"284 543 OFFCURVE",
"286 595 OFFCURVE",
"286 595 CURVE",
"290 595 LINE",
"290 595 OFFCURVE",
"295 543 OFFCURVE",
"304 510 CURVE SMOOTH",
"449 0 LINE",
"612 0 LINE",
"741 510 LINE SMOOTH",
"749 543 OFFCURVE",
"756 595 OFFCURVE",
"756 595 CURVE",
"760 595 LINE",
"760 595 OFFCURVE",
"763 543 OFFCURVE",
"770 510 CURVE SMOOTH",
"860 85 LINE",
"827 85 LINE SMOOTH",
"788 85 OFFCURVE",
"761 69 OFFCURVE",
"761 35 CURVE SMOOTH",
"761 13 OFFCURVE",
"771 0 OFFCURVE",
"790 0 CURVE SMOOTH",
"1067 0 LINE SMOOTH",
"1080 0 OFFCURVE",
"1084 11 OFFCURVE",
"1084 26 CURVE SMOOTH",
"1084 47 OFFCURVE",
"1071 57 OFFCURVE",
"1040 70 CURVE SMOOTH",
"1005 85 LINE",
"893 602 LINE",
"906 607 LINE SMOOTH",
"952 625 OFFCURVE",
"972 636 OFFCURVE",
"972 666 CURVE SMOOTH",
"972 687 OFFCURVE",
"962 695 OFFCURVE",
"950 695 CURVE SMOOTH",
"682 695 LINE",
"571 258 LINE SMOOTH",
"557 203 OFFCURVE",
"549 99 OFFCURVE",
"549 99 CURVE SMOOTH",
"545 99 LINE SMOOTH",
"545 99 OFFCURVE",
"537 203 OFFCURVE",
"522 258 CURVE SMOOTH",
"400 695 LINE",
"134 695 LINE SMOOTH",
"122 695 OFFCURVE",
"112 687 OFFCURVE",
"112 666 CURVE SMOOTH",
"112 636 OFFCURVE",
"132 625 OFFCURVE",
"178 607 CURVE SMOOTH",
"191 602 LINE",
"92 85 LINE",
"82 85 LINE SMOOTH",
"43 85 OFFCURVE",
"16 69 OFFCURVE",
"16 35 CURVE SMOOTH",
"16 13 OFFCURVE",
"26 0 OFFCURVE",
"45 0 CURVE SMOOTH"
);
}
);
width = 1097;
}
);
note = M;
unicode = 004D;
},
{
glyphname = Mdotbelow;
lastChange = "2015-07-16 19:31:59 +0000";
layers = (
{
layerId = "9EEBCA4B-DAAA-41A9-8636-8F7562732FC0";
name = Bold;
paths = (
{
closed = 1;
nodes = (
"285 0 LINE SMOOTH",
"296 0 OFFCURVE",
"302 7 OFFCURVE",
"302 22 CURVE SMOOTH",
"302 41 OFFCURVE",
"291 51 OFFCURVE",
"255 64 CURVE SMOOTH",
"201 84 LINE",
"278 510 LINE SMOOTH",
"284 543 OFFCURVE",
"286 595 OFFCURVE",
"286 595 CURVE",
"290 595 LINE",
"290 595 OFFCURVE",
"295 543 OFFCURVE",
"304 510 CURVE SMOOTH",
"449 0 LINE",
"612 0 LINE",
"741 510 LINE SMOOTH",
"749 543 OFFCURVE",
"756 595 OFFCURVE",
"756 595 CURVE",
"760 595 LINE",
"760 595 OFFCURVE",
"763 543 OFFCURVE",
"770 510 CURVE SMOOTH",
"860 85 LINE",
"827 85 LINE SMOOTH",
"788 85 OFFCURVE",
"761 69 OFFCURVE",
"761 35 CURVE SMOOTH",
"761 13 OFFCURVE",
"771 0 OFFCURVE",
"790 0 CURVE SMOOTH",
"1067 0 LINE SMOOTH",
"1080 0 OFFCURVE",
"1084 11 OFFCURVE",
"1084 26 CURVE SMOOTH",
"1084 47 OFFCURVE",
"1071 57 OFFCURVE",
"1040 70 CURVE SMOOTH",
"1005 85 LINE",
"893 602 LINE",
"906 607 LINE SMOOTH",
"952 625 OFFCURVE",
"972 636 OFFCURVE",
"972 666 CURVE SMOOTH",
"972 687 OFFCURVE",
"962 695 OFFCURVE",
"950 695 CURVE SMOOTH",
"682 695 LINE",
"571 258 LINE SMOOTH",
"557 203 OFFCURVE",
"549 99 OFFCURVE",
"549 99 CURVE SMOOTH",
"545 99 LINE SMOOTH",
"545 99 OFFCURVE",
"537 203 OFFCURVE",
"522 258 CURVE SMOOTH",
"400 695 LINE",
"134 695 LINE SMOOTH",
"122 695 OFFCURVE",
"112 687 OFFCURVE",
"112 666 CURVE SMOOTH",
"112 636 OFFCURVE",
"132 625 OFFCURVE",
"178 607 CURVE SMOOTH",
"191 602 LINE",
"92 85 LINE",
"82 85 LINE SMOOTH",
"43 85 OFFCURVE",
"16 69 OFFCURVE",
"16 35 CURVE SMOOTH",
"16 13 OFFCURVE",
"26 0 OFFCURVE",
"45 0 CURVE SMOOTH"
);
},
{
closed = 1;
nodes = (
"571 -208 OFFCURVE",
"603 -178 OFFCURVE",
"603 -137 CURVE SMOOTH",
"603 -96 OFFCURVE",
"571 -66 OFFCURVE",
"533 -66 CURVE SMOOTH",
"494 -66 OFFCURVE",
"462 -96 OFFCURVE",
"462 -137 CURVE SMOOTH",
"462 -178 OFFCURVE",
"494 -208 OFFCURVE",
"533 -208 CURVE SMOOTH"
);
}
);
width = 1097;
}
);
note = Mdotbelow;
unicode = 1E42;
},
{
glyphname = N;
lastChange = "2015-07-16 19:31:59 +0000";
layers = (
{
layerId = "9EEBCA4B-DAAA-41A9-8636-8F7562732FC0";
name = Bold;
paths = (
{
closed = 1;
nodes = (
"305 0 LINE SMOOTH",
"320 0 OFFCURVE",
"324 7 OFFCURVE",
"324 20 CURVE SMOOTH",
"324 40 OFFCURVE",
"312 51 OFFCURVE",
"280 64 CURVE SMOOTH",
"232 84 LINE",
"232 512 LINE",
"250 460 OFFCURVE",
"261 431 OFFCURVE",
"283 399 CURVE SMOOTH",
"560 0 LINE",
"698 0 LINE",
"698 611 LINE",
"730 629 LINE SMOOTH",
"757 644 OFFCURVE",
"780 657 OFFCURVE",
"780 675 CURVE SMOOTH",
"780 688 OFFCURVE",
"776 695 OFFCURVE",
"761 695 CURVE SMOOTH",
"569 695 LINE SMOOTH",
"530 695 OFFCURVE",
"503 679 OFFCURVE",
"503 645 CURVE SMOOTH",
"503 623 OFFCURVE",
"513 610 OFFCURVE",
"532 610 CURVE SMOOTH",
"588 610 LINE",
"588 182 LINE",
"567 239 OFFCURVE",
"549 278 OFFCURVE",
"522 317 CURVE SMOOTH",
"260 695 LINE",
"69 695 LINE SMOOTH",
"57 695 OFFCURVE",
"47 687 OFFCURVE",
"47 666 CURVE SMOOTH",
"47 638 OFFCURVE",
"63 627 OFFCURVE",
"109 609 CURVE SMOOTH",
"122 604 LINE",
"122 85 LINE",
"113 85 LINE SMOOTH",
"74 85 OFFCURVE",
"47 69 OFFCURVE",
"47 35 CURVE SMOOTH",
"47 13 OFFCURVE",
"57 0 OFFCURVE",
"76 0 CURVE SMOOTH"
);
}
);
width = 824;
}
);
note = N;
unicode = 004E;
},
{
glyphname = Nacute;
lastChange = "2015-07-16 19:31:59 +0000";
layers = (
{
layerId = "9EEBCA4B-DAAA-41A9-8636-8F7562732FC0";
name = Bold;
paths = (
{
closed = 1;
nodes = (
"305 0 LINE SMOOTH",
"320 0 OFFCURVE",
"324 7 OFFCURVE",
"324 20 CURVE SMOOTH",
"324 40 OFFCURVE",
"312 51 OFFCURVE",
"280 64 CURVE SMOOTH",
"232 84 LINE",
"232 512 LINE",
"250 460 OFFCURVE",
"261 431 OFFCURVE",
"283 399 CURVE SMOOTH",
"560 0 LINE",
"698 0 LINE",
"698 611 LINE",
"730 629 LINE SMOOTH",
"757 644 OFFCURVE",
"780 657 OFFCURVE",
"780 675 CURVE SMOOTH",
"780 688 OFFCURVE",
"776 695 OFFCURVE",
"761 695 CURVE SMOOTH",
"569 695 LINE SMOOTH",
"530 695 OFFCURVE",
"503 679 OFFCURVE",
"503 645 CURVE SMOOTH",
"503 623 OFFCURVE",
"513 610 OFFCURVE",
"532 610 CURVE SMOOTH",
"588 610 LINE",
"588 182 LINE",
"567 239 OFFCURVE",
"549 278 OFFCURVE",
"522 317 CURVE SMOOTH",
"260 695 LINE",
"69 695 LINE SMOOTH",
"57 695 OFFCURVE",
"47 687 OFFCURVE",
"47 666 CURVE SMOOTH",
"47 638 OFFCURVE",
"63 627 OFFCURVE",
"109 609 CURVE SMOOTH",
"122 604 LINE",
"122 85 LINE",
"113 85 LINE SMOOTH",
"74 85 OFFCURVE",
"47 69 OFFCURVE",
"47 35 CURVE SMOOTH",
"47 13 OFFCURVE",
"57 0 OFFCURVE",
"76 0 CURVE SMOOTH"
);
},
{
closed = 1;
nodes = (
"530 926 LINE",
"425 995 LINE",
"314 807 LINE",
"394 754 LINE"
);
}
);
width = 824;
}
);
note = Nacute;
unicode = 0143;
},
{
glyphname = Ncaron;
lastChange = "2015-07-16 19:31:59 +0000";
layers = (
{
layerId = "9EEBCA4B-DAAA-41A9-8636-8F7562732FC0";
name = Bold;
paths = (
{
closed = 1;
nodes = (
"305 0 LINE SMOOTH",
"320 0 OFFCURVE",
"324 7 OFFCURVE",
"324 20 CURVE SMOOTH",
"324 40 OFFCURVE",
"312 51 OFFCURVE",
"280 64 CURVE SMOOTH",
"232 84 LINE",
"232 512 LINE",
"250 460 OFFCURVE",
"261 431 OFFCURVE",
"283 399 CURVE SMOOTH",
"560 0 LINE",
"698 0 LINE",
"698 611 LINE",
"730 629 LINE SMOOTH",
"757 644 OFFCURVE",
"780 657 OFFCURVE",
"780 675 CURVE SMOOTH",
"780 688 OFFCURVE",
"776 695 OFFCURVE",
"761 695 CURVE SMOOTH",
"569 695 LINE SMOOTH",
"530 695 OFFCURVE",
"503 679 OFFCURVE",
"503 645 CURVE SMOOTH",
"503 623 OFFCURVE",
"513 610 OFFCURVE",
"532 610 CURVE SMOOTH",
"588 610 LINE",
"588 182 LINE",
"567 239 OFFCURVE",
"549 278 OFFCURVE",
"522 317 CURVE SMOOTH",
"260 695 LINE",
"69 695 LINE SMOOTH",
"57 695 OFFCURVE",
"47 687 OFFCURVE",
"47 666 CURVE SMOOTH",
"47 638 OFFCURVE",
"63 627 OFFCURVE",
"109 609 CURVE SMOOTH",
"122 604 LINE",
"122 85 LINE",
"113 85 LINE SMOOTH",
"74 85 OFFCURVE",
"47 69 OFFCURVE",
"47 35 CURVE SMOOTH",
"47 13 OFFCURVE",
"57 0 OFFCURVE",
"76 0 CURVE SMOOTH"
);
},
{
closed = 1;
nodes = (
"438 754 LINE",
"563 917 LINE",
"502 971 LINE",
"405 860 LINE",
"308 971 LINE",
"247 917 LINE",
"372 754 LINE"
);
}
);
width = 824;
}
);
note = Ncaron;
unicode = 0147;
},
{
glyphname = Ncommaaccent;
lastChange = "2015-07-16 19:31:59 +0000";
layers = (
{
layerId = "9EEBCA4B-DAAA-41A9-8636-8F7562732FC0";
name = Bold;
paths = (
{
closed = 1;
nodes = (
"305 0 LINE SMOOTH",
"320 0 OFFCURVE",
"324 7 OFFCURVE",
"324 20 CURVE SMOOTH",
"324 40 OFFCURVE",
"312 51 OFFCURVE",
"280 64 CURVE SMOOTH",
"232 84 LINE",
"232 512 LINE",
"250 460 OFFCURVE",
"261 431 OFFCURVE",
"283 399 CURVE SMOOTH",
"560 0 LINE",
"698 0 LINE",
"698 611 LINE",
"730 629 LINE SMOOTH",
"757 644 OFFCURVE",
"780 657 OFFCURVE",
"780 675 CURVE SMOOTH",
"780 688 OFFCURVE",
"776 695 OFFCURVE",
"761 695 CURVE SMOOTH",
"569 695 LINE SMOOTH",
"530 695 OFFCURVE",
"503 679 OFFCURVE",
"503 645 CURVE SMOOTH",
"503 623 OFFCURVE",
"513 610 OFFCURVE",
"532 610 CURVE SMOOTH",
"588 610 LINE",
"588 182 LINE",
"567 239 OFFCURVE",
"549 278 OFFCURVE",
"522 317 CURVE SMOOTH",
"260 695 LINE",
"69 695 LINE SMOOTH",
"57 695 OFFCURVE",
"47 687 OFFCURVE",
"47 666 CURVE SMOOTH",
"47 638 OFFCURVE",
"63 627 OFFCURVE",
"109 609 CURVE SMOOTH",
"122 604 LINE",
"122 85 LINE",
"113 85 LINE SMOOTH",
"74 85 OFFCURVE",
"47 69 OFFCURVE",
"47 35 CURVE SMOOTH",
"47 13 OFFCURVE",
"57 0 OFFCURVE",
"76 0 CURVE SMOOTH"
);
},
{
closed = 1;
nodes = (
"433 -242 OFFCURVE",
"481 -141 OFFCURVE",
"497 -83 CURVE",
"389 -59 LINE SMOOTH",
"355 -51 OFFCURVE",
"332 -66 OFFCURVE",
"332 -94 CURVE SMOOTH",
"332 -108 OFFCURVE",
"340 -115 OFFCURVE",
"352 -119 CURVE SMOOTH",
"378 -127 LINE",
"374 -161 OFFCURVE",
"340 -230 OFFCURVE",
"314 -266 CURVE",
"375 -303 LINE"
);
}
);
width = 824;
}
);
note = Ncommaaccent;
unicode = 0145;
},
{
glyphname = Ndotaccent;
lastChange = "2015-07-16 19:32:00 +0000";
layers = (
{
layerId = "9EEBCA4B-DAAA-41A9-8636-8F7562732FC0";
name = Bold;
paths = (
{
closed = 1;
nodes = (
"305 0 LINE SMOOTH",
"320 0 OFFCURVE",
"324 7 OFFCURVE",
"324 20 CURVE SMOOTH",
"324 40 OFFCURVE",
"312 51 OFFCURVE",
"280 64 CURVE SMOOTH",
"232 84 LINE",
"232 512 LINE",
"250 460 OFFCURVE",
"261 431 OFFCURVE",
"283 399 CURVE SMOOTH",
"560 0 LINE",
"698 0 LINE",
"698 611 LINE",
"730 629 LINE SMOOTH",
"757 644 OFFCURVE",
"780 657 OFFCURVE",
"780 675 CURVE SMOOTH",
"780 688 OFFCURVE",
"776 695 OFFCURVE",
"761 695 CURVE SMOOTH",
"569 695 LINE SMOOTH",
"530 695 OFFCURVE",
"503 679 OFFCURVE",
"503 645 CURVE SMOOTH",
"503 623 OFFCURVE",
"513 610 OFFCURVE",
"532 610 CURVE SMOOTH",
"588 610 LINE",
"588 182 LINE",
"567 239 OFFCURVE",
"549 278 OFFCURVE",
"522 317 CURVE SMOOTH",
"260 695 LINE",
"69 695 LINE SMOOTH",
"57 695 OFFCURVE",
"47 687 OFFCURVE",
"47 666 CURVE SMOOTH",
"47 638 OFFCURVE",
"63 627 OFFCURVE",
"109 609 CURVE SMOOTH",
"122 604 LINE",
"122 85 LINE",
"113 85 LINE SMOOTH",
"74 85 OFFCURVE",
"47 69 OFFCURVE",
"47 35 CURVE SMOOTH",
"47 13 OFFCURVE",
"57 0 OFFCURVE",
"76 0 CURVE SMOOTH"
);
},
{
closed = 1;
nodes = (
"450 772 OFFCURVE",
"482 802 OFFCURVE",
"482 843 CURVE SMOOTH",
"482 884 OFFCURVE",
"450 914 OFFCURVE",
"412 914 CURVE SMOOTH",
"373 914 OFFCURVE",
"341 884 OFFCURVE",
"341 843 CURVE SMOOTH",
"341 802 OFFCURVE",
"373 772 OFFCURVE",
"412 772 CURVE SMOOTH"
);
}
);
width = 824;
}
);
note = Ndotaccent;
unicode = 1E44;
},
{
glyphname = Ndotbelow;
lastChange = "2015-07-16 19:31:59 +0000";
layers = (
{
layerId = "9EEBCA4B-DAAA-41A9-8636-8F7562732FC0";
name = Bold;
paths = (
{
closed = 1;
nodes = (
"305 0 LINE SMOOTH",
"320 0 OFFCURVE",
"324 7 OFFCURVE",
"324 20 CURVE SMOOTH",
"324 40 OFFCURVE",
"312 51 OFFCURVE",
"280 64 CURVE SMOOTH",
"232 84 LINE",
"232 512 LINE",
"250 460 OFFCURVE",
"261 431 OFFCURVE",
"283 399 CURVE SMOOTH",
"560 0 LINE",
"698 0 LINE",
"698 611 LINE",
"730 629 LINE SMOOTH",
"757 644 OFFCURVE",
"780 657 OFFCURVE",
"780 675 CURVE SMOOTH",
"780 688 OFFCURVE",
"776 695 OFFCURVE",
"761 695 CURVE SMOOTH",
"569 695 LINE SMOOTH",
"530 695 OFFCURVE",
"503 679 OFFCURVE",
"503 645 CURVE SMOOTH",
"503 623 OFFCURVE",
"513 610 OFFCURVE",
"532 610 CURVE SMOOTH",
"588 610 LINE",
"588 182 LINE",
"567 239 OFFCURVE",
"549 278 OFFCURVE",
"522 317 CURVE SMOOTH",
"260 695 LINE",
"69 695 LINE SMOOTH",
"57 695 OFFCURVE",
"47 687 OFFCURVE",
"47 666 CURVE SMOOTH",
"47 638 OFFCURVE",
"63 627 OFFCURVE",
"109 609 CURVE SMOOTH",
"122 604 LINE",
"122 85 LINE",
"113 85 LINE SMOOTH",
"74 85 OFFCURVE",
"47 69 OFFCURVE",
"47 35 CURVE SMOOTH",
"47 13 OFFCURVE",
"57 0 OFFCURVE",
"76 0 CURVE SMOOTH"
);
},
{
closed = 1;
nodes = (
"459 -208 OFFCURVE",
"491 -178 OFFCURVE",
"491 -137 CURVE SMOOTH",
"491 -96 OFFCURVE",
"459 -66 OFFCURVE",
"421 -66 CURVE SMOOTH",
"382 -66 OFFCURVE",
"350 -96 OFFCURVE",
"350 -137 CURVE SMOOTH",
"350 -178 OFFCURVE",
"382 -208 OFFCURVE",
"421 -208 CURVE SMOOTH"
);
}
);
width = 824;
}
);
note = Ndotbelow;
unicode = 1E46;
},
{
glyphname = Eng;
lastChange = "2015-07-16 19:31:59 +0000";
layers = (
{
layerId = "9EEBCA4B-DAAA-41A9-8636-8F7562732FC0";
name = Bold;
paths = (
{
closed = 1;
nodes = (
"570 -236 OFFCURVE",
"698 -175 OFFCURVE",
"698 -20 CURVE SMOOTH",
"698 611 LINE",
"730 629 LINE SMOOTH",
"757 644 OFFCURVE",
"780 657 OFFCURVE",
"780 675 CURVE SMOOTH",
"780 688 OFFCURVE",
"776 695 OFFCURVE",
"761 695 CURVE SMOOTH",
"569 695 LINE SMOOTH",
"530 695 OFFCURVE",
"503 679 OFFCURVE",
"503 645 CURVE SMOOTH",
"503 623 OFFCURVE",
"513 610 OFFCURVE",
"532 610 CURVE SMOOTH",
"588 610 LINE",
"588 192 LINE",
"572 228 OFFCURVE",
"557 266 OFFCURVE",
"522 317 CURVE SMOOTH",
"260 695 LINE",
"69 695 LINE SMOOTH",
"57 695 OFFCURVE",
"47 687 OFFCURVE",
"47 666 CURVE SMOOTH",
"47 638 OFFCURVE",
"63 627 OFFCURVE",
"109 609 CURVE SMOOTH",
"122 604 LINE",
"122 85 LINE",
"113 85 LINE SMOOTH",
"74 85 OFFCURVE",
"47 69 OFFCURVE",
"47 35 CURVE SMOOTH",
"47 13 OFFCURVE",
"57 0 OFFCURVE",
"76 0 CURVE SMOOTH",
"305 0 LINE SMOOTH",
"320 0 OFFCURVE",
"324 7 OFFCURVE",
"324 20 CURVE SMOOTH",
"324 40 OFFCURVE",
"312 51 OFFCURVE",
"280 64 CURVE SMOOTH",
"232 84 LINE",
"232 502 LINE",
"249 458 OFFCURVE",
"261 431 OFFCURVE",
"283 399 CURVE SMOOTH",
"560 0 LINE",
"560 -23 LINE SMOOTH",
"560 -110 OFFCURVE",
"522 -150 OFFCURVE",
"434 -167 CURVE",
"462 -248 LINE"
);
}
);
width = 825;
}
);
note = Eng;
unicode = 014A;
},
{
glyphname = Nlinebelow;
lastChange = "2015-07-16 19:31:59 +0000";
layers = (
{
layerId = "9EEBCA4B-DAAA-41A9-8636-8F7562732FC0";
name = Bold;
paths = (
{
closed = 1;
nodes = (
"305 0 LINE SMOOTH",
"320 0 OFFCURVE",
"324 7 OFFCURVE",
"324 20 CURVE SMOOTH",
"324 40 OFFCURVE",
"312 51 OFFCURVE",
"280 64 CURVE SMOOTH",
"232 84 LINE",
"232 512 LINE",
"250 460 OFFCURVE",
"261 431 OFFCURVE",
"283 399 CURVE SMOOTH",
"560 0 LINE",
"698 0 LINE",
"698 611 LINE",
"730 629 LINE SMOOTH",
"757 644 OFFCURVE",
"780 657 OFFCURVE",
"780 675 CURVE SMOOTH",
"780 688 OFFCURVE",
"776 695 OFFCURVE",
"761 695 CURVE SMOOTH",
"569 695 LINE SMOOTH",
"530 695 OFFCURVE",
"503 679 OFFCURVE",
"503 645 CURVE SMOOTH",
"503 623 OFFCURVE",
"513 610 OFFCURVE",
"532 610 CURVE SMOOTH",
"588 610 LINE",
"588 182 LINE",
"567 239 OFFCURVE",
"549 278 OFFCURVE",
"522 317 CURVE SMOOTH",
"260 695 LINE",
"69 695 LINE SMOOTH",
"57 695 OFFCURVE",
"47 687 OFFCURVE",
"47 666 CURVE SMOOTH",
"47 638 OFFCURVE",
"63 627 OFFCURVE",
"109 609 CURVE SMOOTH",
"122 604 LINE",
"122 85 LINE",
"113 85 LINE SMOOTH",
"74 85 OFFCURVE",
"47 69 OFFCURVE",
"47 35 CURVE SMOOTH",
"47 13 OFFCURVE",
"57 0 OFFCURVE",
"76 0 CURVE SMOOTH"
);
},
{
closed = 1;
nodes = (
"617 -182 LINE",
"617 -88 LINE",
"203 -88 LINE",
"203 -182 LINE"
);
}
);
width = 824;
}
);
note = Nlinebelow;
unicode = 1E48;
},
{
glyphname = Ntilde;
lastChange = "2015-07-16 19:31:59 +0000";
layers = (
{
layerId = "9EEBCA4B-DAAA-41A9-8636-8F7562732FC0";
name = Bold;
paths = (
{
closed = 1;
nodes = (
"305 0 LINE SMOOTH",
"320 0 OFFCURVE",
"324 7 OFFCURVE",
"324 20 CURVE SMOOTH",
"324 40 OFFCURVE",
"312 51 OFFCURVE",
"280 64 CURVE SMOOTH",
"232 84 LINE",
"232 512 LINE",
"250 460 OFFCURVE",
"261 431 OFFCURVE",
"283 399 CURVE SMOOTH",
"560 0 LINE",
"698 0 LINE",
"698 611 LINE",
"730 629 LINE SMOOTH",
"757 644 OFFCURVE",
"780 657 OFFCURVE",
"780 675 CURVE SMOOTH",
"780 688 OFFCURVE",
"776 695 OFFCURVE",
"761 695 CURVE SMOOTH",
"569 695 LINE SMOOTH",
"530 695 OFFCURVE",
"503 679 OFFCURVE",
"503 645 CURVE SMOOTH",
"503 623 OFFCURVE",
"513 610 OFFCURVE",
"532 610 CURVE SMOOTH",
"588 610 LINE",
"588 182 LINE",
"567 239 OFFCURVE",
"549 278 OFFCURVE",
"522 317 CURVE SMOOTH",
"260 695 LINE",
"69 695 LINE SMOOTH",
"57 695 OFFCURVE",
"47 687 OFFCURVE",
"47 666 CURVE SMOOTH",
"47 638 OFFCURVE",
"63 627 OFFCURVE",
"109 609 CURVE SMOOTH",
"122 604 LINE",
"122 85 LINE",
"113 85 LINE SMOOTH",
"74 85 OFFCURVE",
"47 69 OFFCURVE",
"47 35 CURVE SMOOTH",
"47 13 OFFCURVE",
"57 0 OFFCURVE",
"76 0 CURVE SMOOTH"
);
},
{
closed = 1;
nodes = (
"502 765 OFFCURVE",
"540 784 OFFCURVE",
"573 818 CURVE",
"526 885 LINE",
"506 870 OFFCURVE",
"488 862 OFFCURVE",
"467 862 CURVE SMOOTH",
"421 862 OFFCURVE",
"384 903 OFFCURVE",
"336 903 CURVE SMOOTH",
"302 903 OFFCURVE",
"260 880 OFFCURVE",
"227 850 CURVE",
"274 782 LINE",
"293 796 OFFCURVE",
"310 806 OFFCURVE",
"336 806 CURVE SMOOTH",
"382 806 OFFCURVE",
"419 765 OFFCURVE",
"468 765 CURVE SMOOTH"
);
}
);
width = 824;
}
);
note = Ntilde;
unicode = 00D1;
},
{
glyphname = O;
lastChange = "2015-07-16 19:31:59 +0000";
layers = (
{
layerId = "9EEBCA4B-DAAA-41A9-8636-8F7562732FC0";
name = Bold;
paths = (
{
closed = 1;
nodes = (
"571 -15 OFFCURVE",
"727 93 OFFCURVE",
"727 347 CURVE SMOOTH",
"727 601 OFFCURVE",
"571 710 OFFCURVE",
"383 710 CURVE SMOOTH",
"195 710 OFFCURVE",
"39 601 OFFCURVE",
"39 347 CURVE SMOOTH",
"39 93 OFFCURVE",
"195 -15 OFFCURVE",
"383 -15 CURVE SMOOTH"
);
},
{
closed = 1;
nodes = (
"256 79 OFFCURVE",
"191 174 OFFCURVE",
"191 347 CURVE SMOOTH",
"191 520 OFFCURVE",
"256 616 OFFCURVE",
"383 616 CURVE SMOOTH",
"510 616 OFFCURVE",
"575 520 OFFCURVE",
"575 347 CURVE SMOOTH",
"575 174 OFFCURVE",
"510 79 OFFCURVE",
"383 79 CURVE SMOOTH"
);
}
);
width = 766;
}
);
note = O;
unicode = 004F;
},
{
glyphname = Oacute;
lastChange = "2015-07-16 19:32:00 +0000";
layers = (
{
layerId = "9EEBCA4B-DAAA-41A9-8636-8F7562732FC0";
name = Bold;
paths = (
{
closed = 1;
nodes = (
"571 -15 OFFCURVE",
"727 93 OFFCURVE",
"727 347 CURVE SMOOTH",
"727 601 OFFCURVE",
"571 710 OFFCURVE",
"383 710 CURVE SMOOTH",
"195 710 OFFCURVE",
"39 601 OFFCURVE",
"39 347 CURVE SMOOTH",
"39 93 OFFCURVE",
"195 -15 OFFCURVE",
"383 -15 CURVE SMOOTH"
);
},
{
closed = 1;
nodes = (
"256 79 OFFCURVE",
"191 174 OFFCURVE",
"191 347 CURVE SMOOTH",
"191 520 OFFCURVE",
"256 616 OFFCURVE",
"383 616 CURVE SMOOTH",
"510 616 OFFCURVE",
"575 520 OFFCURVE",
"575 347 CURVE SMOOTH",
"575 174 OFFCURVE",
"510 79 OFFCURVE",
"383 79 CURVE SMOOTH"
);
},
{
closed = 1;
nodes = (
"504 926 LINE",
"399 995 LINE",
"288 807 LINE",
"368 754 LINE"
);
}
);
width = 766;
}
);
note = Oacute;
unicode = 00D3;
},
{
glyphname = Obreve;
lastChange = "2015-07-16 19:31:59 +0000";
layers = (
{
layerId = "9EEBCA4B-DAAA-41A9-8636-8F7562732FC0";
name = Bold;
paths = (
{
closed = 1;
nodes = (
"571 -15 OFFCURVE",
"727 93 OFFCURVE",
"727 347 CURVE SMOOTH",
"727 601 OFFCURVE",
"571 710 OFFCURVE",
"383 710 CURVE SMOOTH",
"195 710 OFFCURVE",
"39 601 OFFCURVE",
"39 347 CURVE SMOOTH",
"39 93 OFFCURVE",
"195 -15 OFFCURVE",
"383 -15 CURVE SMOOTH"
);
},
{
closed = 1;
nodes = (
"256 79 OFFCURVE",
"191 174 OFFCURVE",
"191 347 CURVE SMOOTH",
"191 520 OFFCURVE",
"256 616 OFFCURVE",
"383 616 CURVE SMOOTH",
"510 616 OFFCURVE",
"575 520 OFFCURVE",
"575 347 CURVE SMOOTH",
"575 174 OFFCURVE",
"510 79 OFFCURVE",
"383 79 CURVE SMOOTH"
);
},
{
closed = 1;
nodes = (
"458 747 OFFCURVE",
"529 787 OFFCURVE",
"558 891 CURVE",
"483 917 LINE",
"465 867 OFFCURVE",
"428 841 OFFCURVE",
"383 841 CURVE SMOOTH",
"338 841 OFFCURVE",
"301 867 OFFCURVE",
"283 917 CURVE",
"208 891 LINE",
"237 787 OFFCURVE",
"308 747 OFFCURVE",
"383 747 CURVE SMOOTH"
);
}
);
width = 766;
}
);
note = Obreve;
unicode = 014E;
},
{
glyphname = Ocaron;
lastChange = "2015-07-16 19:31:59 +0000";
layers = (
{
layerId = "9EEBCA4B-DAAA-41A9-8636-8F7562732FC0";
name = Bold;
paths = (
{
closed = 1;
nodes = (
"571 -15 OFFCURVE",
"727 93 OFFCURVE",
"727 347 CURVE SMOOTH",
"727 601 OFFCURVE",
"571 710 OFFCURVE",
"383 710 CURVE SMOOTH",
"195 710 OFFCURVE",
"39 601 OFFCURVE",
"39 347 CURVE SMOOTH",
"39 93 OFFCURVE",
"195 -15 OFFCURVE",
"383 -15 CURVE SMOOTH"
);
},
{
closed = 1;
nodes = (
"256 79 OFFCURVE",
"191 174 OFFCURVE",
"191 347 CURVE SMOOTH",
"191 520 OFFCURVE",
"256 616 OFFCURVE",
"383 616 CURVE SMOOTH",
"510 616 OFFCURVE",
"575 520 OFFCURVE",
"575 347 CURVE SMOOTH",
"575 174 OFFCURVE",
"510 79 OFFCURVE",
"383 79 CURVE SMOOTH"
);
},
{
closed = 1;
nodes = (
"416 754 LINE",
"541 917 LINE",
"480 971 LINE",
"383 860 LINE",
"286 971 LINE",
"225 917 LINE",
"350 754 LINE"
);
}
);
width = 766;
}
);
note = Ocaron;
unicode = 01D1;
},
{
glyphname = Ocircumflex;
lastChange = "2015-07-16 19:31:59 +0000";
layers = (
{
layerId = "9EEBCA4B-DAAA-41A9-8636-8F7562732FC0";
name = Bold;
paths = (
{
closed = 1;
nodes = (
"571 -15 OFFCURVE",
"727 93 OFFCURVE",
"727 347 CURVE SMOOTH",
"727 601 OFFCURVE",
"571 710 OFFCURVE",
"383 710 CURVE SMOOTH",
"195 710 OFFCURVE",
"39 601 OFFCURVE",
"39 347 CURVE SMOOTH",
"39 93 OFFCURVE",
"195 -15 OFFCURVE",
"383 -15 CURVE SMOOTH"
);
},
{
closed = 1;
nodes = (
"256 79 OFFCURVE",
"191 174 OFFCURVE",
"191 347 CURVE SMOOTH",
"191 520 OFFCURVE",
"256 616 OFFCURVE",
"383 616 CURVE SMOOTH",
"510 616 OFFCURVE",
"575 520 OFFCURVE",
"575 347 CURVE SMOOTH",
"575 174 OFFCURVE",
"510 79 OFFCURVE",
"383 79 CURVE SMOOTH"
);
},
{
closed = 1;
nodes = (
"383 865 LINE",
"480 754 LINE",
"541 808 LINE",
"416 971 LINE",
"350 971 LINE",
"225 808 LINE",
"286 754 LINE"
);
}
);
width = 766;
}
);
note = Ocircumflex;
unicode = 00D4;
},
{
glyphname = Ocircumflexacute;
lastChange = "2015-07-16 19:31:59 +0000";
layers = (
{
layerId = "9EEBCA4B-DAAA-41A9-8636-8F7562732FC0";
name = Bold;
paths = (
{
closed = 1;
nodes = (
"571 -15 OFFCURVE",
"727 93 OFFCURVE",
"727 347 CURVE SMOOTH",
"727 601 OFFCURVE",
"571 710 OFFCURVE",
"383 710 CURVE SMOOTH",
"195 710 OFFCURVE",
"39 601 OFFCURVE",
"39 347 CURVE SMOOTH",
"39 93 OFFCURVE",
"195 -15 OFFCURVE",
"383 -15 CURVE SMOOTH"
);
},
{
closed = 1;
nodes = (
"256 79 OFFCURVE",
"191 174 OFFCURVE",
"191 347 CURVE SMOOTH",
"191 520 OFFCURVE",
"256 616 OFFCURVE",
"383 616 CURVE SMOOTH",
"510 616 OFFCURVE",
"575 520 OFFCURVE",
"575 347 CURVE SMOOTH",
"575 174 OFFCURVE",
"510 79 OFFCURVE",
"383 79 CURVE SMOOTH"
);
},
{
closed = 1;
nodes = (
"382 865 LINE",
"479 754 LINE",
"540 808 LINE",
"415 971 LINE",
"349 971 LINE",
"224 808 LINE",
"285 754 LINE"
);
},
{
closed = 1;
nodes = (
"656 995 LINE",
"564 1056 LINE",
"494 927 LINE",
"554 885 LINE"
);
}
);
width = 766;
}
);
note = Ocircumflexacute;
unicode = 1ED0;
},
{
glyphname = Ocircumflexdotbelow;
lastChange = "2015-07-16 19:31:59 +0000";
layers = (
{
layerId = "9EEBCA4B-DAAA-41A9-8636-8F7562732FC0";
name = Bold;
paths = (
{
closed = 1;
nodes = (
"571 -15 OFFCURVE",
"727 93 OFFCURVE",
"727 347 CURVE SMOOTH",
"727 601 OFFCURVE",
"571 710 OFFCURVE",
"383 710 CURVE SMOOTH",
"195 710 OFFCURVE",
"39 601 OFFCURVE",
"39 347 CURVE SMOOTH",
"39 93 OFFCURVE",
"195 -15 OFFCURVE",
"383 -15 CURVE SMOOTH"
);
},
{
closed = 1;
nodes = (
"423 -208 OFFCURVE",
"455 -178 OFFCURVE",
"455 -137 CURVE SMOOTH",
"455 -96 OFFCURVE",
"423 -66 OFFCURVE",
"385 -66 CURVE SMOOTH",
"346 -66 OFFCURVE",
"314 -96 OFFCURVE",
"314 -137 CURVE SMOOTH",
"314 -178 OFFCURVE",
"346 -208 OFFCURVE",
"385 -208 CURVE SMOOTH"
);
},
{
closed = 1;
nodes = (
"256 79 OFFCURVE",
"191 174 OFFCURVE",
"191 347 CURVE SMOOTH",
"191 520 OFFCURVE",
"256 616 OFFCURVE",
"383 616 CURVE SMOOTH",
"510 616 OFFCURVE",
"575 520 OFFCURVE",
"575 347 CURVE SMOOTH",
"575 174 OFFCURVE",
"510 79 OFFCURVE",
"383 79 CURVE SMOOTH"
);
},
{
closed = 1;
nodes = (
"383 865 LINE",
"480 754 LINE",
"541 808 LINE",
"416 971 LINE",
"350 971 LINE",
"225 808 LINE",
"286 754 LINE"
);
}
);
width = 766;
}
);
note = Ocircumflexdotbelow;
unicode = 1ED8;
},
{
glyphname = Ocircumflexgrave;
lastChange = "2015-07-16 19:31:59 +0000";
layers = (
{
layerId = "9EEBCA4B-DAAA-41A9-8636-8F7562732FC0";
name = Bold;
paths = (
{
closed = 1;
nodes = (
"571 -15 OFFCURVE",
"727 93 OFFCURVE",
"727 347 CURVE SMOOTH",
"727 601 OFFCURVE",
"571 710 OFFCURVE",
"383 710 CURVE SMOOTH",
"195 710 OFFCURVE",
"39 601 OFFCURVE",
"39 347 CURVE SMOOTH",
"39 93 OFFCURVE",
"195 -15 OFFCURVE",
"383 -15 CURVE SMOOTH"
);
},
{
closed = 1;
nodes = (
"256 79 OFFCURVE",
"191 174 OFFCURVE",
"191 347 CURVE SMOOTH",
"191 520 OFFCURVE",
"256 616 OFFCURVE",
"383 616 CURVE SMOOTH",
"510 616 OFFCURVE",
"575 520 OFFCURVE",
"575 347 CURVE SMOOTH",
"575 174 OFFCURVE",
"510 79 OFFCURVE",
"383 79 CURVE SMOOTH"
);
},
{
closed = 1;
nodes = (
"277 927 LINE",
"207 1056 LINE",
"115 995 LINE",
"217 885 LINE"
);
},
{
closed = 1;
nodes = (
"389 865 LINE",
"486 754 LINE",
"547 808 LINE",
"422 971 LINE",
"356 971 LINE",
"231 808 LINE",
"292 754 LINE"
);
}
);
width = 766;
}
);
note = Ocircumflexgrave;
unicode = 1ED2;
},
{
glyphname = Ocircumflexhookabove;
lastChange = "2015-07-16 19:31:59 +0000";
layers = (
{
layerId = "9EEBCA4B-DAAA-41A9-8636-8F7562732FC0";
name = Bold;
paths = (
{
closed = 1;
nodes = (
"571 -15 OFFCURVE",
"727 93 OFFCURVE",
"727 347 CURVE SMOOTH",
"727 601 OFFCURVE",
"571 710 OFFCURVE",
"383 710 CURVE SMOOTH",
"195 710 OFFCURVE",
"39 601 OFFCURVE",
"39 347 CURVE SMOOTH",
"39 93 OFFCURVE",
"195 -15 OFFCURVE",
"383 -15 CURVE SMOOTH"
);
},
{
closed = 1;
nodes = (
"256 79 OFFCURVE",
"191 174 OFFCURVE",
"191 347 CURVE SMOOTH",
"191 520 OFFCURVE",
"256 616 OFFCURVE",
"383 616 CURVE SMOOTH",
"510 616 OFFCURVE",
"575 520 OFFCURVE",
"575 347 CURVE SMOOTH",
"575 174 OFFCURVE",
"510 79 OFFCURVE",
"383 79 CURVE SMOOTH"
);
},
{
closed = 1;
nodes = (
"392 865 LINE",
"489 754 LINE",
"550 808 LINE",
"425 971 LINE",
"359 971 LINE",
"234 808 LINE",
"295 754 LINE"
);
},
{
closed = 1;
nodes = (
"604 886 LINE",
"611 935 LINE",
"660 953 OFFCURVE",
"689 985 OFFCURVE",
"689 1027 CURVE SMOOTH",
"689 1072 OFFCURVE",
"650 1113 OFFCURVE",
"580 1113 CURVE SMOOTH",
"552 1113 OFFCURVE",
"518 1103 OFFCURVE",
"499 1095 CURVE",
"508 1045 LINE",
"530 1051 OFFCURVE",
"547 1055 OFFCURVE",
"567 1055 CURVE SMOOTH",
"591 1055 OFFCURVE",
"599 1044 OFFCURVE",
"599 1026 CURVE SMOOTH",
"599 1000 OFFCURVE",
"573 983 OFFCURVE",
"533 968 CURVE",
"541 886 LINE"
);
}
);
width = 766;
}
);
note = Ocircumflexhookabove;
unicode = 1ED4;
},
{
glyphname = Ocircumflextilde;
lastChange = "2015-07-16 19:31:59 +0000";
layers = (
{
layerId = "9EEBCA4B-DAAA-41A9-8636-8F7562732FC0";
name = Bold;
paths = (
{
closed = 1;
nodes = (
"571 -15 OFFCURVE",
"727 93 OFFCURVE",
"727 347 CURVE SMOOTH",
"727 601 OFFCURVE",
"571 710 OFFCURVE",
"383 710 CURVE SMOOTH",
"195 710 OFFCURVE",
"39 601 OFFCURVE",
"39 347 CURVE SMOOTH",
"39 93 OFFCURVE",
"195 -15 OFFCURVE",
"383 -15 CURVE SMOOTH"
);
},
{
closed = 1;
nodes = (
"256 79 OFFCURVE",
"191 174 OFFCURVE",
"191 347 CURVE SMOOTH",
"191 520 OFFCURVE",
"256 616 OFFCURVE",
"383 616 CURVE SMOOTH",
"510 616 OFFCURVE",
"575 520 OFFCURVE",
"575 347 CURVE SMOOTH",
"575 174 OFFCURVE",
"510 79 OFFCURVE",
"383 79 CURVE SMOOTH"
);
},
{
closed = 1;
nodes = (
"458 747 OFFCURVE",
"529 787 OFFCURVE",
"558 891 CURVE",
"483 917 LINE",
"465 867 OFFCURVE",
"428 841 OFFCURVE",
"383 841 CURVE SMOOTH",
"338 841 OFFCURVE",
"301 867 OFFCURVE",
"283 917 CURVE",
"208 891 LINE",
"237 787 OFFCURVE",
"308 747 OFFCURVE",
"383 747 CURVE SMOOTH"
);
},
{
closed = 1;
nodes = (
"467 947 OFFCURVE",
"498 963 OFFCURVE",
"525 991 CURVE",
"486 1045 LINE",
"470 1033 OFFCURVE",
"455 1027 OFFCURVE",
"438 1027 CURVE SMOOTH",
"400 1027 OFFCURVE",
"370 1060 OFFCURVE",
"330 1060 CURVE SMOOTH",
"303 1060 OFFCURVE",
"268 1041 OFFCURVE",
"241 1017 CURVE",
"280 961 LINE",
"295 972 OFFCURVE",
"309 981 OFFCURVE",
"330 981 CURVE SMOOTH",
"368 981 OFFCURVE",
"398 947 OFFCURVE",
"439 947 CURVE SMOOTH"
);
}
);
width = 766;
}
);
note = Ocircumflextilde;
unicode = 1ED6;
},
{
glyphname = Odieresis;
lastChange = "2015-07-16 19:31:59 +0000";
layers = (
{
layerId = "9EEBCA4B-DAAA-41A9-8636-8F7562732FC0";
name = Bold;
paths = (
{
closed = 1;
nodes = (
"571 -15 OFFCURVE",
"727 93 OFFCURVE",
"727 347 CURVE SMOOTH",
"727 601 OFFCURVE",
"571 710 OFFCURVE",
"383 710 CURVE SMOOTH",
"195 710 OFFCURVE",
"39 601 OFFCURVE",
"39 347 CURVE SMOOTH",
"39 93 OFFCURVE",
"195 -15 OFFCURVE",
"383 -15 CURVE SMOOTH"
);
},
{
closed = 1;
nodes = (
"256 79 OFFCURVE",
"191 174 OFFCURVE",
"191 347 CURVE SMOOTH",
"191 520 OFFCURVE",
"256 616 OFFCURVE",
"383 616 CURVE SMOOTH",
"510 616 OFFCURVE",
"575 520 OFFCURVE",
"575 347 CURVE SMOOTH",
"575 174 OFFCURVE",
"510 79 OFFCURVE",
"383 79 CURVE SMOOTH"
);
},
{
closed = 1;
nodes = (
"316 765 OFFCURVE",
"348 795 OFFCURVE",
"348 836 CURVE SMOOTH",
"348 877 OFFCURVE",
"316 907 OFFCURVE",
"278 907 CURVE SMOOTH",
"239 907 OFFCURVE",
"207 877 OFFCURVE",
"207 836 CURVE SMOOTH",
"207 795 OFFCURVE",
"239 765 OFFCURVE",
"278 765 CURVE SMOOTH"
);
},
{
closed = 1;
nodes = (
"528 765 OFFCURVE",
"560 795 OFFCURVE",
"560 836 CURVE SMOOTH",
"560 877 OFFCURVE",
"528 907 OFFCURVE",
"490 907 CURVE SMOOTH",
"451 907 OFFCURVE",
"419 877 OFFCURVE",
"419 836 CURVE SMOOTH",
"419 795 OFFCURVE",
"451 765 OFFCURVE",
"490 765 CURVE SMOOTH"
);
}
);
width = 766;
}
);
note = Odieresis;
unicode = 00D6;
},
{
glyphname = Odotbelow;
lastChange = "2015-07-16 19:31:59 +0000";
layers = (
{
layerId = "9EEBCA4B-DAAA-41A9-8636-8F7562732FC0";
name = Bold;
paths = (
{
closed = 1;
nodes = (
"571 -15 OFFCURVE",
"727 93 OFFCURVE",
"727 347 CURVE SMOOTH",
"727 601 OFFCURVE",
"571 710 OFFCURVE",
"383 710 CURVE SMOOTH",
"195 710 OFFCURVE",
"39 601 OFFCURVE",
"39 347 CURVE SMOOTH",
"39 93 OFFCURVE",
"195 -15 OFFCURVE",
"383 -15 CURVE SMOOTH"
);
},
{
closed = 1;
nodes = (
"422 -208 OFFCURVE",
"454 -178 OFFCURVE",
"454 -137 CURVE SMOOTH",
"454 -96 OFFCURVE",
"422 -66 OFFCURVE",
"384 -66 CURVE SMOOTH",
"345 -66 OFFCURVE",
"313 -96 OFFCURVE",
"313 -137 CURVE SMOOTH",
"313 -178 OFFCURVE",
"345 -208 OFFCURVE",
"384 -208 CURVE SMOOTH"
);
},
{
closed = 1;
nodes = (
"256 79 OFFCURVE",
"191 174 OFFCURVE",
"191 347 CURVE SMOOTH",
"191 520 OFFCURVE",
"256 616 OFFCURVE",
"383 616 CURVE SMOOTH",
"510 616 OFFCURVE",
"575 520 OFFCURVE",
"575 347 CURVE SMOOTH",
"575 174 OFFCURVE",
"510 79 OFFCURVE",
"383 79 CURVE SMOOTH"
);
}
);
width = 766;
}
);
note = Odotbelow;
unicode = 1ECC;
},
{
glyphname = Ograve;
lastChange = "2015-07-16 19:31:59 +0000";
layers = (
{
layerId = "9EEBCA4B-DAAA-41A9-8636-8F7562732FC0";
name = Bold;
paths = (
{
closed = 1;
nodes = (
"571 -15 OFFCURVE",
"727 93 OFFCURVE",
"727 347 CURVE SMOOTH",
"727 601 OFFCURVE",
"571 710 OFFCURVE",
"383 710 CURVE SMOOTH",
"195 710 OFFCURVE",
"39 601 OFFCURVE",
"39 347 CURVE SMOOTH",
"39 93 OFFCURVE",
"195 -15 OFFCURVE",
"383 -15 CURVE SMOOTH"
);
},
{
closed = 1;
nodes = (
"256 79 OFFCURVE",
"191 174 OFFCURVE",
"191 347 CURVE SMOOTH",
"191 520 OFFCURVE",
"256 616 OFFCURVE",
"383 616 CURVE SMOOTH",
"510 616 OFFCURVE",
"575 520 OFFCURVE",
"575 347 CURVE SMOOTH",
"575 174 OFFCURVE",
"510 79 OFFCURVE",
"383 79 CURVE SMOOTH"
);
},
{
closed = 1;
nodes = (
"450 808 LINE",
"339 996 LINE",
"234 927 LINE",
"370 755 LINE"
);
}
);
width = 766;
}
);
note = Ograve;
unicode = 00D2;
},
{
glyphname = Ohookabove;
lastChange = "2015-07-16 19:31:59 +0000";
layers = (
{
layerId = "9EEBCA4B-DAAA-41A9-8636-8F7562732FC0";
name = Bold;
paths = (
{
closed = 1;
nodes = (
"571 -15 OFFCURVE",
"727 93 OFFCURVE",
"727 347 CURVE SMOOTH",
"727 601 OFFCURVE",
"571 710 OFFCURVE",
"383 710 CURVE SMOOTH",
"195 710 OFFCURVE",
"39 601 OFFCURVE",
"39 347 CURVE SMOOTH",
"39 93 OFFCURVE",
"195 -15 OFFCURVE",
"383 -15 CURVE SMOOTH"
);
},
{
closed = 1;
nodes = (
"256 79 OFFCURVE",
"191 174 OFFCURVE",
"191 347 CURVE SMOOTH",
"191 520 OFFCURVE",
"256 616 OFFCURVE",
"383 616 CURVE SMOOTH",
"510 616 OFFCURVE",
"575 520 OFFCURVE",
"575 347 CURVE SMOOTH",
"575 174 OFFCURVE",
"510 79 OFFCURVE",
"383 79 CURVE SMOOTH"
);
},
{
closed = 1;
nodes = (
"427 750 LINE",
"434 799 LINE",
"483 817 OFFCURVE",
"512 849 OFFCURVE",
"512 891 CURVE SMOOTH",
"512 936 OFFCURVE",
"473 977 OFFCURVE",
"403 977 CURVE SMOOTH",
"375 977 OFFCURVE",
"341 967 OFFCURVE",
"322 959 CURVE",
"331 909 LINE",
"353 915 OFFCURVE",
"370 919 OFFCURVE",
"390 919 CURVE SMOOTH",
"414 919 OFFCURVE",
"422 908 OFFCURVE",
"422 890 CURVE SMOOTH",
"422 864 OFFCURVE",
"396 847 OFFCURVE",
"356 832 CURVE",
"364 750 LINE"
);
}
);
width = 766;
}
);
note = Ohookabove;
unicode = 1ECE;
},
{
glyphname = Ohorn;
lastChange = "2015-07-16 19:31:59 +0000";
layers = (
{
layerId = "9EEBCA4B-DAAA-41A9-8636-8F7562732FC0";
name = Bold;
paths = (
{
closed = 1;
nodes = (
"571 -15 OFFCURVE",
"727 93 OFFCURVE",
"727 347 CURVE SMOOTH",
"727 449 OFFCURVE",
"702 527 OFFCURVE",
"660 585 CURVE",
"720 622 OFFCURVE",
"783 682 OFFCURVE",
"783 768 CURVE",
"631 768 LINE",
"631 718 OFFCURVE",
"617 676 OFFCURVE",
"590 651 CURVE",
"532 690 OFFCURVE",
"460 710 OFFCURVE",
"383 710 CURVE SMOOTH",
"195 710 OFFCURVE",
"39 601 OFFCURVE",
"39 347 CURVE SMOOTH",
"39 93 OFFCURVE",
"195 -15 OFFCURVE",
"383 -15 CURVE SMOOTH"
);
},
{
closed = 1;
nodes = (
"256 79 OFFCURVE",
"191 174 OFFCURVE",
"191 347 CURVE SMOOTH",
"191 520 OFFCURVE",
"256 616 OFFCURVE",
"383 616 CURVE SMOOTH",
"510 616 OFFCURVE",
"575 520 OFFCURVE",
"575 347 CURVE SMOOTH",
"575 174 OFFCURVE",
"510 79 OFFCURVE",
"383 79 CURVE SMOOTH"
);
}
);
width = 811;
}
);
note = Ohorn;
unicode = 01A0;
},
{
glyphname = Ohornacute;
lastChange = "2015-07-16 19:31:59 +0000";
layers = (
{
layerId = "9EEBCA4B-DAAA-41A9-8636-8F7562732FC0";
name = Bold;
paths = (
{
closed = 1;
nodes = (
"571 -15 OFFCURVE",
"727 93 OFFCURVE",
"727 347 CURVE SMOOTH",
"727 449 OFFCURVE",
"702 527 OFFCURVE",
"660 585 CURVE",
"720 622 OFFCURVE",
"783 682 OFFCURVE",
"783 768 CURVE",
"631 768 LINE",
"631 718 OFFCURVE",
"617 676 OFFCURVE",
"590 651 CURVE",
"532 690 OFFCURVE",
"460 710 OFFCURVE",
"383 710 CURVE SMOOTH",
"195 710 OFFCURVE",
"39 601 OFFCURVE",
"39 347 CURVE SMOOTH",
"39 93 OFFCURVE",
"195 -15 OFFCURVE",
"383 -15 CURVE SMOOTH"
);
},
{
closed = 1;
nodes = (
"256 79 OFFCURVE",
"191 174 OFFCURVE",
"191 347 CURVE SMOOTH",
"191 520 OFFCURVE",
"256 616 OFFCURVE",
"383 616 CURVE SMOOTH",
"510 616 OFFCURVE",
"575 520 OFFCURVE",
"575 347 CURVE SMOOTH",
"575 174 OFFCURVE",
"510 79 OFFCURVE",
"383 79 CURVE SMOOTH"
);
},
{
closed = 1;
nodes = (
"490 926 LINE",
"385 995 LINE",
"274 807 LINE",
"354 754 LINE"
);
}
);
width = 811;
}
);
note = Ohornacute;
unicode = 1EDA;
},
{
glyphname = Ohorndotbelow;
lastChange = "2015-07-16 19:31:59 +0000";
layers = (
{
layerId = "9EEBCA4B-DAAA-41A9-8636-8F7562732FC0";
name = Bold;
paths = (
{
closed = 1;
nodes = (
"571 -15 OFFCURVE",
"727 93 OFFCURVE",
"727 347 CURVE SMOOTH",
"727 449 OFFCURVE",
"702 527 OFFCURVE",
"660 585 CURVE",
"720 622 OFFCURVE",
"783 682 OFFCURVE",
"783 768 CURVE",
"631 768 LINE",
"631 718 OFFCURVE",
"617 676 OFFCURVE",
"590 651 CURVE",
"532 690 OFFCURVE",
"460 710 OFFCURVE",
"383 710 CURVE SMOOTH",
"195 710 OFFCURVE",
"39 601 OFFCURVE",
"39 347 CURVE SMOOTH",
"39 93 OFFCURVE",
"195 -15 OFFCURVE",
"383 -15 CURVE SMOOTH"
);
},
{
closed = 1;
nodes = (
"428 -208 OFFCURVE",
"460 -178 OFFCURVE",
"460 -137 CURVE SMOOTH",
"460 -96 OFFCURVE",
"428 -66 OFFCURVE",
"390 -66 CURVE SMOOTH",
"351 -66 OFFCURVE",
"319 -96 OFFCURVE",
"319 -137 CURVE SMOOTH",
"319 -178 OFFCURVE",
"351 -208 OFFCURVE",
"390 -208 CURVE SMOOTH"
);
},
{
closed = 1;
nodes = (
"256 79 OFFCURVE",
"191 174 OFFCURVE",
"191 347 CURVE SMOOTH",
"191 520 OFFCURVE",
"256 616 OFFCURVE",
"383 616 CURVE SMOOTH",
"510 616 OFFCURVE",
"575 520 OFFCURVE",
"575 347 CURVE SMOOTH",
"575 174 OFFCURVE",
"510 79 OFFCURVE",
"383 79 CURVE SMOOTH"
);
}
);
width = 811;
}
);
note = Ohorndotbelow;
unicode = 1EE2;
},
{
glyphname = Ohorngrave;
lastChange = "2015-07-16 19:31:59 +0000";
layers = (
{
layerId = "9EEBCA4B-DAAA-41A9-8636-8F7562732FC0";
name = Bold;
paths = (
{
closed = 1;
nodes = (
"571 -15 OFFCURVE",
"727 93 OFFCURVE",
"727 347 CURVE SMOOTH",
"727 449 OFFCURVE",
"702 527 OFFCURVE",
"660 585 CURVE",
"720 622 OFFCURVE",
"783 682 OFFCURVE",
"783 768 CURVE",
"631 768 LINE",
"631 718 OFFCURVE",
"617 676 OFFCURVE",
"590 651 CURVE",
"532 690 OFFCURVE",
"460 710 OFFCURVE",
"383 710 CURVE SMOOTH",
"195 710 OFFCURVE",
"39 601 OFFCURVE",
"39 347 CURVE SMOOTH",
"39 93 OFFCURVE",
"195 -15 OFFCURVE",
"383 -15 CURVE SMOOTH"
);
},
{
closed = 1;
nodes = (
"256 79 OFFCURVE",
"191 174 OFFCURVE",
"191 347 CURVE SMOOTH",
"191 520 OFFCURVE",
"256 616 OFFCURVE",
"383 616 CURVE SMOOTH",
"510 616 OFFCURVE",
"575 520 OFFCURVE",
"575 347 CURVE SMOOTH",
"575 174 OFFCURVE",
"510 79 OFFCURVE",
"383 79 CURVE SMOOTH"
);
},
{
closed = 1;
nodes = (
"470 808 LINE",
"359 996 LINE",
"254 927 LINE",
"390 755 LINE"
);
}
);
width = 811;
}
);
note = Ohorngrave;
unicode = 1EDC;
},
{
glyphname = Ohornhookabove;
lastChange = "2015-07-16 19:31:59 +0000";
layers = (
{
layerId = "9EEBCA4B-DAAA-41A9-8636-8F7562732FC0";
name = Bold;
paths = (
{
closed = 1;
nodes = (
"571 -15 OFFCURVE",
"727 93 OFFCURVE",
"727 347 CURVE SMOOTH",
"727 449 OFFCURVE",
"702 527 OFFCURVE",
"660 585 CURVE",
"720 622 OFFCURVE",
"783 682 OFFCURVE",
"783 768 CURVE",
"631 768 LINE",
"631 718 OFFCURVE",
"617 676 OFFCURVE",
"590 651 CURVE",
"532 690 OFFCURVE",
"460 710 OFFCURVE",
"383 710 CURVE SMOOTH",
"195 710 OFFCURVE",
"39 601 OFFCURVE",
"39 347 CURVE SMOOTH",
"39 93 OFFCURVE",
"195 -15 OFFCURVE",
"383 -15 CURVE SMOOTH"
);
},
{
closed = 1;
nodes = (
"256 79 OFFCURVE",
"191 174 OFFCURVE",
"191 347 CURVE SMOOTH",
"191 520 OFFCURVE",
"256 616 OFFCURVE",
"383 616 CURVE SMOOTH",
"510 616 OFFCURVE",
"575 520 OFFCURVE",
"575 347 CURVE SMOOTH",
"575 174 OFFCURVE",
"510 79 OFFCURVE",
"383 79 CURVE SMOOTH"
);
},
{
closed = 1;
nodes = (
"417 750 LINE",
"424 799 LINE",
"473 817 OFFCURVE",
"502 849 OFFCURVE",
"502 891 CURVE SMOOTH",
"502 936 OFFCURVE",
"463 977 OFFCURVE",
"393 977 CURVE SMOOTH",
"365 977 OFFCURVE",
"331 967 OFFCURVE",
"312 959 CURVE",
"321 909 LINE",
"343 915 OFFCURVE",
"360 919 OFFCURVE",
"380 919 CURVE SMOOTH",
"404 919 OFFCURVE",
"412 908 OFFCURVE",
"412 890 CURVE SMOOTH",
"412 864 OFFCURVE",
"386 847 OFFCURVE",
"346 832 CURVE",
"354 750 LINE"
);
}
);
width = 811;
}
);
note = Ohornhookabove;
unicode = 1EDE;
},
{
glyphname = Ohorntilde;
lastChange = "2015-07-16 19:31:59 +0000";
layers = (
{
layerId = "9EEBCA4B-DAAA-41A9-8636-8F7562732FC0";
name = Bold;
paths = (
{
closed = 1;
nodes = (
"571 -15 OFFCURVE",
"727 93 OFFCURVE",
"727 347 CURVE SMOOTH",
"727 449 OFFCURVE",
"702 527 OFFCURVE",
"660 585 CURVE",
"720 622 OFFCURVE",
"783 682 OFFCURVE",
"783 768 CURVE",
"631 768 LINE",
"631 718 OFFCURVE",
"617 676 OFFCURVE",
"590 651 CURVE",
"532 690 OFFCURVE",
"460 710 OFFCURVE",
"383 710 CURVE SMOOTH",
"195 710 OFFCURVE",
"39 601 OFFCURVE",
"39 347 CURVE SMOOTH",
"39 93 OFFCURVE",
"195 -15 OFFCURVE",
"383 -15 CURVE SMOOTH"
);
},
{
closed = 1;
nodes = (
"256 79 OFFCURVE",
"191 174 OFFCURVE",
"191 347 CURVE SMOOTH",
"191 520 OFFCURVE",
"256 616 OFFCURVE",
"383 616 CURVE SMOOTH",
"510 616 OFFCURVE",
"575 520 OFFCURVE",
"575 347 CURVE SMOOTH",
"575 174 OFFCURVE",
"510 79 OFFCURVE",
"383 79 CURVE SMOOTH"
);
},
{
closed = 1;
nodes = (
"482 765 OFFCURVE",
"520 784 OFFCURVE",
"553 818 CURVE",
"506 885 LINE",
"486 870 OFFCURVE",
"468 862 OFFCURVE",
"447 862 CURVE SMOOTH",
"401 862 OFFCURVE",
"364 903 OFFCURVE",
"316 903 CURVE SMOOTH",
"282 903 OFFCURVE",
"240 880 OFFCURVE",
"207 850 CURVE",
"254 782 LINE",
"273 796 OFFCURVE",
"290 806 OFFCURVE",
"316 806 CURVE SMOOTH",
"362 806 OFFCURVE",
"399 765 OFFCURVE",
"448 765 CURVE SMOOTH"
);
}
);
width = 811;
}
);
note = Ohorntilde;
unicode = 1EE0;
},
{
glyphname = Ohungarumlaut;
lastChange = "2015-07-16 19:31:59 +0000";
layers = (
{
layerId = "9EEBCA4B-DAAA-41A9-8636-8F7562732FC0";
name = Bold;
paths = (
{
closed = 1;
nodes = (
"571 -15 OFFCURVE",
"727 93 OFFCURVE",
"727 347 CURVE SMOOTH",
"727 601 OFFCURVE",
"571 710 OFFCURVE",
"383 710 CURVE SMOOTH",
"195 710 OFFCURVE",
"39 601 OFFCURVE",
"39 347 CURVE SMOOTH",
"39 93 OFFCURVE",
"195 -15 OFFCURVE",
"383 -15 CURVE SMOOTH"
);
},
{
closed = 1;
nodes = (
"256 79 OFFCURVE",
"191 174 OFFCURVE",
"191 347 CURVE SMOOTH",
"191 520 OFFCURVE",
"256 616 OFFCURVE",
"383 616 CURVE SMOOTH",
"510 616 OFFCURVE",
"575 520 OFFCURVE",
"575 347 CURVE SMOOTH",
"575 174 OFFCURVE",
"510 79 OFFCURVE",
"383 79 CURVE SMOOTH"
);
},
{
closed = 1;
nodes = (
"453 977 LINE",
"363 1031 LINE",
"232 817 LINE",
"291 776 LINE"
);
},
{
closed = 1;
nodes = (
"653 977 LINE",
"563 1031 LINE",
"432 817 LINE",
"491 776 LINE"
);
}
);
width = 766;
}
);
note = Ohungarumlaut;
unicode = 0150;
},
{
glyphname = Omacron;
lastChange = "2015-07-16 19:31:59 +0000";
layers = (
{
layerId = "9EEBCA4B-DAAA-41A9-8636-8F7562732FC0";
name = Bold;
paths = (
{
closed = 1;
nodes = (
"571 -15 OFFCURVE",
"727 93 OFFCURVE",
"727 347 CURVE SMOOTH",
"727 601 OFFCURVE",
"571 710 OFFCURVE",
"383 710 CURVE SMOOTH",
"195 710 OFFCURVE",
"39 601 OFFCURVE",
"39 347 CURVE SMOOTH",
"39 93 OFFCURVE",
"195 -15 OFFCURVE",
"383 -15 CURVE SMOOTH"
);
},
{
closed = 1;
nodes = (
"256 79 OFFCURVE",
"191 174 OFFCURVE",
"191 347 CURVE SMOOTH",
"191 520 OFFCURVE",
"256 616 OFFCURVE",
"383 616 CURVE SMOOTH",
"510 616 OFFCURVE",
"575 520 OFFCURVE",
"575 347 CURVE SMOOTH",
"575 174 OFFCURVE",
"510 79 OFFCURVE",
"383 79 CURVE SMOOTH"
);
},
{
closed = 1;
nodes = (
"533 788 LINE",
"533 882 LINE",
"233 882 LINE",
"233 788 LINE"
);
}
);
width = 766;
}
);
note = Omacron;
unicode = 014C;
},
{
glyphname = Oslash;
lastChange = "2015-07-16 19:31:59 +0000";
layers = (
{
layerId = "9EEBCA4B-DAAA-41A9-8636-8F7562732FC0";
name = Bold;
paths = (
{
closed = 1;
nodes = (
"231 15 LINE",
"278 -5 OFFCURVE",
"332 -15 OFFCURVE",
"388 -15 CURVE SMOOTH",
"576 -15 OFFCURVE",
"732 93 OFFCURVE",
"732 347 CURVE SMOOTH",
"732 477 OFFCURVE",
"691 569 OFFCURVE",
"626 628 CURVE",
"682 716 LINE",
"599 763 LINE",
"545 680 LINE",
"498 700 OFFCURVE",
"444 710 OFFCURVE",
"388 710 CURVE SMOOTH",
"200 710 OFFCURVE",
"44 601 OFFCURVE",
"44 347 CURVE SMOOTH",
"44 217 OFFCURVE",
"85 125 OFFCURVE",
"151 66 CURVE",
"74 -53 LINE",
"156 -101 LINE"
);
},
{
closed = 1;
nodes = (
"349 79 OFFCURVE",
"316 88 OFFCURVE",
"289 105 CURVE",
"551 512 LINE",
"570 470 OFFCURVE",
"580 414 OFFCURVE",
"580 347 CURVE SMOOTH",
"580 174 OFFCURVE",
"515 79 OFFCURVE",
"388 79 CURVE SMOOTH"
);
},
{
closed = 1;
nodes = (
"206 225 OFFCURVE",
"196 280 OFFCURVE",
"196 347 CURVE SMOOTH",
"196 520 OFFCURVE",
"261 616 OFFCURVE",
"388 616 CURVE SMOOTH",
"427 616 OFFCURVE",
"460 607 OFFCURVE",
"487 589 CURVE",
"225 182 LINE"
);
}
);
width = 777;
}
);
note = Oslash;
unicode = 00D8;
},
{
glyphname = Oslashacute;
lastChange = "2015-07-16 19:31:59 +0000";
layers = (
{
layerId = "9EEBCA4B-DAAA-41A9-8636-8F7562732FC0";
name = Bold;
paths = (
{
closed = 1;
nodes = (
"231 15 LINE",
"278 -5 OFFCURVE",
"332 -15 OFFCURVE",
"388 -15 CURVE SMOOTH",
"576 -15 OFFCURVE",
"732 93 OFFCURVE",
"732 347 CURVE SMOOTH",
"732 477 OFFCURVE",
"691 569 OFFCURVE",
"626 628 CURVE",
"682 716 LINE",
"599 763 LINE",
"545 680 LINE",
"498 700 OFFCURVE",
"444 710 OFFCURVE",
"388 710 CURVE SMOOTH",
"200 710 OFFCURVE",
"44 601 OFFCURVE",
"44 347 CURVE SMOOTH",
"44 217 OFFCURVE",
"85 125 OFFCURVE",
"151 66 CURVE",
"74 -53 LINE",
"156 -101 LINE"
);
},
{
closed = 1;
nodes = (
"349 79 OFFCURVE",
"316 88 OFFCURVE",
"289 105 CURVE",
"551 512 LINE",
"570 470 OFFCURVE",
"580 414 OFFCURVE",
"580 347 CURVE SMOOTH",
"580 174 OFFCURVE",
"515 79 OFFCURVE",
"388 79 CURVE SMOOTH"
);
},
{
closed = 1;
nodes = (
"206 225 OFFCURVE",
"196 280 OFFCURVE",
"196 347 CURVE SMOOTH",
"196 520 OFFCURVE",
"261 616 OFFCURVE",
"388 616 CURVE SMOOTH",
"427 616 OFFCURVE",
"460 607 OFFCURVE",
"487 589 CURVE",
"225 182 LINE"
);
},
{
closed = 1;
nodes = (
"515 926 LINE",
"410 995 LINE",
"299 807 LINE",
"379 754 LINE"
);
}
);
width = 777;
}
);
note = Oslashacute;
unicode = 01FE;
},
{
glyphname = Otilde;
lastChange = "2015-07-16 19:31:59 +0000";
layers = (
{
layerId = "9EEBCA4B-DAAA-41A9-8636-8F7562732FC0";
name = Bold;
paths = (
{
closed = 1;
nodes = (
"571 -15 OFFCURVE",
"727 93 OFFCURVE",
"727 347 CURVE SMOOTH",
"727 601 OFFCURVE",
"571 710 OFFCURVE",
"383 710 CURVE SMOOTH",
"195 710 OFFCURVE",
"39 601 OFFCURVE",
"39 347 CURVE SMOOTH",
"39 93 OFFCURVE",
"195 -15 OFFCURVE",
"383 -15 CURVE SMOOTH"
);
},
{
closed = 1;
nodes = (
"256 79 OFFCURVE",
"191 174 OFFCURVE",
"191 347 CURVE SMOOTH",
"191 520 OFFCURVE",
"256 616 OFFCURVE",
"383 616 CURVE SMOOTH",
"510 616 OFFCURVE",
"575 520 OFFCURVE",
"575 347 CURVE SMOOTH",
"575 174 OFFCURVE",
"510 79 OFFCURVE",
"383 79 CURVE SMOOTH"
);
},
{
closed = 1;
nodes = (
"485 765 OFFCURVE",
"523 784 OFFCURVE",
"556 818 CURVE",
"509 885 LINE",
"489 870 OFFCURVE",
"471 862 OFFCURVE",
"450 862 CURVE SMOOTH",
"404 862 OFFCURVE",
"367 903 OFFCURVE",
"319 903 CURVE SMOOTH",
"285 903 OFFCURVE",
"243 880 OFFCURVE",
"210 850 CURVE",
"257 782 LINE",
"276 796 OFFCURVE",
"293 806 OFFCURVE",
"319 806 CURVE SMOOTH",
"365 806 OFFCURVE",
"402 765 OFFCURVE",
"451 765 CURVE SMOOTH"
);
}
);
width = 766;
}
);
note = Otilde;
unicode = 00D5;
},
{
glyphname = OE;
lastChange = "2015-07-16 19:32:00 +0000";
layers = (
{
layerId = "9EEBCA4B-DAAA-41A9-8636-8F7562732FC0";
name = Bold;
paths = (
{
closed = 1;
nodes = (
"480 -15 OFFCURVE",
"532 -9 OFFCURVE",
"585 0 CURVE",
"1089 0 LINE",
"1089 172 LINE SMOOTH",
"1089 186 OFFCURVE",
"1084 195 OFFCURVE",
"1066 195 CURVE SMOOTH",
"1046 195 OFFCURVE",
"1035 172 OFFCURVE",
"1018 125 CURVE SMOOTH",
"1006 92 LINE",
"708 92 LINE",
"708 310 LINE",
"925 310 LINE",
"942 274 LINE SMOOTH",
"954 249 OFFCURVE",
"964 237 OFFCURVE",
"977 237 CURVE SMOOTH",
"993 237 OFFCURVE",
"998 247 OFFCURVE",
"998 257 CURVE SMOOTH",
"998 453 LINE SMOOTH",
"998 463 OFFCURVE",
"993 473 OFFCURVE",
"977 473 CURVE SMOOTH",
"964 473 OFFCURVE",
"954 461 OFFCURVE",
"942 436 CURVE SMOOTH",
"925 400 LINE",
"708 400 LINE",
"708 603 LINE",
"991 603 LINE",
"1003 570 LINE SMOOTH",
"1020 523 OFFCURVE",
"1031 500 OFFCURVE",
"1051 500 CURVE SMOOTH",
"1069 500 OFFCURVE",
"1074 509 OFFCURVE",
"1074 523 CURVE SMOOTH",
"1074 695 LINE",
"498 695 LINE",
"465 703 OFFCURVE",
"419 710 OFFCURVE",
"383 710 CURVE SMOOTH",
"210 710 OFFCURVE",
"39 590 OFFCURVE",
"39 349 CURVE SMOOTH",
"39 82 OFFCURVE",
"224 -15 OFFCURVE",
"428 -15 CURVE SMOOTH"
);
},
{
closed = 1;
nodes = (
"293 79 OFFCURVE",
"191 168 OFFCURVE",
"191 349 CURVE SMOOTH",
"191 547 OFFCURVE",
"301 616 OFFCURVE",
"434 616 CURVE SMOOTH",
"474 616 OFFCURVE",
"516 611 OFFCURVE",
"558 600 CURVE",
"558 95 LINE",
"507 82 OFFCURVE",
"474 79 OFFCURVE",
"415 79 CURVE SMOOTH"
);
}
);
width = 1148;
}
);
note = OE;
unicode = 0152;
},
{
glyphname = P;
lastChange = "2015-07-16 19:32:00 +0000";
layers = (
{
layerId = "9EEBCA4B-DAAA-41A9-8636-8F7562732FC0";
name = Bold;
paths = (
{
closed = 1;
nodes = (
"349 0 LINE SMOOTH",
"364 0 OFFCURVE",
"368 7 OFFCURVE",
"368 20 CURVE SMOOTH",
"368 40 OFFCURVE",
"352 48 OFFCURVE",
"316 65 CURVE SMOOTH",
"276 84 LINE",
"276 263 LINE",
"394 263 LINE SMOOTH",
"547 263 OFFCURVE",
"647 348 OFFCURVE",
"647 479 CURVE SMOOTH",
"647 610 OFFCURVE",
"547 695 OFFCURVE",
"394 695 CURVE SMOOTH",
"69 695 LINE SMOOTH",
"57 695 OFFCURVE",
"47 687 OFFCURVE",
"47 666 CURVE SMOOTH",
"47 636 OFFCURVE",
"67 625 OFFCURVE",
"113 607 CURVE SMOOTH",
"126 602 LINE",
"126 85 LINE",
"117 85 LINE SMOOTH",
"78 85 OFFCURVE",
"51 69 OFFCURVE",
"51 35 CURVE SMOOTH",
"51 13 OFFCURVE",
"61 0 OFFCURVE",
"80 0 CURVE SMOOTH"
);
},
{
closed = 1;
nodes = (
"276 601 LINE",
"380 601 LINE SMOOTH",
"451 601 OFFCURVE",
"497 553 OFFCURVE",
"497 479 CURVE SMOOTH",
"497 405 OFFCURVE",
"451 357 OFFCURVE",
"380 357 CURVE SMOOTH",
"276 357 LINE"
);
}
);
width = 665;
}
);
note = P;
unicode = 0050;
},
{
glyphname = Thorn;
lastChange = "2015-07-16 19:31:59 +0000";
layers = (
{
layerId = "9EEBCA4B-DAAA-41A9-8636-8F7562732FC0";
name = Bold;
paths = (
{
closed = 1;
nodes = (
"335 0 LINE SMOOTH",
"350 0 OFFCURVE",
"354 7 OFFCURVE",
"354 20 CURVE SMOOTH",
"354 40 OFFCURVE",
"341 50 OFFCURVE",
"310 65 CURVE SMOOTH",
"272 84 LINE",
"272 138 LINE",
"317 124 OFFCURVE",
"364 118 OFFCURVE",
"408 118 CURVE SMOOTH",
"564 118 OFFCURVE",
"698 184 OFFCURVE",
"698 352 CURVE SMOOTH",
"698 520 OFFCURVE",
"564 586 OFFCURVE",
"408 586 CURVE SMOOTH",
"364 586 OFFCURVE",
"317 580 OFFCURVE",
"272 566 CURVE",
"272 611 LINE",
"310 630 LINE SMOOTH",
"341 645 OFFCURVE",
"354 655 OFFCURVE",
"354 675 CURVE SMOOTH",
"354 688 OFFCURVE",
"350 695 OFFCURVE",
"335 695 CURVE SMOOTH",
"113 695 LINE SMOOTH",
"74 695 OFFCURVE",
"47 679 OFFCURVE",
"47 645 CURVE SMOOTH",
"47 623 OFFCURVE",
"57 610 OFFCURVE",
"76 610 CURVE SMOOTH",
"122 610 LINE",
"122 85 LINE",
"113 85 LINE SMOOTH",
"74 85 OFFCURVE",
"47 69 OFFCURVE",
"47 35 CURVE SMOOTH",
"47 13 OFFCURVE",
"57 0 OFFCURVE",
"76 0 CURVE SMOOTH"
);
},
{
closed = 1;
nodes = (
"367 212 OFFCURVE",
"326 217 OFFCURVE",
"272 234 CURVE",
"272 471 LINE",
"326 488 OFFCURVE",
"367 493 OFFCURVE",
"408 493 CURVE SMOOTH",
"510 493 OFFCURVE",
"548 436 OFFCURVE",
"548 352 CURVE SMOOTH",
"548 268 OFFCURVE",
"510 212 OFFCURVE",
"408 212 CURVE SMOOTH"
);
}
);
width = 742;
}
);
note = Thorn;
unicode = 00DE;
},
{
glyphname = Q;
lastChange = "2015-07-16 19:31:59 +0000";
layers = (
{
layerId = "9EEBCA4B-DAAA-41A9-8636-8F7562732FC0";
name = Bold;
paths = (
{
closed = 1;
nodes = (
"580 -160 OFFCURVE",
"605 -141 OFFCURVE",
"605 -102 CURVE SMOOTH",
"605 -71 OFFCURVE",
"587 -60 OFFCURVE",
"545 -47 CURVE SMOOTH",
"513 -37 OFFCURVE",
"485 -26 OFFCURVE",
"458 -13 CURVE SMOOTH",
"452 -10 LINE",
"607 14 OFFCURVE",
"727 125 OFFCURVE",
"727 347 CURVE SMOOTH",
"727 601 OFFCURVE",
"571 710 OFFCURVE",
"383 710 CURVE SMOOTH",
"195 710 OFFCURVE",
"39 601 OFFCURVE",
"39 347 CURVE SMOOTH",
"39 121 OFFCURVE",
"162 11 OFFCURVE",
"322 -11 CURVE",
"343 -36 OFFCURVE",
"366 -62 OFFCURVE",
"391 -85 CURVE SMOOTH",
"436 -127 OFFCURVE",
"486 -160 OFFCURVE",
"539 -160 CURVE SMOOTH"
);
},
{
closed = 1;
nodes = (
"256 79 OFFCURVE",
"191 174 OFFCURVE",
"191 347 CURVE SMOOTH",
"191 520 OFFCURVE",
"256 616 OFFCURVE",
"383 616 CURVE SMOOTH",
"510 616 OFFCURVE",
"575 520 OFFCURVE",
"575 347 CURVE SMOOTH",
"575 174 OFFCURVE",
"510 79 OFFCURVE",
"383 79 CURVE SMOOTH"
);
}
);
width = 766;
}
);
note = Q;
unicode = 0051;
},
{
glyphname = R;
lastChange = "2015-07-16 19:31:59 +0000";
layers = (
{
layerId = "9EEBCA4B-DAAA-41A9-8636-8F7562732FC0";
name = Bold;
paths = (
{
closed = 1;
nodes = (
"339 0 LINE SMOOTH",
"354 0 OFFCURVE",
"358 7 OFFCURVE",
"358 20 CURVE SMOOTH",
"358 40 OFFCURVE",
"345 50 OFFCURVE",
"314 65 CURVE SMOOTH",
"276 84 LINE",
"276 289 LINE",
"500 0 LINE",
"708 0 LINE SMOOTH",
"723 0 OFFCURVE",
"727 8 OFFCURVE",
"727 21 CURVE SMOOTH",
"727 41 OFFCURVE",
"712 53 OFFCURVE",
"680 64 CURVE SMOOTH",
"632 81 LINE",
"451 294 LINE",
"573 309 OFFCURVE",
"647 376 OFFCURVE",
"647 491 CURVE SMOOTH",
"647 622 OFFCURVE",
"550 695 OFFCURVE",
"397 695 CURVE SMOOTH",
"69 695 LINE SMOOTH",
"57 695 OFFCURVE",
"47 687 OFFCURVE",
"47 666 CURVE SMOOTH",
"47 638 OFFCURVE",
"70 629 OFFCURVE",
"113 613 CURVE SMOOTH",
"126 608 LINE",
"126 85 LINE",
"117 85 LINE SMOOTH",
"78 85 OFFCURVE",
"51 69 OFFCURVE",
"51 35 CURVE SMOOTH",
"51 13 OFFCURVE",
"61 0 OFFCURVE",
"80 0 CURVE SMOOTH"
);
},
{
closed = 1;
nodes = (
"276 607 LINE",
"383 607 LINE SMOOTH",
"454 607 OFFCURVE",
"497 565 OFFCURVE",
"497 491 CURVE SMOOTH",
"497 417 OFFCURVE",
"454 375 OFFCURVE",
"383 375 CURVE SMOOTH",
"276 375 LINE"
);
}
);
width = 736;
}
);
note = R;
unicode = 0052;
},
{
glyphname = Racute;
lastChange = "2015-07-16 19:31:59 +0000";
layers = (
{
layerId = "9EEBCA4B-DAAA-41A9-8636-8F7562732FC0";
name = Bold;
paths = (
{
closed = 1;
nodes = (
"339 0 LINE SMOOTH",
"354 0 OFFCURVE",
"358 7 OFFCURVE",
"358 20 CURVE SMOOTH",
"358 40 OFFCURVE",
"345 50 OFFCURVE",
"314 65 CURVE SMOOTH",
"276 84 LINE",
"276 289 LINE",
"500 0 LINE",
"708 0 LINE SMOOTH",
"723 0 OFFCURVE",
"727 8 OFFCURVE",
"727 21 CURVE SMOOTH",
"727 41 OFFCURVE",
"712 53 OFFCURVE",
"680 64 CURVE SMOOTH",
"632 81 LINE",
"451 294 LINE",
"573 309 OFFCURVE",
"647 376 OFFCURVE",
"647 491 CURVE SMOOTH",
"647 622 OFFCURVE",
"550 695 OFFCURVE",
"397 695 CURVE SMOOTH",
"69 695 LINE SMOOTH",
"57 695 OFFCURVE",
"47 687 OFFCURVE",
"47 666 CURVE SMOOTH",
"47 638 OFFCURVE",
"70 629 OFFCURVE",
"113 613 CURVE SMOOTH",
"126 608 LINE",
"126 85 LINE",
"117 85 LINE SMOOTH",
"78 85 OFFCURVE",
"51 69 OFFCURVE",
"51 35 CURVE SMOOTH",
"51 13 OFFCURVE",
"61 0 OFFCURVE",
"80 0 CURVE SMOOTH"
);
},
{
closed = 1;
nodes = (
"276 607 LINE",
"383 607 LINE SMOOTH",
"454 607 OFFCURVE",
"497 565 OFFCURVE",
"497 491 CURVE SMOOTH",
"497 417 OFFCURVE",
"454 375 OFFCURVE",
"383 375 CURVE SMOOTH",
"276 375 LINE"
);
},
{
closed = 1;
nodes = (
"458 927 LINE",
"353 996 LINE",
"242 808 LINE",
"322 755 LINE"
);
}
);
width = 736;
}
);
note = Racute;
unicode = 0154;
},
{
glyphname = Rcaron;
lastChange = "2015-07-16 19:31:59 +0000";
layers = (
{
layerId = "9EEBCA4B-DAAA-41A9-8636-8F7562732FC0";
name = Bold;
paths = (
{
closed = 1;
nodes = (
"339 0 LINE SMOOTH",
"354 0 OFFCURVE",
"358 7 OFFCURVE",
"358 20 CURVE SMOOTH",
"358 40 OFFCURVE",
"345 50 OFFCURVE",
"314 65 CURVE SMOOTH",
"276 84 LINE",
"276 289 LINE",
"500 0 LINE",
"708 0 LINE SMOOTH",
"723 0 OFFCURVE",
"727 8 OFFCURVE",
"727 21 CURVE SMOOTH",
"727 41 OFFCURVE",
"712 53 OFFCURVE",
"680 64 CURVE SMOOTH",
"632 81 LINE",
"451 294 LINE",
"573 309 OFFCURVE",
"647 376 OFFCURVE",
"647 491 CURVE SMOOTH",
"647 622 OFFCURVE",
"550 695 OFFCURVE",
"397 695 CURVE SMOOTH",
"69 695 LINE SMOOTH",
"57 695 OFFCURVE",
"47 687 OFFCURVE",
"47 666 CURVE SMOOTH",
"47 638 OFFCURVE",
"70 629 OFFCURVE",
"113 613 CURVE SMOOTH",
"126 608 LINE",
"126 85 LINE",
"117 85 LINE SMOOTH",
"78 85 OFFCURVE",
"51 69 OFFCURVE",
"51 35 CURVE SMOOTH",
"51 13 OFFCURVE",
"61 0 OFFCURVE",
"80 0 CURVE SMOOTH"
);
},
{
closed = 1;
nodes = (
"276 607 LINE",
"383 607 LINE SMOOTH",
"454 607 OFFCURVE",
"497 565 OFFCURVE",
"497 491 CURVE SMOOTH",
"497 417 OFFCURVE",
"454 375 OFFCURVE",
"383 375 CURVE SMOOTH",
"276 375 LINE"
);
},
{
closed = 1;
nodes = (
"360 754 LINE",
"485 917 LINE",
"424 971 LINE",
"327 860 LINE",
"230 971 LINE",
"169 917 LINE",
"294 754 LINE"
);
}
);
width = 736;
}
);
note = Rcaron;
unicode = 0158;
},
{
glyphname = Rcommaaccent;
lastChange = "2015-07-16 19:31:59 +0000";
layers = (
{
layerId = "9EEBCA4B-DAAA-41A9-8636-8F7562732FC0";
name = Bold;
paths = (
{
closed = 1;
nodes = (
"339 0 LINE SMOOTH",
"354 0 OFFCURVE",
"358 7 OFFCURVE",
"358 20 CURVE SMOOTH",
"358 40 OFFCURVE",
"345 50 OFFCURVE",
"314 65 CURVE SMOOTH",
"276 84 LINE",
"276 289 LINE",
"500 0 LINE",
"708 0 LINE SMOOTH",
"723 0 OFFCURVE",
"727 8 OFFCURVE",
"727 21 CURVE SMOOTH",
"727 41 OFFCURVE",
"712 53 OFFCURVE",
"680 64 CURVE SMOOTH",
"632 81 LINE",
"451 294 LINE",
"573 309 OFFCURVE",
"647 376 OFFCURVE",
"647 491 CURVE SMOOTH",
"647 622 OFFCURVE",
"550 695 OFFCURVE",
"397 695 CURVE SMOOTH",
"69 695 LINE SMOOTH",
"57 695 OFFCURVE",
"47 687 OFFCURVE",
"47 666 CURVE SMOOTH",
"47 638 OFFCURVE",
"70 629 OFFCURVE",
"113 613 CURVE SMOOTH",
"126 608 LINE",
"126 85 LINE",
"117 85 LINE SMOOTH",
"78 85 OFFCURVE",
"51 69 OFFCURVE",
"51 35 CURVE SMOOTH",
"51 13 OFFCURVE",
"61 0 OFFCURVE",
"80 0 CURVE SMOOTH"
);
},
{
closed = 1;
nodes = (
"398 -242 OFFCURVE",
"446 -141 OFFCURVE",
"462 -83 CURVE",
"354 -59 LINE SMOOTH",
"320 -51 OFFCURVE",
"297 -66 OFFCURVE",
"297 -94 CURVE SMOOTH",
"297 -108 OFFCURVE",
"305 -115 OFFCURVE",
"317 -119 CURVE SMOOTH",
"343 -127 LINE",
"339 -161 OFFCURVE",
"305 -230 OFFCURVE",
"279 -266 CURVE",
"340 -303 LINE"
);
},
{
closed = 1;
nodes = (
"276 607 LINE",
"383 607 LINE SMOOTH",
"454 607 OFFCURVE",
"497 565 OFFCURVE",
"497 491 CURVE SMOOTH",
"497 417 OFFCURVE",
"454 375 OFFCURVE",
"383 375 CURVE SMOOTH",
"276 375 LINE"
);
}
);
width = 736;
}
);
note = Rcommaaccent;
unicode = 0156;
},
{
glyphname = Rdotbelow;
lastChange = "2015-07-16 19:31:59 +0000";
layers = (
{
layerId = "9EEBCA4B-DAAA-41A9-8636-8F7562732FC0";
name = Bold;
paths = (
{
closed = 1;
nodes = (
"339 0 LINE SMOOTH",
"354 0 OFFCURVE",
"358 7 OFFCURVE",
"358 20 CURVE SMOOTH",
"358 40 OFFCURVE",
"345 50 OFFCURVE",
"314 65 CURVE SMOOTH",
"276 84 LINE",
"276 289 LINE",
"500 0 LINE",
"708 0 LINE SMOOTH",
"723 0 OFFCURVE",
"727 8 OFFCURVE",
"727 21 CURVE SMOOTH",
"727 41 OFFCURVE",
"712 53 OFFCURVE",
"680 64 CURVE SMOOTH",
"632 81 LINE",
"451 294 LINE",
"573 309 OFFCURVE",
"647 376 OFFCURVE",
"647 491 CURVE SMOOTH",
"647 622 OFFCURVE",
"550 695 OFFCURVE",
"397 695 CURVE SMOOTH",
"69 695 LINE SMOOTH",
"57 695 OFFCURVE",
"47 687 OFFCURVE",
"47 666 CURVE SMOOTH",
"47 638 OFFCURVE",
"70 629 OFFCURVE",
"113 613 CURVE SMOOTH",
"126 608 LINE",
"126 85 LINE",
"117 85 LINE SMOOTH",
"78 85 OFFCURVE",
"51 69 OFFCURVE",
"51 35 CURVE SMOOTH",
"51 13 OFFCURVE",
"61 0 OFFCURVE",
"80 0 CURVE SMOOTH"
);
},
{
closed = 1;
nodes = (
"412 -208 OFFCURVE",
"444 -178 OFFCURVE",
"444 -137 CURVE SMOOTH",
"444 -96 OFFCURVE",
"412 -66 OFFCURVE",
"374 -66 CURVE SMOOTH",
"335 -66 OFFCURVE",
"303 -96 OFFCURVE",
"303 -137 CURVE SMOOTH",
"303 -178 OFFCURVE",
"335 -208 OFFCURVE",
"374 -208 CURVE SMOOTH"
);
},
{
closed = 1;
nodes = (
"276 607 LINE",
"383 607 LINE SMOOTH",
"454 607 OFFCURVE",
"497 565 OFFCURVE",
"497 491 CURVE SMOOTH",
"497 417 OFFCURVE",
"454 375 OFFCURVE",
"383 375 CURVE SMOOTH",
"276 375 LINE"
);
}
);
width = 736;
}
);
note = Rdotbelow;
unicode = 1E5A;
},
{
glyphname = Rdotbelowmacron;
lastChange = "2015-07-16 19:31:59 +0000";
layers = (
{
layerId = "9EEBCA4B-DAAA-41A9-8636-8F7562732FC0";
name = Bold;
paths = (
{
closed = 1;
nodes = (
"339 0 LINE SMOOTH",
"354 0 OFFCURVE",
"358 7 OFFCURVE",
"358 20 CURVE SMOOTH",
"358 40 OFFCURVE",
"345 50 OFFCURVE",
"314 65 CURVE SMOOTH",
"276 84 LINE",
"276 289 LINE",
"500 0 LINE",
"708 0 LINE SMOOTH",
"723 0 OFFCURVE",
"727 8 OFFCURVE",
"727 21 CURVE SMOOTH",
"727 41 OFFCURVE",
"712 53 OFFCURVE",
"680 64 CURVE SMOOTH",
"632 81 LINE",
"451 294 LINE",
"573 309 OFFCURVE",
"647 376 OFFCURVE",
"647 491 CURVE SMOOTH",
"647 622 OFFCURVE",
"550 695 OFFCURVE",
"397 695 CURVE SMOOTH",
"69 695 LINE SMOOTH",
"57 695 OFFCURVE",
"47 687 OFFCURVE",
"47 666 CURVE SMOOTH",
"47 638 OFFCURVE",
"70 629 OFFCURVE",
"113 613 CURVE SMOOTH",
"126 608 LINE",
"126 85 LINE",
"117 85 LINE SMOOTH",
"78 85 OFFCURVE",
"51 69 OFFCURVE",
"51 35 CURVE SMOOTH",
"51 13 OFFCURVE",
"61 0 OFFCURVE",
"80 0 CURVE SMOOTH"
);
},
{
closed = 1;
nodes = (
"412 -208 OFFCURVE",
"444 -178 OFFCURVE",
"444 -137 CURVE SMOOTH",
"444 -96 OFFCURVE",
"412 -66 OFFCURVE",
"374 -66 CURVE SMOOTH",
"335 -66 OFFCURVE",
"303 -96 OFFCURVE",
"303 -137 CURVE SMOOTH",
"303 -178 OFFCURVE",
"335 -208 OFFCURVE",
"374 -208 CURVE SMOOTH"
);
},
{
closed = 1;
nodes = (
"276 607 LINE",
"383 607 LINE SMOOTH",
"454 607 OFFCURVE",
"497 565 OFFCURVE",
"497 491 CURVE SMOOTH",
"497 417 OFFCURVE",
"454 375 OFFCURVE",
"383 375 CURVE SMOOTH",
"276 375 LINE"
);
},
{
closed = 1;
nodes = (
"503 788 LINE",
"503 882 LINE",
"203 882 LINE",
"203 788 LINE"
);
}
);
width = 736;
}
);
note = Rdotbelowmacron;
unicode = 1E5C;
},
{
glyphname = Rlinebelow;
lastChange = "2015-07-16 19:31:59 +0000";
layers = (
{
layerId = "9EEBCA4B-DAAA-41A9-8636-8F7562732FC0";
name = Bold;
paths = (
{
closed = 1;
nodes = (
"339 0 LINE SMOOTH",
"354 0 OFFCURVE",
"358 7 OFFCURVE",
"358 20 CURVE SMOOTH",
"358 40 OFFCURVE",
"345 50 OFFCURVE",
"314 65 CURVE SMOOTH",
"276 84 LINE",
"276 289 LINE",
"500 0 LINE",
"708 0 LINE SMOOTH",
"723 0 OFFCURVE",
"727 8 OFFCURVE",
"727 21 CURVE SMOOTH",
"727 41 OFFCURVE",
"712 53 OFFCURVE",
"680 64 CURVE SMOOTH",
"632 81 LINE",
"451 294 LINE",
"573 309 OFFCURVE",
"647 376 OFFCURVE",
"647 491 CURVE SMOOTH",
"647 622 OFFCURVE",
"550 695 OFFCURVE",
"397 695 CURVE SMOOTH",
"69 695 LINE SMOOTH",
"57 695 OFFCURVE",
"47 687 OFFCURVE",
"47 666 CURVE SMOOTH",
"47 638 OFFCURVE",
"70 629 OFFCURVE",
"113 613 CURVE SMOOTH",
"126 608 LINE",
"126 85 LINE",
"117 85 LINE SMOOTH",
"78 85 OFFCURVE",
"51 69 OFFCURVE",
"51 35 CURVE SMOOTH",
"51 13 OFFCURVE",
"61 0 OFFCURVE",
"80 0 CURVE SMOOTH"
);
},
{
closed = 1;
nodes = (
"591 -182 LINE",
"591 -88 LINE",
"177 -88 LINE",
"177 -182 LINE"
);
},
{
closed = 1;
nodes = (
"276 607 LINE",
"383 607 LINE SMOOTH",
"454 607 OFFCURVE",
"497 565 OFFCURVE",
"497 491 CURVE SMOOTH",
"497 417 OFFCURVE",
"454 375 OFFCURVE",
"383 375 CURVE SMOOTH",
"276 375 LINE"
);
}
);
width = 736;
}
);
note = Rlinebelow;
unicode = 1E5E;
},
{
glyphname = S;
lastChange = "2015-07-16 19:31:59 +0000";
layers = (
{
layerId = "9EEBCA4B-DAAA-41A9-8636-8F7562732FC0";
name = Bold;
paths = (
{
closed = 1;
nodes = (
"441 -15 OFFCURVE",
"559 43 OFFCURVE",
"559 177 CURVE SMOOTH",
"559 300 OFFCURVE",
"476 354 OFFCURVE",
"378 402 CURVE SMOOTH",
"262 459 OFFCURVE",
"194 484 OFFCURVE",
"194 541 CURVE SMOOTH",
"194 592 OFFCURVE",
"239 616 OFFCURVE",
"300 616 CURVE SMOOTH",
"360 616 OFFCURVE",
"399 602 OFFCURVE",
"424 588 CURVE",
"443 532 LINE SMOOTH",
"462 475 OFFCURVE",
"473 461 OFFCURVE",
"498 461 CURVE SMOOTH",
"515 461 OFFCURVE",
"522 472 OFFCURVE",
"522 485 CURVE SMOOTH",
"522 640 LINE",
"465 682 OFFCURVE",
"376 710 OFFCURVE",
"287 710 CURVE SMOOTH",
"163 710 OFFCURVE",
"44 651 OFFCURVE",
"44 524 CURVE SMOOTH",
"44 406 OFFCURVE",
"148 348 OFFCURVE",
"259 297 CURVE SMOOTH",
"374 244 OFFCURVE",
"409 218 OFFCURVE",
"409 160 CURVE SMOOTH",
"409 99 OFFCURVE",
"340 79 OFFCURVE",
"274 79 CURVE SMOOTH",
"219 79 OFFCURVE",
"164 93 OFFCURVE",
"139 109 CURVE",
"120 165 LINE SMOOTH",
"101 222 OFFCURVE",
"90 236 OFFCURVE",
"65 236 CURVE SMOOTH",
"48 236 OFFCURVE",
"41 225 OFFCURVE",
"41 212 CURVE SMOOTH",
"41 45 LINE",
"98 12 OFFCURVE",
"205 -15 OFFCURVE",
"289 -15 CURVE SMOOTH"
);
}
);
width = 600;
}
);
note = S;
unicode = 0053;
},
{
glyphname = Sacute;
lastChange = "2015-07-16 19:31:59 +0000";
layers = (
{
layerId = "9EEBCA4B-DAAA-41A9-8636-8F7562732FC0";
name = Bold;
paths = (
{
closed = 1;
nodes = (
"441 -15 OFFCURVE",
"559 43 OFFCURVE",
"559 177 CURVE SMOOTH",
"559 300 OFFCURVE",
"476 354 OFFCURVE",
"378 402 CURVE SMOOTH",
"262 459 OFFCURVE",
"194 484 OFFCURVE",
"194 541 CURVE SMOOTH",
"194 592 OFFCURVE",
"239 616 OFFCURVE",
"300 616 CURVE SMOOTH",
"360 616 OFFCURVE",
"399 602 OFFCURVE",
"424 588 CURVE",
"443 532 LINE SMOOTH",
"462 475 OFFCURVE",
"473 461 OFFCURVE",
"498 461 CURVE SMOOTH",
"515 461 OFFCURVE",
"522 472 OFFCURVE",
"522 485 CURVE SMOOTH",
"522 640 LINE",
"465 682 OFFCURVE",
"376 710 OFFCURVE",
"287 710 CURVE SMOOTH",
"163 710 OFFCURVE",
"44 651 OFFCURVE",
"44 524 CURVE SMOOTH",
"44 406 OFFCURVE",
"148 348 OFFCURVE",
"259 297 CURVE SMOOTH",
"374 244 OFFCURVE",
"409 218 OFFCURVE",
"409 160 CURVE SMOOTH",
"409 99 OFFCURVE",
"340 79 OFFCURVE",
"274 79 CURVE SMOOTH",
"219 79 OFFCURVE",
"164 93 OFFCURVE",
"139 109 CURVE",
"120 165 LINE SMOOTH",
"101 222 OFFCURVE",
"90 236 OFFCURVE",
"65 236 CURVE SMOOTH",
"48 236 OFFCURVE",
"41 225 OFFCURVE",
"41 212 CURVE SMOOTH",
"41 45 LINE",
"98 12 OFFCURVE",
"205 -15 OFFCURVE",
"289 -15 CURVE SMOOTH"
);
},
{
closed = 1;
nodes = (
"407 926 LINE",
"302 995 LINE",
"191 807 LINE",
"271 754 LINE"
);
}
);
width = 600;
}
);
note = Sacute;
unicode = 015A;
},
{
glyphname = Scaron;
lastChange = "2015-07-16 19:31:59 +0000";
layers = (
{
layerId = "9EEBCA4B-DAAA-41A9-8636-8F7562732FC0";
name = Bold;
paths = (
{
closed = 1;
nodes = (
"441 -15 OFFCURVE",
"559 43 OFFCURVE",
"559 177 CURVE SMOOTH",
"559 300 OFFCURVE",
"476 354 OFFCURVE",
"378 402 CURVE SMOOTH",
"262 459 OFFCURVE",
"194 484 OFFCURVE",
"194 541 CURVE SMOOTH",
"194 592 OFFCURVE",
"239 616 OFFCURVE",
"300 616 CURVE SMOOTH",
"360 616 OFFCURVE",
"399 602 OFFCURVE",
"424 588 CURVE",
"443 532 LINE SMOOTH",
"462 475 OFFCURVE",
"473 461 OFFCURVE",
"498 461 CURVE SMOOTH",
"515 461 OFFCURVE",
"522 472 OFFCURVE",
"522 485 CURVE SMOOTH",
"522 640 LINE",
"465 682 OFFCURVE",
"376 710 OFFCURVE",
"287 710 CURVE SMOOTH",
"163 710 OFFCURVE",
"44 651 OFFCURVE",
"44 524 CURVE SMOOTH",
"44 406 OFFCURVE",
"148 348 OFFCURVE",
"259 297 CURVE SMOOTH",
"374 244 OFFCURVE",
"409 218 OFFCURVE",
"409 160 CURVE SMOOTH",
"409 99 OFFCURVE",
"340 79 OFFCURVE",
"274 79 CURVE SMOOTH",
"219 79 OFFCURVE",
"164 93 OFFCURVE",
"139 109 CURVE",
"120 165 LINE SMOOTH",
"101 222 OFFCURVE",
"90 236 OFFCURVE",
"65 236 CURVE SMOOTH",
"48 236 OFFCURVE",
"41 225 OFFCURVE",
"41 212 CURVE SMOOTH",
"41 45 LINE",
"98 12 OFFCURVE",
"205 -15 OFFCURVE",
"289 -15 CURVE SMOOTH"
);
},
{
closed = 1;
nodes = (
"320 754 LINE",
"445 917 LINE",
"384 971 LINE",
"287 860 LINE",
"190 971 LINE",
"129 917 LINE",
"254 754 LINE"
);
}
);
width = 600;
}
);
note = Scaron;
unicode = 0160;
},
{
glyphname = Scedilla;
lastChange = "2015-07-16 19:31:59 +0000";
layers = (
{
layerId = "9EEBCA4B-DAAA-41A9-8636-8F7562732FC0";
name = Bold;
paths = (
{
closed = 1;
nodes = (
"298 -217 OFFCURVE",
"366 -174 OFFCURVE",
"366 -123 CURVE SMOOTH",
"366 -91 OFFCURVE",
"346 -71 OFFCURVE",
"317 -59 CURVE",
"337 -13 LINE",
"465 -2 OFFCURVE",
"559 58 OFFCURVE",
"559 177 CURVE SMOOTH",
"559 300 OFFCURVE",
"476 354 OFFCURVE",
"378 402 CURVE SMOOTH",
"262 459 OFFCURVE",
"194 484 OFFCURVE",
"194 541 CURVE SMOOTH",
"194 592 OFFCURVE",
"239 616 OFFCURVE",
"300 616 CURVE SMOOTH",
"360 616 OFFCURVE",
"399 602 OFFCURVE",
"424 588 CURVE",
"443 532 LINE SMOOTH",
"462 475 OFFCURVE",
"473 461 OFFCURVE",
"498 461 CURVE SMOOTH",
"515 461 OFFCURVE",
"522 472 OFFCURVE",
"522 485 CURVE SMOOTH",
"522 640 LINE",
"465 682 OFFCURVE",
"376 710 OFFCURVE",
"287 710 CURVE SMOOTH",
"163 710 OFFCURVE",
"44 651 OFFCURVE",
"44 524 CURVE SMOOTH",
"44 406 OFFCURVE",
"148 348 OFFCURVE",
"259 297 CURVE SMOOTH",
"374 244 OFFCURVE",
"409 218 OFFCURVE",
"409 160 CURVE SMOOTH",
"409 99 OFFCURVE",
"340 79 OFFCURVE",
"274 79 CURVE SMOOTH",
"219 79 OFFCURVE",
"164 93 OFFCURVE",
"139 109 CURVE",
"120 165 LINE SMOOTH",
"101 222 OFFCURVE",
"90 236 OFFCURVE",
"65 236 CURVE SMOOTH",
"48 236 OFFCURVE",
"41 225 OFFCURVE",
"41 212 CURVE SMOOTH",
"41 45 LINE",
"89 17 OFFCURVE",
"172 -6 OFFCURVE",
"247 -13 CURVE",
"227 -71 LINE",
"254 -80 OFFCURVE",
"268 -96 OFFCURVE",
"268 -119 CURVE SMOOTH",
"268 -146 OFFCURVE",
"249 -170 OFFCURVE",
"202 -185 CURVE",
"221 -231 LINE"
);
}
);
width = 600;
}
);
note = Scedilla;
unicode = 015E;
},
{
glyphname = Scircumflex;
lastChange = "2015-07-16 19:31:59 +0000";
layers = (
{
layerId = "9EEBCA4B-DAAA-41A9-8636-8F7562732FC0";
name = Bold;
paths = (
{
closed = 1;
nodes = (
"441 -15 OFFCURVE",
"559 43 OFFCURVE",
"559 177 CURVE SMOOTH",
"559 300 OFFCURVE",
"476 354 OFFCURVE",
"378 402 CURVE SMOOTH",
"262 459 OFFCURVE",
"194 484 OFFCURVE",
"194 541 CURVE SMOOTH",
"194 592 OFFCURVE",
"239 616 OFFCURVE",
"300 616 CURVE SMOOTH",
"360 616 OFFCURVE",
"399 602 OFFCURVE",
"424 588 CURVE",
"443 532 LINE SMOOTH",
"462 475 OFFCURVE",
"473 461 OFFCURVE",
"498 461 CURVE SMOOTH",
"515 461 OFFCURVE",
"522 472 OFFCURVE",
"522 485 CURVE SMOOTH",
"522 640 LINE",
"465 682 OFFCURVE",
"376 710 OFFCURVE",
"287 710 CURVE SMOOTH",
"163 710 OFFCURVE",
"44 651 OFFCURVE",
"44 524 CURVE SMOOTH",
"44 406 OFFCURVE",
"148 348 OFFCURVE",
"259 297 CURVE SMOOTH",
"374 244 OFFCURVE",
"409 218 OFFCURVE",
"409 160 CURVE SMOOTH",
"409 99 OFFCURVE",
"340 79 OFFCURVE",
"274 79 CURVE SMOOTH",
"219 79 OFFCURVE",
"164 93 OFFCURVE",
"139 109 CURVE",
"120 165 LINE SMOOTH",
"101 222 OFFCURVE",
"90 236 OFFCURVE",
"65 236 CURVE SMOOTH",
"48 236 OFFCURVE",
"41 225 OFFCURVE",
"41 212 CURVE SMOOTH",
"41 45 LINE",
"98 12 OFFCURVE",
"205 -15 OFFCURVE",
"289 -15 CURVE SMOOTH"
);
},
{
closed = 1;
nodes = (
"282 865 LINE",
"379 754 LINE",
"440 808 LINE",
"315 971 LINE",
"249 971 LINE",
"124 808 LINE",
"185 754 LINE"
);
}
);
width = 600;
}
);
note = Scircumflex;
unicode = 015C;
},
